<?xml version="1.0" encoding="utf-8" standalone="no"?>
<!DOCTYPE svg PUBLIC "-//W3C//DTD SVG 1.1//EN"
  "http://www.w3.org/Graphics/SVG/1.1/DTD/svg11.dtd">
<svg xmlns:xlink="http://www.w3.org/1999/xlink" width="590.4pt" height="590.4pt" viewBox="0 0 590.4 590.4" xmlns="http://www.w3.org/2000/svg" version="1.1">
 <metadata>
  <rdf:RDF xmlns:dc="http://purl.org/dc/elements/1.1/" xmlns:cc="http://creativecommons.org/ns#" xmlns:rdf="http://www.w3.org/1999/02/22-rdf-syntax-ns#">
   <cc:Work>
    <dc:type rdf:resource="http://purl.org/dc/dcmitype/StillImage"/>
    <dc:date>2025-10-06T13:32:08.407976</dc:date>
    <dc:format>image/svg+xml</dc:format>
    <dc:creator>
     <cc:Agent>
      <dc:title>Matplotlib v3.10.5, https://matplotlib.org/</dc:title>
     </cc:Agent>
    </dc:creator>
   </cc:Work>
  </rdf:RDF>
 </metadata>
 <defs>
  <style type="text/css">*{stroke-linejoin: round; stroke-linecap: butt}</style>
 </defs>
 <g id="figure_1">
  <g id="patch_1">
   <path d="M 0 590.4 
L 590.4 590.4 
L 590.4 0 
L 0 0 
z
" style="fill: #ffffff"/>
  </g>
  <g id="axes_1">
   <g id="patch_2">
    <path d="M 7.2 583.2 
L 583.2 583.2 
L 583.2 7.2 
L 7.2 7.2 
z
" clip-path="url(#p897823fc32)" style="fill: #ffffff; stroke: #ffffff; stroke-linejoin: miter"/>
   </g>
   <g id="patch_3">
    <path d="M 128.463158 7.2 
Q 128.463158 104.748387 128.463158 104.748387 
" clip-path="url(#p897823fc32)" style="fill: none; stroke: #000000; stroke-linejoin: miter"/>
   </g>
   <g id="patch_4">
    <path d="M 249.726316 7.2 
Q 249.726316 123.329032 249.726316 123.329032 
" clip-path="url(#p897823fc32)" style="fill: none; stroke: #000000; stroke-linejoin: miter"/>
   </g>
   <g id="patch_5">
    <path d="M 370.989474 53.651613 
Q 340.673684 53.651613 340.673684 58.296774 
" clip-path="url(#p897823fc32)" style="fill: none; stroke: #000000; stroke-linejoin: miter"/>
   </g>
   <g id="patch_6">
    <path d="M 370.989474 53.651613 
Q 401.305263 53.651613 401.305263 58.296774 
" clip-path="url(#p897823fc32)" style="fill: none; stroke: #000000; stroke-linejoin: miter"/>
   </g>
   <g id="patch_7">
    <path d="M 340.673684 58.296774 
Q 340.673684 193.006452 340.673684 193.006452 
" clip-path="url(#p897823fc32)" style="fill: none; stroke: #000000; stroke-linejoin: miter"/>
   </g>
   <g id="patch_8">
    <path d="M 401.305263 58.296774 
Q 401.305263 81.522581 401.305263 81.522581 
" clip-path="url(#p897823fc32)" style="fill: none; stroke: #000000; stroke-linejoin: miter"/>
   </g>
   <g id="patch_9">
    <path d="M 492.252632 72.232258 
Q 461.936842 72.232258 461.936842 76.877419 
" clip-path="url(#p897823fc32)" style="fill: none; stroke: #000000; stroke-linejoin: miter"/>
   </g>
   <g id="patch_10">
    <path d="M 492.252632 72.232258 
Q 522.568421 72.232258 522.568421 76.877419 
" clip-path="url(#p897823fc32)" style="fill: none; stroke: #000000; stroke-linejoin: miter"/>
   </g>
   <g id="patch_11">
    <path d="M 461.936842 76.877419 
Q 461.936842 81.522581 461.936842 81.522581 
" clip-path="url(#p897823fc32)" style="fill: none; stroke: #000000; stroke-linejoin: miter"/>
   </g>
   <g id="patch_12">
    <path d="M 522.568421 76.877419 
Q 522.568421 402.03871 522.568421 402.03871 
" clip-path="url(#p897823fc32)" style="fill: none; stroke: #000000; stroke-linejoin: miter"/>
   </g>
   <g id="patch_13">
    <path d="M 431.621053 90.812903 
Q 401.305263 90.812903 401.305263 100.103226 
" clip-path="url(#p897823fc32)" style="fill: none; stroke: #000000; stroke-linejoin: miter"/>
   </g>
   <g id="patch_14">
    <path d="M 431.621053 90.812903 
Q 461.936842 90.812903 461.936842 100.103226 
" clip-path="url(#p897823fc32)" style="fill: none; stroke: #000000; stroke-linejoin: miter"/>
   </g>
   <g id="patch_15">
    <path d="M 401.305263 81.522581 
Q 401.305263 90.812903 431.621053 90.812903 
" clip-path="url(#p897823fc32)" style="fill: none; stroke: #000000; stroke-linejoin: miter"/>
   </g>
   <g id="patch_16">
    <path d="M 461.936842 81.522581 
Q 461.936842 90.812903 431.621053 90.812903 
" clip-path="url(#p897823fc32)" style="fill: none; stroke: #000000; stroke-linejoin: miter"/>
   </g>
   <g id="patch_17">
    <path d="M 401.305263 100.103226 
Q 401.305263 234.812903 401.305263 234.812903 
" clip-path="url(#p897823fc32)" style="fill: none; stroke: #000000; stroke-linejoin: miter"/>
   </g>
   <g id="patch_18">
    <path d="M 461.936842 100.103226 
Q 461.936842 341.651613 461.936842 341.651613 
" clip-path="url(#p897823fc32)" style="fill: none; stroke: #000000; stroke-linejoin: miter"/>
   </g>
   <g id="patch_19">
    <path d="M 128.463158 109.393548 
Q 98.147368 109.393548 98.147368 114.03871 
" clip-path="url(#p897823fc32)" style="fill: none; stroke: #000000; stroke-linejoin: miter"/>
   </g>
   <g id="patch_20">
    <path d="M 128.463158 109.393548 
Q 158.778947 109.393548 158.778947 114.03871 
" clip-path="url(#p897823fc32)" style="fill: none; stroke: #000000; stroke-linejoin: miter"/>
   </g>
   <g id="patch_21">
    <path d="M 128.463158 104.748387 
Q 128.463158 109.393548 128.463158 109.393548 
" clip-path="url(#p897823fc32)" style="fill: none; stroke: #000000; stroke-linejoin: miter"/>
   </g>
   <g id="patch_22">
    <path d="M 98.147368 114.03871 
Q 98.147368 253.393548 98.147368 253.393548 
" clip-path="url(#p897823fc32)" style="fill: none; stroke: #000000; stroke-linejoin: miter"/>
   </g>
   <g id="patch_23">
    <path d="M 158.778947 114.03871 
Q 158.778947 137.264516 158.778947 137.264516 
" clip-path="url(#p897823fc32)" style="fill: none; stroke: #000000; stroke-linejoin: miter"/>
   </g>
   <g id="patch_24">
    <path d="M 249.726316 127.974194 
Q 219.410526 127.974194 219.410526 132.619355 
" clip-path="url(#p897823fc32)" style="fill: none; stroke: #000000; stroke-linejoin: miter"/>
   </g>
   <g id="patch_25">
    <path d="M 249.726316 127.974194 
Q 280.042105 127.974194 280.042105 132.619355 
" clip-path="url(#p897823fc32)" style="fill: none; stroke: #000000; stroke-linejoin: miter"/>
   </g>
   <g id="patch_26">
    <path d="M 249.726316 123.329032 
Q 249.726316 127.974194 249.726316 127.974194 
" clip-path="url(#p897823fc32)" style="fill: none; stroke: #000000; stroke-linejoin: miter"/>
   </g>
   <g id="patch_27">
    <path d="M 219.410526 132.619355 
Q 219.410526 137.264516 219.410526 137.264516 
" clip-path="url(#p897823fc32)" style="fill: none; stroke: #000000; stroke-linejoin: miter"/>
   </g>
   <g id="patch_28">
    <path d="M 280.042105 132.619355 
Q 280.042105 193.006452 280.042105 193.006452 
" clip-path="url(#p897823fc32)" style="fill: none; stroke: #000000; stroke-linejoin: miter"/>
   </g>
   <g id="patch_29">
    <path d="M 189.094737 146.554839 
Q 158.778947 146.554839 158.778947 155.845161 
" clip-path="url(#p897823fc32)" style="fill: none; stroke: #000000; stroke-linejoin: miter"/>
   </g>
   <g id="patch_30">
    <path d="M 189.094737 146.554839 
Q 219.410526 146.554839 219.410526 155.845161 
" clip-path="url(#p897823fc32)" style="fill: none; stroke: #000000; stroke-linejoin: miter"/>
   </g>
   <g id="patch_31">
    <path d="M 158.778947 137.264516 
Q 158.778947 146.554839 189.094737 146.554839 
" clip-path="url(#p897823fc32)" style="fill: none; stroke: #000000; stroke-linejoin: miter"/>
   </g>
   <g id="patch_32">
    <path d="M 219.410526 137.264516 
Q 219.410526 146.554839 189.094737 146.554839 
" clip-path="url(#p897823fc32)" style="fill: none; stroke: #000000; stroke-linejoin: miter"/>
   </g>
   <g id="patch_33">
    <path d="M 158.778947 155.845161 
Q 158.778947 271.974194 158.778947 271.974194 
" clip-path="url(#p897823fc32)" style="fill: none; stroke: #000000; stroke-linejoin: miter"/>
   </g>
   <g id="patch_34">
    <path d="M 219.410526 155.845161 
Q 219.410526 216.232258 219.410526 216.232258 
" clip-path="url(#p897823fc32)" style="fill: none; stroke: #000000; stroke-linejoin: miter"/>
   </g>
   <g id="patch_35">
    <path d="M 310.357895 202.296774 
Q 280.042105 202.296774 280.042105 211.587097 
" clip-path="url(#p897823fc32)" style="fill: none; stroke: #000000; stroke-linejoin: miter"/>
   </g>
   <g id="patch_36">
    <path d="M 310.357895 202.296774 
Q 340.673684 202.296774 340.673684 211.587097 
" clip-path="url(#p897823fc32)" style="fill: none; stroke: #000000; stroke-linejoin: miter"/>
   </g>
   <g id="patch_37">
    <path d="M 280.042105 193.006452 
Q 280.042105 202.296774 310.357895 202.296774 
" clip-path="url(#p897823fc32)" style="fill: none; stroke: #000000; stroke-linejoin: miter"/>
   </g>
   <g id="patch_38">
    <path d="M 340.673684 193.006452 
Q 340.673684 202.296774 310.357895 202.296774 
" clip-path="url(#p897823fc32)" style="fill: none; stroke: #000000; stroke-linejoin: miter"/>
   </g>
   <g id="patch_39">
    <path d="M 280.042105 211.587097 
Q 280.042105 216.232258 280.042105 216.232258 
" clip-path="url(#p897823fc32)" style="fill: none; stroke: #000000; stroke-linejoin: miter"/>
   </g>
   <g id="patch_40">
    <path d="M 340.673684 211.587097 
Q 340.673684 234.812903 340.673684 234.812903 
" clip-path="url(#p897823fc32)" style="fill: none; stroke: #000000; stroke-linejoin: miter"/>
   </g>
   <g id="patch_41">
    <path d="M 249.726316 220.877419 
Q 249.726316 220.877419 249.726316 225.522581 
" clip-path="url(#p897823fc32)" style="fill: none; stroke: #000000; stroke-linejoin: miter"/>
   </g>
   <g id="patch_42">
    <path d="M 219.410526 216.232258 
Q 219.410526 220.877419 249.726316 220.877419 
" clip-path="url(#p897823fc32)" style="fill: none; stroke: #000000; stroke-linejoin: miter"/>
   </g>
   <g id="patch_43">
    <path d="M 280.042105 216.232258 
Q 280.042105 220.877419 249.726316 220.877419 
" clip-path="url(#p897823fc32)" style="fill: none; stroke: #000000; stroke-linejoin: miter"/>
   </g>
   <g id="patch_44">
    <path d="M 249.726316 225.522581 
Q 249.726316 309.135484 249.726316 309.135484 
" clip-path="url(#p897823fc32)" style="fill: none; stroke: #000000; stroke-linejoin: miter"/>
   </g>
   <g id="patch_45">
    <path d="M 370.989474 239.458065 
Q 370.989474 239.458065 370.989474 244.103226 
" clip-path="url(#p897823fc32)" style="fill: none; stroke: #000000; stroke-linejoin: miter"/>
   </g>
   <g id="patch_46">
    <path d="M 340.673684 234.812903 
Q 340.673684 239.458065 370.989474 239.458065 
" clip-path="url(#p897823fc32)" style="fill: none; stroke: #000000; stroke-linejoin: miter"/>
   </g>
   <g id="patch_47">
    <path d="M 401.305263 234.812903 
Q 401.305263 239.458065 370.989474 239.458065 
" clip-path="url(#p897823fc32)" style="fill: none; stroke: #000000; stroke-linejoin: miter"/>
   </g>
   <g id="patch_48">
    <path d="M 370.989474 244.103226 
Q 370.989474 309.135484 370.989474 309.135484 
" clip-path="url(#p897823fc32)" style="fill: none; stroke: #000000; stroke-linejoin: miter"/>
   </g>
   <g id="patch_49">
    <path d="M 98.147368 262.683871 
Q 98.147368 290.554839 98.147368 290.554839 
" clip-path="url(#p897823fc32)" style="fill: none; stroke: #000000; stroke-linejoin: miter"/>
   </g>
   <g id="patch_50">
    <path d="M 158.778947 281.264516 
Q 158.778947 290.554839 158.778947 290.554839 
" clip-path="url(#p897823fc32)" style="fill: none; stroke: #000000; stroke-linejoin: miter"/>
   </g>
   <g id="patch_51">
    <path d="M 128.463158 295.2 
Q 128.463158 295.2 128.463158 299.845161 
" clip-path="url(#p897823fc32)" style="fill: none; stroke: #000000; stroke-linejoin: miter"/>
   </g>
   <g id="patch_52">
    <path d="M 98.147368 290.554839 
Q 98.147368 295.2 128.463158 295.2 
" clip-path="url(#p897823fc32)" style="fill: none; stroke: #000000; stroke-linejoin: miter"/>
   </g>
   <g id="patch_53">
    <path d="M 158.778947 290.554839 
Q 158.778947 295.2 128.463158 295.2 
" clip-path="url(#p897823fc32)" style="fill: none; stroke: #000000; stroke-linejoin: miter"/>
   </g>
   <g id="patch_54">
    <path d="M 128.463158 299.845161 
Q 128.463158 439.2 128.463158 439.2 
" clip-path="url(#p897823fc32)" style="fill: none; stroke: #000000; stroke-linejoin: miter"/>
   </g>
   <g id="patch_55">
    <path d="M 310.357895 313.780645 
Q 310.357895 313.780645 310.357895 318.425806 
" clip-path="url(#p897823fc32)" style="fill: none; stroke: #000000; stroke-linejoin: miter"/>
   </g>
   <g id="patch_56">
    <path d="M 249.726316 309.135484 
Q 249.726316 313.780645 310.357895 313.780645 
" clip-path="url(#p897823fc32)" style="fill: none; stroke: #000000; stroke-linejoin: miter"/>
   </g>
   <g id="patch_57">
    <path d="M 370.989474 309.135484 
Q 370.989474 313.780645 310.357895 313.780645 
" clip-path="url(#p897823fc32)" style="fill: none; stroke: #000000; stroke-linejoin: miter"/>
   </g>
   <g id="patch_58">
    <path d="M 310.357895 318.425806 
Q 310.357895 327.716129 310.357895 327.716129 
" clip-path="url(#p897823fc32)" style="fill: none; stroke: #000000; stroke-linejoin: miter"/>
   </g>
   <g id="patch_59">
    <path d="M 310.357895 332.36129 
Q 280.042105 332.36129 280.042105 337.006452 
" clip-path="url(#p897823fc32)" style="fill: none; stroke: #000000; stroke-linejoin: miter"/>
   </g>
   <g id="patch_60">
    <path d="M 310.357895 332.36129 
Q 340.673684 332.36129 340.673684 337.006452 
" clip-path="url(#p897823fc32)" style="fill: none; stroke: #000000; stroke-linejoin: miter"/>
   </g>
   <g id="patch_61">
    <path d="M 310.357895 327.716129 
Q 310.357895 332.36129 310.357895 332.36129 
" clip-path="url(#p897823fc32)" style="fill: none; stroke: #000000; stroke-linejoin: miter"/>
   </g>
   <g id="patch_62">
    <path d="M 280.042105 337.006452 
Q 280.042105 364.877419 280.042105 364.877419 
" clip-path="url(#p897823fc32)" style="fill: none; stroke: #000000; stroke-linejoin: miter"/>
   </g>
   <g id="patch_63">
    <path d="M 340.673684 337.006452 
Q 340.673684 341.651613 340.673684 341.651613 
" clip-path="url(#p897823fc32)" style="fill: none; stroke: #000000; stroke-linejoin: miter"/>
   </g>
   <g id="patch_64">
    <path d="M 401.305263 350.941935 
Q 340.673684 350.941935 340.673684 360.232258 
" clip-path="url(#p897823fc32)" style="fill: none; stroke: #000000; stroke-linejoin: miter"/>
   </g>
   <g id="patch_65">
    <path d="M 401.305263 350.941935 
Q 461.936842 350.941935 461.936842 360.232258 
" clip-path="url(#p897823fc32)" style="fill: none; stroke: #000000; stroke-linejoin: miter"/>
   </g>
   <g id="patch_66">
    <path d="M 340.673684 341.651613 
Q 340.673684 350.941935 401.305263 350.941935 
" clip-path="url(#p897823fc32)" style="fill: none; stroke: #000000; stroke-linejoin: miter"/>
   </g>
   <g id="patch_67">
    <path d="M 461.936842 341.651613 
Q 461.936842 350.941935 401.305263 350.941935 
" clip-path="url(#p897823fc32)" style="fill: none; stroke: #000000; stroke-linejoin: miter"/>
   </g>
   <g id="patch_68">
    <path d="M 340.673684 360.232258 
Q 340.673684 364.877419 340.673684 364.877419 
" clip-path="url(#p897823fc32)" style="fill: none; stroke: #000000; stroke-linejoin: miter"/>
   </g>
   <g id="patch_69">
    <path d="M 461.936842 360.232258 
Q 461.936842 402.03871 461.936842 402.03871 
" clip-path="url(#p897823fc32)" style="fill: none; stroke: #000000; stroke-linejoin: miter"/>
   </g>
   <g id="patch_70">
    <path d="M 310.357895 369.522581 
Q 310.357895 369.522581 310.357895 374.167742 
" clip-path="url(#p897823fc32)" style="fill: none; stroke: #000000; stroke-linejoin: miter"/>
   </g>
   <g id="patch_71">
    <path d="M 280.042105 364.877419 
Q 280.042105 369.522581 310.357895 369.522581 
" clip-path="url(#p897823fc32)" style="fill: none; stroke: #000000; stroke-linejoin: miter"/>
   </g>
   <g id="patch_72">
    <path d="M 340.673684 364.877419 
Q 340.673684 369.522581 310.357895 369.522581 
" clip-path="url(#p897823fc32)" style="fill: none; stroke: #000000; stroke-linejoin: miter"/>
   </g>
   <g id="patch_73">
    <path d="M 310.357895 374.167742 
Q 310.357895 453.135484 310.357895 453.135484 
" clip-path="url(#p897823fc32)" style="fill: none; stroke: #000000; stroke-linejoin: miter"/>
   </g>
   <g id="patch_74">
    <path d="M 492.252632 406.683871 
Q 492.252632 406.683871 492.252632 411.329032 
" clip-path="url(#p897823fc32)" style="fill: none; stroke: #000000; stroke-linejoin: miter"/>
   </g>
   <g id="patch_75">
    <path d="M 461.936842 402.03871 
Q 461.936842 406.683871 492.252632 406.683871 
" clip-path="url(#p897823fc32)" style="fill: none; stroke: #000000; stroke-linejoin: miter"/>
   </g>
   <g id="patch_76">
    <path d="M 522.568421 402.03871 
Q 522.568421 406.683871 492.252632 406.683871 
" clip-path="url(#p897823fc32)" style="fill: none; stroke: #000000; stroke-linejoin: miter"/>
   </g>
   <g id="patch_77">
    <path d="M 492.252632 411.329032 
Q 492.252632 550.683871 492.252632 550.683871 
" clip-path="url(#p897823fc32)" style="fill: none; stroke: #000000; stroke-linejoin: miter"/>
   </g>
   <g id="patch_78">
    <path d="M 128.463158 443.845161 
Q 98.147368 443.845161 98.147368 448.490323 
" clip-path="url(#p897823fc32)" style="fill: none; stroke: #000000; stroke-linejoin: miter"/>
   </g>
   <g id="patch_79">
    <path d="M 128.463158 443.845161 
Q 158.778947 443.845161 158.778947 448.490323 
" clip-path="url(#p897823fc32)" style="fill: none; stroke: #000000; stroke-linejoin: miter"/>
   </g>
   <g id="patch_80">
    <path d="M 128.463158 439.2 
Q 128.463158 443.845161 128.463158 443.845161 
" clip-path="url(#p897823fc32)" style="fill: none; stroke: #000000; stroke-linejoin: miter"/>
   </g>
   <g id="patch_81">
    <path d="M 98.147368 448.490323 
Q 98.147368 476.36129 98.147368 476.36129 
" clip-path="url(#p897823fc32)" style="fill: none; stroke: #000000; stroke-linejoin: miter"/>
   </g>
   <g id="patch_82">
    <path d="M 158.778947 448.490323 
Q 158.778947 453.135484 158.778947 453.135484 
" clip-path="url(#p897823fc32)" style="fill: none; stroke: #000000; stroke-linejoin: miter"/>
   </g>
   <g id="patch_83">
    <path d="M 234.568421 462.425806 
Q 158.778947 462.425806 158.778947 471.716129 
" clip-path="url(#p897823fc32)" style="fill: none; stroke: #000000; stroke-linejoin: miter"/>
   </g>
   <g id="patch_84">
    <path d="M 234.568421 462.425806 
Q 310.357895 462.425806 310.357895 471.716129 
" clip-path="url(#p897823fc32)" style="fill: none; stroke: #000000; stroke-linejoin: miter"/>
   </g>
   <g id="patch_85">
    <path d="M 158.778947 453.135484 
Q 158.778947 462.425806 234.568421 462.425806 
" clip-path="url(#p897823fc32)" style="fill: none; stroke: #000000; stroke-linejoin: miter"/>
   </g>
   <g id="patch_86">
    <path d="M 310.357895 453.135484 
Q 310.357895 462.425806 234.568421 462.425806 
" clip-path="url(#p897823fc32)" style="fill: none; stroke: #000000; stroke-linejoin: miter"/>
   </g>
   <g id="patch_87">
    <path d="M 158.778947 471.716129 
Q 158.778947 494.941935 158.778947 494.941935 
" clip-path="url(#p897823fc32)" style="fill: none; stroke: #000000; stroke-linejoin: miter"/>
   </g>
   <g id="patch_88">
    <path d="M 310.357895 471.716129 
Q 310.357895 532.103226 310.357895 532.103226 
" clip-path="url(#p897823fc32)" style="fill: none; stroke: #000000; stroke-linejoin: miter"/>
   </g>
   <g id="patch_89">
    <path d="M 98.147368 485.651613 
Q 98.147368 494.941935 98.147368 494.941935 
" clip-path="url(#p897823fc32)" style="fill: none; stroke: #000000; stroke-linejoin: miter"/>
   </g>
   <g id="patch_90">
    <path d="M 128.463158 499.587097 
Q 128.463158 499.587097 128.463158 504.232258 
" clip-path="url(#p897823fc32)" style="fill: none; stroke: #000000; stroke-linejoin: miter"/>
   </g>
   <g id="patch_91">
    <path d="M 98.147368 494.941935 
Q 98.147368 499.587097 128.463158 499.587097 
" clip-path="url(#p897823fc32)" style="fill: none; stroke: #000000; stroke-linejoin: miter"/>
   </g>
   <g id="patch_92">
    <path d="M 158.778947 494.941935 
Q 158.778947 499.587097 128.463158 499.587097 
" clip-path="url(#p897823fc32)" style="fill: none; stroke: #000000; stroke-linejoin: miter"/>
   </g>
   <g id="patch_93">
    <path d="M 128.463158 504.232258 
Q 128.463158 583.2 128.463158 583.2 
" clip-path="url(#p897823fc32)" style="fill: none; stroke: #000000; stroke-linejoin: miter"/>
   </g>
   <g id="patch_94">
    <path d="M 310.357895 541.393548 
Q 310.357895 550.683871 310.357895 550.683871 
" clip-path="url(#p897823fc32)" style="fill: none; stroke: #000000; stroke-linejoin: miter"/>
   </g>
   <g id="patch_95">
    <path d="M 401.305263 555.329032 
Q 401.305263 555.329032 401.305263 559.974194 
" clip-path="url(#p897823fc32)" style="fill: none; stroke: #000000; stroke-linejoin: miter"/>
   </g>
   <g id="patch_96">
    <path d="M 310.357895 550.683871 
Q 310.357895 555.329032 401.305263 555.329032 
" clip-path="url(#p897823fc32)" style="fill: none; stroke: #000000; stroke-linejoin: miter"/>
   </g>
   <g id="patch_97">
    <path d="M 492.252632 550.683871 
Q 492.252632 555.329032 401.305263 555.329032 
" clip-path="url(#p897823fc32)" style="fill: none; stroke: #000000; stroke-linejoin: miter"/>
   </g>
   <g id="patch_98">
    <path d="M 401.305263 559.974194 
Q 401.305263 583.2 401.305263 583.2 
" clip-path="url(#p897823fc32)" style="fill: none; stroke: #000000; stroke-linejoin: miter"/>
   </g>
   <g id="patch_99">
    <path d="M 325.515789 21.135484 
L 325.515789 11.845161 
L 355.831579 11.845161 
L 355.831579 21.135484 
z
" clip-path="url(#p897823fc32)" style="fill: #ffffff; stroke: #000000; stroke-linejoin: miter"/>
   </g>
   <g id="patch_100">
    <path d="M 325.515789 39.716129 
L 325.515789 30.425806 
L 355.831579 30.425806 
L 355.831579 39.716129 
z
" clip-path="url(#p897823fc32)" style="fill: #ffffff; stroke: #000000; stroke-linejoin: miter"/>
   </g>
   <g id="patch_101">
    <path d="M 22.357895 169.780645 
L 22.357895 160.490323 
L 52.673684 160.490323 
L 52.673684 169.780645 
z
" clip-path="url(#p897823fc32)" style="fill: #ffffff; stroke: #000000; stroke-linejoin: miter"/>
   </g>
   <g id="patch_102">
    <path d="M 22.357895 188.36129 
L 22.357895 179.070968 
L 52.673684 179.070968 
L 52.673684 188.36129 
z
" clip-path="url(#p897823fc32)" style="fill: #ffffff; stroke: #000000; stroke-linejoin: miter"/>
   </g>
   <g id="patch_103">
    <path d="M 82.989474 262.683871 
L 82.989474 253.393548 
L 113.305263 253.393548 
L 113.305263 262.683871 
z
" clip-path="url(#p897823fc32)" style="fill: #f7f700; stroke: #000000; stroke-linejoin: miter"/>
   </g>
   <g id="patch_104">
    <path d="M 143.621053 281.264516 
L 143.621053 271.974194 
L 173.936842 271.974194 
L 173.936842 281.264516 
z
" clip-path="url(#p897823fc32)" style="fill: #f7f700; stroke: #000000; stroke-linejoin: miter"/>
   </g>
   <g id="patch_105">
    <path d="M 355.831579 392.748387 
L 355.831579 383.458065 
L 386.147368 383.458065 
L 386.147368 392.748387 
z
" clip-path="url(#p897823fc32)" style="fill: #ffffff; stroke: #000000; stroke-linejoin: miter"/>
   </g>
   <g id="patch_106">
    <path d="M 537.726316 429.909677 
L 537.726316 420.619355 
L 568.042105 420.619355 
L 568.042105 429.909677 
z
" clip-path="url(#p897823fc32)" style="fill: #ffffff; stroke: #000000; stroke-linejoin: miter"/>
   </g>
   <g id="patch_107">
    <path d="M 82.989474 485.651613 
L 82.989474 476.36129 
L 113.305263 476.36129 
L 113.305263 485.651613 
z
" clip-path="url(#p897823fc32)" style="fill: #f7f700; stroke: #000000; stroke-linejoin: miter"/>
   </g>
   <g id="patch_108">
    <path d="M 173.936842 522.812903 
L 173.936842 513.522581 
L 204.252632 513.522581 
L 204.252632 522.812903 
z
" clip-path="url(#p897823fc32)" style="fill: #ffffff; stroke: #000000; stroke-linejoin: miter"/>
   </g>
   <g id="patch_109">
    <path d="M 295.2 541.393548 
L 295.2 532.103226 
L 325.515789 532.103226 
L 325.515789 541.393548 
z
" clip-path="url(#p897823fc32)" style="fill: #f7f700; stroke: #000000; stroke-linejoin: miter"/>
   </g>
   <g id="patch_110">
    <path d="M 446.778947 578.554839 
L 446.778947 569.264516 
L 477.094737 569.264516 
L 477.094737 578.554839 
z
" clip-path="url(#p897823fc32)" style="fill: #ffffff; stroke: #000000; stroke-linejoin: miter"/>
   </g>
   <g id="PathCollection_1">
    <defs>
     <path id="C0_0_e0bc5f3378" d="M 0 3.674235 
C 0.974418 3.674235 1.909058 3.287094 2.598076 2.598076 
C 3.287094 1.909058 3.674235 0.974418 3.674235 -0 
C 3.674235 -0.974418 3.287094 -1.909058 2.598076 -2.598076 
C 1.909058 -3.287094 0.974418 -3.674235 0 -3.674235 
C -0.974418 -3.674235 -1.909058 -3.287094 -2.598076 -2.598076 
C -3.287094 -1.909058 -3.674235 -0.974418 -3.674235 0 
C -3.674235 0.974418 -3.287094 1.909058 -2.598076 2.598076 
C -1.909058 3.287094 -0.974418 3.674235 0 3.674235 
z
"/>
    </defs>
    <g clip-path="url(#p897823fc32)">
     <use xlink:href="#C0_0_e0bc5f3378" x="370.989474" y="239.458065" style="fill: #e8a5a5; stroke: #e8a5a5"/>
    </g>
    <g clip-path="url(#p897823fc32)">
     <use xlink:href="#C0_0_e0bc5f3378" x="128.463158" y="499.587097" style="fill: #d8f8d8; stroke: #d8f8d8"/>
    </g>
    <g clip-path="url(#p897823fc32)">
     <use xlink:href="#C0_0_e0bc5f3378" x="310.357895" y="332.36129" style="fill: #d8f8d8; stroke: #d8f8d8"/>
    </g>
    <g clip-path="url(#p897823fc32)">
     <use xlink:href="#C0_0_e0bc5f3378" x="128.463158" y="443.845161" style="fill: #d8f8d8; stroke: #d8f8d8"/>
    </g>
    <g clip-path="url(#p897823fc32)">
     <use xlink:href="#C0_0_e0bc5f3378" x="310.357895" y="369.522581" style="fill: #e8a5a5; stroke: #e8a5a5"/>
    </g>
    <g clip-path="url(#p897823fc32)">
     <use xlink:href="#C0_0_e0bc5f3378" x="128.463158" y="109.393548" style="fill: #d8f8d8; stroke: #d8f8d8"/>
    </g>
    <g clip-path="url(#p897823fc32)">
     <use xlink:href="#C0_0_e0bc5f3378" x="492.252632" y="72.232258" style="fill: #d8f8d8; stroke: #d8f8d8"/>
    </g>
    <g clip-path="url(#p897823fc32)">
     <use xlink:href="#C0_0_e0bc5f3378" x="310.357895" y="313.780645" style="fill: #d8f8d8; stroke: #d8f8d8"/>
    </g>
    <g clip-path="url(#p897823fc32)">
     <use xlink:href="#C0_0_e0bc5f3378" x="492.252632" y="406.683871" style="fill: #e8a5a5; stroke: #e8a5a5"/>
    </g>
    <g clip-path="url(#p897823fc32)">
     <use xlink:href="#C0_0_e0bc5f3378" x="249.726316" y="127.974194" style="fill: #d8f8d8; stroke: #d8f8d8"/>
    </g>
    <g clip-path="url(#p897823fc32)">
     <use xlink:href="#C0_0_e0bc5f3378" x="401.305263" y="555.329032" style="fill: #d8f8d8; stroke: #d8f8d8"/>
    </g>
    <g clip-path="url(#p897823fc32)">
     <use xlink:href="#C0_0_e0bc5f3378" x="249.726316" y="220.877419" style="fill: #e8a5a5; stroke: #e8a5a5"/>
    </g>
    <g clip-path="url(#p897823fc32)">
     <use xlink:href="#C0_0_e0bc5f3378" x="370.989474" y="53.651613" style="fill: #d8f8d8; stroke: #d8f8d8"/>
    </g>
    <g clip-path="url(#p897823fc32)">
     <use xlink:href="#C0_0_e0bc5f3378" x="128.463158" y="295.2" style="fill: #d8f8d8; stroke: #d8f8d8"/>
    </g>
   </g>
   <g id="text_1">
    <!-- bit -->
    <g transform="translate(132.252632 15.959728) scale(0.1 -0.1)">
     <defs>
      <path id="DejaVuSans-62" d="M 3116 1747 
Q 3116 2381 2855 2742 
Q 2594 3103 2138 3103 
Q 1681 3103 1420 2742 
Q 1159 2381 1159 1747 
Q 1159 1113 1420 752 
Q 1681 391 2138 391 
Q 2594 391 2855 752 
Q 3116 1113 3116 1747 
z
M 1159 2969 
Q 1341 3281 1617 3432 
Q 1894 3584 2278 3584 
Q 2916 3584 3314 3078 
Q 3713 2572 3713 1747 
Q 3713 922 3314 415 
Q 2916 -91 2278 -91 
Q 1894 -91 1617 61 
Q 1341 213 1159 525 
L 1159 0 
L 581 0 
L 581 4863 
L 1159 4863 
L 1159 2969 
z
" transform="scale(0.015625)"/>
      <path id="DejaVuSans-69" d="M 603 3500 
L 1178 3500 
L 1178 0 
L 603 0 
L 603 3500 
z
M 603 4863 
L 1178 4863 
L 1178 4134 
L 603 4134 
L 603 4863 
z
" transform="scale(0.015625)"/>
      <path id="DejaVuSans-74" d="M 1172 4494 
L 1172 3500 
L 2356 3500 
L 2356 3053 
L 1172 3053 
L 1172 1153 
Q 1172 725 1289 603 
Q 1406 481 1766 481 
L 2356 481 
L 2356 0 
L 1766 0 
Q 1100 0 847 248 
Q 594 497 594 1153 
L 594 3053 
L 172 3053 
L 172 3500 
L 594 3500 
L 594 4494 
L 1172 4494 
z
" transform="scale(0.015625)"/>
     </defs>
     <use xlink:href="#DejaVuSans-62"/>
     <use xlink:href="#DejaVuSans-69" transform="translate(63.476562 0)"/>
     <use xlink:href="#DejaVuSans-74" transform="translate(91.259766 0)"/>
    </g>
   </g>
   <g id="text_2">
    <!-- bit -->
    <g transform="translate(253.515789 15.959728) scale(0.1 -0.1)">
     <use xlink:href="#DejaVuSans-62"/>
     <use xlink:href="#DejaVuSans-69" transform="translate(63.476562 0)"/>
     <use xlink:href="#DejaVuSans-74" transform="translate(91.259766 0)"/>
    </g>
   </g>
   <g id="text_3">
    <!-- bit -->
    <g transform="translate(344.463158 67.056502) scale(0.1 -0.1)">
     <use xlink:href="#DejaVuSans-62"/>
     <use xlink:href="#DejaVuSans-69" transform="translate(63.476562 0)"/>
     <use xlink:href="#DejaVuSans-74" transform="translate(91.259766 0)"/>
    </g>
   </g>
   <g id="text_4">
    <!-- bit -->
    <g transform="translate(405.094737 67.056502) scale(0.1 -0.1)">
     <use xlink:href="#DejaVuSans-62"/>
     <use xlink:href="#DejaVuSans-69" transform="translate(63.476562 0)"/>
     <use xlink:href="#DejaVuSans-74" transform="translate(91.259766 0)"/>
    </g>
   </g>
   <g id="text_5">
    <!-- bit -->
    <g transform="translate(465.726316 85.637147) scale(0.1 -0.1)">
     <use xlink:href="#DejaVuSans-62"/>
     <use xlink:href="#DejaVuSans-69" transform="translate(63.476562 0)"/>
     <use xlink:href="#DejaVuSans-74" transform="translate(91.259766 0)"/>
    </g>
   </g>
   <g id="text_6">
    <!-- bit -->
    <g transform="translate(526.357895 85.637147) scale(0.1 -0.1)">
     <use xlink:href="#DejaVuSans-62"/>
     <use xlink:href="#DejaVuSans-69" transform="translate(63.476562 0)"/>
     <use xlink:href="#DejaVuSans-74" transform="translate(91.259766 0)"/>
    </g>
   </g>
   <g id="text_7">
    <!-- bit -->
    <g transform="translate(405.094737 104.217792) scale(0.1 -0.1)">
     <use xlink:href="#DejaVuSans-62"/>
     <use xlink:href="#DejaVuSans-69" transform="translate(63.476562 0)"/>
     <use xlink:href="#DejaVuSans-74" transform="translate(91.259766 0)"/>
    </g>
   </g>
   <g id="text_8">
    <!-- bit -->
    <g transform="translate(465.726316 104.217792) scale(0.1 -0.1)">
     <use xlink:href="#DejaVuSans-62"/>
     <use xlink:href="#DejaVuSans-69" transform="translate(63.476562 0)"/>
     <use xlink:href="#DejaVuSans-74" transform="translate(91.259766 0)"/>
    </g>
   </g>
   <g id="text_9">
    <!-- bit -->
    <g transform="translate(101.936842 122.798438) scale(0.1 -0.1)">
     <use xlink:href="#DejaVuSans-62"/>
     <use xlink:href="#DejaVuSans-69" transform="translate(63.476562 0)"/>
     <use xlink:href="#DejaVuSans-74" transform="translate(91.259766 0)"/>
    </g>
   </g>
   <g id="text_10">
    <!-- bit -->
    <g transform="translate(162.568421 122.798438) scale(0.1 -0.1)">
     <use xlink:href="#DejaVuSans-62"/>
     <use xlink:href="#DejaVuSans-69" transform="translate(63.476562 0)"/>
     <use xlink:href="#DejaVuSans-74" transform="translate(91.259766 0)"/>
    </g>
   </g>
   <g id="text_11">
    <!-- bit -->
    <g transform="translate(223.2 141.379083) scale(0.1 -0.1)">
     <use xlink:href="#DejaVuSans-62"/>
     <use xlink:href="#DejaVuSans-69" transform="translate(63.476562 0)"/>
     <use xlink:href="#DejaVuSans-74" transform="translate(91.259766 0)"/>
    </g>
   </g>
   <g id="text_12">
    <!-- bit -->
    <g transform="translate(283.831579 141.379083) scale(0.1 -0.1)">
     <use xlink:href="#DejaVuSans-62"/>
     <use xlink:href="#DejaVuSans-69" transform="translate(63.476562 0)"/>
     <use xlink:href="#DejaVuSans-74" transform="translate(91.259766 0)"/>
    </g>
   </g>
   <g id="text_13">
    <!-- bit -->
    <g transform="translate(162.568421 159.959728) scale(0.1 -0.1)">
     <use xlink:href="#DejaVuSans-62"/>
     <use xlink:href="#DejaVuSans-69" transform="translate(63.476562 0)"/>
     <use xlink:href="#DejaVuSans-74" transform="translate(91.259766 0)"/>
    </g>
   </g>
   <g id="text_14">
    <!-- bit -->
    <g transform="translate(223.2 159.959728) scale(0.1 -0.1)">
     <use xlink:href="#DejaVuSans-62"/>
     <use xlink:href="#DejaVuSans-69" transform="translate(63.476562 0)"/>
     <use xlink:href="#DejaVuSans-74" transform="translate(91.259766 0)"/>
    </g>
   </g>
   <g id="text_15">
    <!-- bit -->
    <g transform="translate(283.831579 215.701663) scale(0.1 -0.1)">
     <use xlink:href="#DejaVuSans-62"/>
     <use xlink:href="#DejaVuSans-69" transform="translate(63.476562 0)"/>
     <use xlink:href="#DejaVuSans-74" transform="translate(91.259766 0)"/>
    </g>
   </g>
   <g id="text_16">
    <!-- bit -->
    <g transform="translate(344.463158 215.701663) scale(0.1 -0.1)">
     <use xlink:href="#DejaVuSans-62"/>
     <use xlink:href="#DejaVuSans-69" transform="translate(63.476562 0)"/>
     <use xlink:href="#DejaVuSans-74" transform="translate(91.259766 0)"/>
    </g>
   </g>
   <g id="text_17">
    <!-- bit -->
    <g transform="translate(253.515789 234.282308) scale(0.1 -0.1)">
     <use xlink:href="#DejaVuSans-62"/>
     <use xlink:href="#DejaVuSans-69" transform="translate(63.476562 0)"/>
     <use xlink:href="#DejaVuSans-74" transform="translate(91.259766 0)"/>
    </g>
   </g>
   <g id="text_18">
    <!-- bit -->
    <g transform="translate(374.778947 252.862954) scale(0.1 -0.1)">
     <use xlink:href="#DejaVuSans-62"/>
     <use xlink:href="#DejaVuSans-69" transform="translate(63.476562 0)"/>
     <use xlink:href="#DejaVuSans-74" transform="translate(91.259766 0)"/>
    </g>
   </g>
   <g id="text_19">
    <!-- bit -->
    <g transform="translate(101.936842 271.443599) scale(0.1 -0.1)">
     <use xlink:href="#DejaVuSans-62"/>
     <use xlink:href="#DejaVuSans-69" transform="translate(63.476562 0)"/>
     <use xlink:href="#DejaVuSans-74" transform="translate(91.259766 0)"/>
    </g>
   </g>
   <g id="text_20">
    <!-- bit -->
    <g transform="translate(162.568421 290.024244) scale(0.1 -0.1)">
     <use xlink:href="#DejaVuSans-62"/>
     <use xlink:href="#DejaVuSans-69" transform="translate(63.476562 0)"/>
     <use xlink:href="#DejaVuSans-74" transform="translate(91.259766 0)"/>
    </g>
   </g>
   <g id="text_21">
    <!-- bit -->
    <g transform="translate(132.252632 308.604889) scale(0.1 -0.1)">
     <use xlink:href="#DejaVuSans-62"/>
     <use xlink:href="#DejaVuSans-69" transform="translate(63.476562 0)"/>
     <use xlink:href="#DejaVuSans-74" transform="translate(91.259766 0)"/>
    </g>
   </g>
   <g id="text_22">
    <!-- bit -->
    <g transform="translate(314.147368 327.185534) scale(0.1 -0.1)">
     <use xlink:href="#DejaVuSans-62"/>
     <use xlink:href="#DejaVuSans-69" transform="translate(63.476562 0)"/>
     <use xlink:href="#DejaVuSans-74" transform="translate(91.259766 0)"/>
    </g>
   </g>
   <g id="text_23">
    <!-- bit -->
    <g transform="translate(283.831579 345.766179) scale(0.1 -0.1)">
     <use xlink:href="#DejaVuSans-62"/>
     <use xlink:href="#DejaVuSans-69" transform="translate(63.476562 0)"/>
     <use xlink:href="#DejaVuSans-74" transform="translate(91.259766 0)"/>
    </g>
   </g>
   <g id="text_24">
    <!-- bit -->
    <g transform="translate(344.463158 345.766179) scale(0.1 -0.1)">
     <use xlink:href="#DejaVuSans-62"/>
     <use xlink:href="#DejaVuSans-69" transform="translate(63.476562 0)"/>
     <use xlink:href="#DejaVuSans-74" transform="translate(91.259766 0)"/>
    </g>
   </g>
   <g id="text_25">
    <!-- bit -->
    <g transform="translate(344.463158 364.346825) scale(0.1 -0.1)">
     <use xlink:href="#DejaVuSans-62"/>
     <use xlink:href="#DejaVuSans-69" transform="translate(63.476562 0)"/>
     <use xlink:href="#DejaVuSans-74" transform="translate(91.259766 0)"/>
    </g>
   </g>
   <g id="text_26">
    <!-- bit -->
    <g transform="translate(465.726316 364.346825) scale(0.1 -0.1)">
     <use xlink:href="#DejaVuSans-62"/>
     <use xlink:href="#DejaVuSans-69" transform="translate(63.476562 0)"/>
     <use xlink:href="#DejaVuSans-74" transform="translate(91.259766 0)"/>
    </g>
   </g>
   <g id="text_27">
    <!-- bit -->
    <g transform="translate(314.147368 382.92747) scale(0.1 -0.1)">
     <use xlink:href="#DejaVuSans-62"/>
     <use xlink:href="#DejaVuSans-69" transform="translate(63.476562 0)"/>
     <use xlink:href="#DejaVuSans-74" transform="translate(91.259766 0)"/>
    </g>
   </g>
   <g id="text_28">
    <!-- bit -->
    <g transform="translate(496.042105 420.08876) scale(0.1 -0.1)">
     <use xlink:href="#DejaVuSans-62"/>
     <use xlink:href="#DejaVuSans-69" transform="translate(63.476562 0)"/>
     <use xlink:href="#DejaVuSans-74" transform="translate(91.259766 0)"/>
    </g>
   </g>
   <g id="text_29">
    <!-- bit -->
    <g transform="translate(101.936842 457.25005) scale(0.1 -0.1)">
     <use xlink:href="#DejaVuSans-62"/>
     <use xlink:href="#DejaVuSans-69" transform="translate(63.476562 0)"/>
     <use xlink:href="#DejaVuSans-74" transform="translate(91.259766 0)"/>
    </g>
   </g>
   <g id="text_30">
    <!-- bit -->
    <g transform="translate(162.568421 457.25005) scale(0.1 -0.1)">
     <use xlink:href="#DejaVuSans-62"/>
     <use xlink:href="#DejaVuSans-69" transform="translate(63.476562 0)"/>
     <use xlink:href="#DejaVuSans-74" transform="translate(91.259766 0)"/>
    </g>
   </g>
   <g id="text_31">
    <!-- bit -->
    <g transform="translate(162.568421 475.830696) scale(0.1 -0.1)">
     <use xlink:href="#DejaVuSans-62"/>
     <use xlink:href="#DejaVuSans-69" transform="translate(63.476562 0)"/>
     <use xlink:href="#DejaVuSans-74" transform="translate(91.259766 0)"/>
    </g>
   </g>
   <g id="text_32">
    <!-- bit -->
    <g transform="translate(314.147368 475.830696) scale(0.1 -0.1)">
     <use xlink:href="#DejaVuSans-62"/>
     <use xlink:href="#DejaVuSans-69" transform="translate(63.476562 0)"/>
     <use xlink:href="#DejaVuSans-74" transform="translate(91.259766 0)"/>
    </g>
   </g>
   <g id="text_33">
    <!-- bit -->
    <g transform="translate(101.936842 494.411341) scale(0.1 -0.1)">
     <use xlink:href="#DejaVuSans-62"/>
     <use xlink:href="#DejaVuSans-69" transform="translate(63.476562 0)"/>
     <use xlink:href="#DejaVuSans-74" transform="translate(91.259766 0)"/>
    </g>
   </g>
   <g id="text_34">
    <!-- bit -->
    <g transform="translate(132.252632 512.991986) scale(0.1 -0.1)">
     <use xlink:href="#DejaVuSans-62"/>
     <use xlink:href="#DejaVuSans-69" transform="translate(63.476562 0)"/>
     <use xlink:href="#DejaVuSans-74" transform="translate(91.259766 0)"/>
    </g>
   </g>
   <g id="text_35">
    <!-- bit -->
    <g transform="translate(314.147368 550.153276) scale(0.1 -0.1)">
     <use xlink:href="#DejaVuSans-62"/>
     <use xlink:href="#DejaVuSans-69" transform="translate(63.476562 0)"/>
     <use xlink:href="#DejaVuSans-74" transform="translate(91.259766 0)"/>
    </g>
   </g>
   <g id="text_36">
    <!-- bit -->
    <g transform="translate(405.094737 568.733921) scale(0.1 -0.1)">
     <use xlink:href="#DejaVuSans-62"/>
     <use xlink:href="#DejaVuSans-69" transform="translate(63.476562 0)"/>
     <use xlink:href="#DejaVuSans-74" transform="translate(91.259766 0)"/>
    </g>
   </g>
   <g id="text_37">
    <!-- scalar -->
    <g transform="translate(325.747122 19.249698) scale(0.1 -0.1)">
     <defs>
      <path id="DejaVuSans-73" d="M 2834 3397 
L 2834 2853 
Q 2591 2978 2328 3040 
Q 2066 3103 1784 3103 
Q 1356 3103 1142 2972 
Q 928 2841 928 2578 
Q 928 2378 1081 2264 
Q 1234 2150 1697 2047 
L 1894 2003 
Q 2506 1872 2764 1633 
Q 3022 1394 3022 966 
Q 3022 478 2636 193 
Q 2250 -91 1575 -91 
Q 1294 -91 989 -36 
Q 684 19 347 128 
L 347 722 
Q 666 556 975 473 
Q 1284 391 1588 391 
Q 1994 391 2212 530 
Q 2431 669 2431 922 
Q 2431 1156 2273 1281 
Q 2116 1406 1581 1522 
L 1381 1569 
Q 847 1681 609 1914 
Q 372 2147 372 2553 
Q 372 3047 722 3315 
Q 1072 3584 1716 3584 
Q 2034 3584 2315 3537 
Q 2597 3491 2834 3397 
z
" transform="scale(0.015625)"/>
      <path id="DejaVuSans-63" d="M 3122 3366 
L 3122 2828 
Q 2878 2963 2633 3030 
Q 2388 3097 2138 3097 
Q 1578 3097 1268 2742 
Q 959 2388 959 1747 
Q 959 1106 1268 751 
Q 1578 397 2138 397 
Q 2388 397 2633 464 
Q 2878 531 3122 666 
L 3122 134 
Q 2881 22 2623 -34 
Q 2366 -91 2075 -91 
Q 1284 -91 818 406 
Q 353 903 353 1747 
Q 353 2603 823 3093 
Q 1294 3584 2113 3584 
Q 2378 3584 2631 3529 
Q 2884 3475 3122 3366 
z
" transform="scale(0.015625)"/>
      <path id="DejaVuSans-61" d="M 2194 1759 
Q 1497 1759 1228 1600 
Q 959 1441 959 1056 
Q 959 750 1161 570 
Q 1363 391 1709 391 
Q 2188 391 2477 730 
Q 2766 1069 2766 1631 
L 2766 1759 
L 2194 1759 
z
M 3341 1997 
L 3341 0 
L 2766 0 
L 2766 531 
Q 2569 213 2275 61 
Q 1981 -91 1556 -91 
Q 1019 -91 701 211 
Q 384 513 384 1019 
Q 384 1609 779 1909 
Q 1175 2209 1959 2209 
L 2766 2209 
L 2766 2266 
Q 2766 2663 2505 2880 
Q 2244 3097 1772 3097 
Q 1472 3097 1187 3025 
Q 903 2953 641 2809 
L 641 3341 
Q 956 3463 1253 3523 
Q 1550 3584 1831 3584 
Q 2591 3584 2966 3190 
Q 3341 2797 3341 1997 
z
" transform="scale(0.015625)"/>
      <path id="DejaVuSans-6c" d="M 603 4863 
L 1178 4863 
L 1178 0 
L 603 0 
L 603 4863 
z
" transform="scale(0.015625)"/>
      <path id="DejaVuSans-72" d="M 2631 2963 
Q 2534 3019 2420 3045 
Q 2306 3072 2169 3072 
Q 1681 3072 1420 2755 
Q 1159 2438 1159 1844 
L 1159 0 
L 581 0 
L 581 3500 
L 1159 3500 
L 1159 2956 
Q 1341 3275 1631 3429 
Q 1922 3584 2338 3584 
Q 2397 3584 2469 3576 
Q 2541 3569 2628 3553 
L 2631 2963 
z
" transform="scale(0.015625)"/>
     </defs>
     <use xlink:href="#DejaVuSans-73"/>
     <use xlink:href="#DejaVuSans-63" transform="translate(52.099609 0)"/>
     <use xlink:href="#DejaVuSans-61" transform="translate(107.080078 0)"/>
     <use xlink:href="#DejaVuSans-6c" transform="translate(168.359375 0)"/>
     <use xlink:href="#DejaVuSans-61" transform="translate(196.142578 0)"/>
     <use xlink:href="#DejaVuSans-72" transform="translate(257.421875 0)"/>
    </g>
   </g>
   <g id="text_38">
    <!-- scalar -->
    <g transform="translate(325.747122 37.830343) scale(0.1 -0.1)">
     <use xlink:href="#DejaVuSans-73"/>
     <use xlink:href="#DejaVuSans-63" transform="translate(52.099609 0)"/>
     <use xlink:href="#DejaVuSans-61" transform="translate(107.080078 0)"/>
     <use xlink:href="#DejaVuSans-6c" transform="translate(168.359375 0)"/>
     <use xlink:href="#DejaVuSans-61" transform="translate(196.142578 0)"/>
     <use xlink:href="#DejaVuSans-72" transform="translate(257.421875 0)"/>
    </g>
   </g>
   <g id="text_39">
    <!-- scalar -->
    <g transform="translate(22.589227 167.894859) scale(0.1 -0.1)">
     <use xlink:href="#DejaVuSans-73"/>
     <use xlink:href="#DejaVuSans-63" transform="translate(52.099609 0)"/>
     <use xlink:href="#DejaVuSans-61" transform="translate(107.080078 0)"/>
     <use xlink:href="#DejaVuSans-6c" transform="translate(168.359375 0)"/>
     <use xlink:href="#DejaVuSans-61" transform="translate(196.142578 0)"/>
     <use xlink:href="#DejaVuSans-72" transform="translate(257.421875 0)"/>
    </g>
   </g>
   <g id="text_40">
    <!-- scalar -->
    <g transform="translate(22.589227 186.475504) scale(0.1 -0.1)">
     <use xlink:href="#DejaVuSans-73"/>
     <use xlink:href="#DejaVuSans-63" transform="translate(52.099609 0)"/>
     <use xlink:href="#DejaVuSans-61" transform="translate(107.080078 0)"/>
     <use xlink:href="#DejaVuSans-6c" transform="translate(168.359375 0)"/>
     <use xlink:href="#DejaVuSans-61" transform="translate(196.142578 0)"/>
     <use xlink:href="#DejaVuSans-72" transform="translate(257.421875 0)"/>
    </g>
   </g>
   <g id="text_41">
    <!-- scalar -->
    <g transform="translate(356.062911 390.862601) scale(0.1 -0.1)">
     <use xlink:href="#DejaVuSans-73"/>
     <use xlink:href="#DejaVuSans-63" transform="translate(52.099609 0)"/>
     <use xlink:href="#DejaVuSans-61" transform="translate(107.080078 0)"/>
     <use xlink:href="#DejaVuSans-6c" transform="translate(168.359375 0)"/>
     <use xlink:href="#DejaVuSans-61" transform="translate(196.142578 0)"/>
     <use xlink:href="#DejaVuSans-72" transform="translate(257.421875 0)"/>
    </g>
   </g>
   <g id="text_42">
    <!-- scalar -->
    <g transform="translate(537.957648 428.023891) scale(0.1 -0.1)">
     <use xlink:href="#DejaVuSans-73"/>
     <use xlink:href="#DejaVuSans-63" transform="translate(52.099609 0)"/>
     <use xlink:href="#DejaVuSans-61" transform="translate(107.080078 0)"/>
     <use xlink:href="#DejaVuSans-6c" transform="translate(168.359375 0)"/>
     <use xlink:href="#DejaVuSans-61" transform="translate(196.142578 0)"/>
     <use xlink:href="#DejaVuSans-72" transform="translate(257.421875 0)"/>
    </g>
   </g>
   <g id="text_43">
    <!-- scalar -->
    <g transform="translate(174.168174 520.927117) scale(0.1 -0.1)">
     <use xlink:href="#DejaVuSans-73"/>
     <use xlink:href="#DejaVuSans-63" transform="translate(52.099609 0)"/>
     <use xlink:href="#DejaVuSans-61" transform="translate(107.080078 0)"/>
     <use xlink:href="#DejaVuSans-6c" transform="translate(168.359375 0)"/>
     <use xlink:href="#DejaVuSans-61" transform="translate(196.142578 0)"/>
     <use xlink:href="#DejaVuSans-72" transform="translate(257.421875 0)"/>
    </g>
   </g>
   <g id="text_44">
    <!-- scalar -->
    <g transform="translate(447.01028 576.669052) scale(0.1 -0.1)">
     <use xlink:href="#DejaVuSans-73"/>
     <use xlink:href="#DejaVuSans-63" transform="translate(52.099609 0)"/>
     <use xlink:href="#DejaVuSans-61" transform="translate(107.080078 0)"/>
     <use xlink:href="#DejaVuSans-6c" transform="translate(168.359375 0)"/>
     <use xlink:href="#DejaVuSans-61" transform="translate(196.142578 0)"/>
     <use xlink:href="#DejaVuSans-72" transform="translate(257.421875 0)"/>
    </g>
   </g>
  </g>
 </g>
 <defs>
  <clipPath id="p897823fc32">
   <rect x="7.2" y="7.2" width="576" height="576"/>
  </clipPath>
 </defs>
</svg>
