<?xml version="1.0" encoding="utf-8" standalone="no"?>
<!DOCTYPE svg PUBLIC "-//W3C//DTD SVG 1.1//EN"
  "http://www.w3.org/Graphics/SVG/1.1/DTD/svg11.dtd">
<svg xmlns:xlink="http://www.w3.org/1999/xlink" width="360.36pt" height="125.28pt" viewBox="0 0 360.36 125.28" xmlns="http://www.w3.org/2000/svg" version="1.1">
 <metadata>
  <rdf:RDF xmlns:dc="http://purl.org/dc/elements/1.1/" xmlns:cc="http://creativecommons.org/ns#" xmlns:rdf="http://www.w3.org/1999/02/22-rdf-syntax-ns#">
   <cc:Work>
    <dc:type rdf:resource="http://purl.org/dc/dcmitype/StillImage"/>
    <dc:date>2025-10-06T13:34:45.798186</dc:date>
    <dc:format>image/svg+xml</dc:format>
    <dc:creator>
     <cc:Agent>
      <dc:title>Matplotlib v3.10.5, https://matplotlib.org/</dc:title>
     </cc:Agent>
    </dc:creator>
   </cc:Work>
  </rdf:RDF>
 </metadata>
 <defs>
  <style type="text/css">*{stroke-linejoin: round; stroke-linecap: butt}</style>
 </defs>
 <g id="figure_1">
  <g id="patch_1">
   <path d="M 0 125.28 
L 360.36 125.28 
L 360.36 0 
L 0 0 
z
" style="fill: #ffffff"/>
  </g>
  <g id="axes_1">
   <g id="patch_2">
    <path d="M 7.2 118.08 
L 353.16 118.08 
L 353.16 7.2 
L 7.2 7.2 
z
" style="fill: #ffffff"/>
   </g>
   <g id="LineCollection_1">
    <path d="M 31.911429 34.92 
L 180.18 34.92 
" clip-path="url(#pb710741082)" style="fill: none; stroke-dasharray: 3.7,1.6; stroke-dashoffset: 0; stroke: #000000; stroke-opacity: 0.7"/>
   </g>
   <g id="LineCollection_2">
    <path d="M 180.18 90.36 
L 31.911429 34.92 
" clip-path="url(#pb710741082)" style="fill: none; stroke-dasharray: 3.7,1.6; stroke-dashoffset: 0; stroke: #000000; stroke-opacity: 0.7"/>
   </g>
   <g id="LineCollection_3">
    <path d="M 31.911429 90.36 
L 31.911429 34.92 
" clip-path="url(#pb710741082)" style="fill: none; stroke-dasharray: 3.7,1.6; stroke-dashoffset: 0; stroke: #000000; stroke-opacity: 0.7"/>
   </g>
   <g id="patch_3">
    <path d="M 40.567367 90.36 
Q 106.042743 90.36 170.400086 90.36 
" clip-path="url(#pb710741082)" style="fill: none; stroke: #2ca02c; stroke-linecap: round"/>
    <path d="M 166.400086 88.36 
L 170.400086 90.36 
L 166.400086 92.36 
" clip-path="url(#pb710741082)" style="fill: none; stroke: #2ca02c; stroke-linecap: round"/>
   </g>
   <g id="patch_4">
    <path d="M 40.024391 87.326433 
Q 106.045262 62.640169 171.018913 38.345478 
" clip-path="url(#pb710741082)" style="fill: none; stroke: #2ca02c; stroke-linecap: round"/>
    <path d="M 166.571796 37.873085 
L 171.018913 38.345478 
L 167.972729 41.619735 
" clip-path="url(#pb710741082)" style="fill: none; stroke: #2ca02c; stroke-linecap: round"/>
   </g>
   <g id="matplotlib.axis_1">
    <g id="xtick_1"/>
    <g id="xtick_2"/>
    <g id="xtick_3"/>
    <g id="xtick_4"/>
    <g id="xtick_5"/>
    <g id="xtick_6"/>
    <g id="xtick_7"/>
   </g>
   <g id="matplotlib.axis_2">
    <g id="ytick_1"/>
    <g id="ytick_2"/>
    <g id="ytick_3"/>
    <g id="ytick_4"/>
    <g id="ytick_5"/>
   </g>
   <g id="line2d_1">
    <path d="M 31.911429 34.92 
L 33.408091 34.698113 
L 34.902755 34.480452 
L 36.395418 34.267018 
L 37.886083 34.05781 
L 39.374748 33.852828 
L 40.861414 33.652072 
L 42.346081 33.455542 
L 43.828748 33.263239 
L 45.309416 33.075162 
L 46.788084 32.891311 
L 48.264753 32.711686 
L 49.739423 32.536288 
L 51.212093 32.365115 
L 52.682764 32.198169 
L 54.151436 32.035449 
L 55.618108 31.876956 
L 57.082781 31.722688 
L 58.545454 31.572647 
L 60.006129 31.426832 
L 61.464803 31.285243 
L 62.921479 31.147881 
L 64.376155 31.014744 
L 65.828832 30.885834 
L 67.279509 30.76115 
L 68.728187 30.640692 
L 70.174866 30.524461 
L 71.619545 30.412456 
L 73.062225 30.304676 
L 74.502906 30.201124 
L 75.941587 30.101797 
L 77.378269 30.006697 
L 78.812951 29.915822 
L 80.245634 29.829174 
L 81.676318 29.746753 
L 83.105002 29.668557 
L 84.531688 29.594588 
L 85.956373 29.524844 
L 87.37906 29.459328 
L 88.799747 29.398037 
L 90.218434 29.340972 
L 91.635122 29.288134 
L 93.049811 29.239522 
L 94.462501 29.195136 
L 95.873191 29.154977 
L 97.281882 29.119043 
L 98.688573 29.087336 
L 100.093265 29.059855 
L 101.495958 29.0366 
L 102.896652 29.017572 
L 104.295346 29.002769 
L 105.69204 28.992193 
L 107.086736 28.985843 
L 108.479432 28.98372 
L 109.870128 28.985822 
L 111.258825 28.992151 
L 112.645523 29.002706 
L 114.030222 29.017487 
L 115.412921 29.036494 
L 116.793621 29.059728 
L 118.172321 29.087188 
L 119.549022 29.118874 
L 120.923724 29.154786 
L 122.296426 29.194925 
L 123.667129 29.239289 
L 125.035833 29.28788 
L 126.402537 29.340697 
L 127.767242 29.397741 
L 129.129948 29.45901 
L 130.490654 29.524506 
L 131.849361 29.594228 
L 133.206068 29.668176 
L 134.560776 29.74635 
L 135.913485 29.828751 
L 137.264194 29.915378 
L 138.612904 30.006231 
L 139.959615 30.10131 
L 141.304326 30.200616 
L 142.647038 30.304147 
L 143.987751 30.411905 
L 145.326464 30.523889 
L 146.663178 30.6401 
L 147.997892 30.760536 
L 149.330608 30.885199 
L 150.661323 31.014088 
L 151.99004 31.147203 
L 153.316757 31.284545 
L 154.641475 31.426112 
L 155.964193 31.571906 
L 157.284912 31.721926 
L 158.603632 31.876172 
L 159.920352 32.034645 
L 161.235073 32.197344 
L 162.547794 32.364269 
L 163.858516 32.53542 
L 165.167239 32.710797 
L 166.473963 32.890401 
L 167.778687 33.07423 
L 169.081412 33.262286 
L 170.382137 33.454569 
" clip-path="url(#pb710741082)" style="fill: none; stroke: #d62728; stroke-linecap: square"/>
   </g>
   <g id="PathCollection_1">
    <defs>
     <path id="m44cf8bb05c" d="M 0 9.354143 
C 2.480748 9.354143 4.860225 8.368532 6.614378 6.614378 
C 8.368532 4.860225 9.354143 2.480748 9.354143 0 
C 9.354143 -2.480748 8.368532 -4.860225 6.614378 -6.614378 
C 4.860225 -8.368532 2.480748 -9.354143 0 -9.354143 
C -2.480748 -9.354143 -4.860225 -8.368532 -6.614378 -6.614378 
C -8.368532 -4.860225 -9.354143 -2.480748 -9.354143 0 
C -9.354143 2.480748 -8.368532 4.860225 -6.614378 6.614378 
C -4.860225 8.368532 -2.480748 9.354143 0 9.354143 
z
" style="stroke: #ff0000"/>
    </defs>
    <g clip-path="url(#pb710741082)">
     <use xlink:href="#m44cf8bb05c" x="180.18" y="90.36" style="fill: #d3d3d3; stroke: #ff0000"/>
    </g>
   </g>
   <g id="PathCollection_2">
    <defs>
     <path id="mc59e20d29c" d="M 0 9.354143 
C 2.480748 9.354143 4.860225 8.368532 6.614378 6.614378 
C 8.368532 4.860225 9.354143 2.480748 9.354143 0 
C 9.354143 -2.480748 8.368532 -4.860225 6.614378 -6.614378 
C 4.860225 -8.368532 2.480748 -9.354143 0 -9.354143 
C -2.480748 -9.354143 -4.860225 -8.368532 -6.614378 -6.614378 
C -8.368532 -4.860225 -9.354143 -2.480748 -9.354143 0 
C -9.354143 2.480748 -8.368532 4.860225 -6.614378 6.614378 
C -4.860225 8.368532 -2.480748 9.354143 0 9.354143 
z
" style="stroke: #ff0000"/>
    </defs>
    <g clip-path="url(#pb710741082)">
     <use xlink:href="#mc59e20d29c" x="31.911429" y="90.36" style="fill: #add8e6; stroke: #ff0000"/>
    </g>
   </g>
   <g id="PathCollection_3">
    <defs>
     <path id="m479ad0a591" d="M 0 9.354143 
C 2.480748 9.354143 4.860225 8.368532 6.614378 6.614378 
C 8.368532 4.860225 9.354143 2.480748 9.354143 0 
C 9.354143 -2.480748 8.368532 -4.860225 6.614378 -6.614378 
C 4.860225 -8.368532 2.480748 -9.354143 0 -9.354143 
C -2.480748 -9.354143 -4.860225 -8.368532 -6.614378 -6.614378 
C -8.368532 -4.860225 -9.354143 -2.480748 -9.354143 0 
C -9.354143 2.480748 -8.368532 4.860225 -6.614378 6.614378 
C -4.860225 8.368532 -2.480748 9.354143 0 9.354143 
z
" style="stroke: #000000"/>
    </defs>
    <g clip-path="url(#pb710741082)">
     <use xlink:href="#m479ad0a591" x="31.911429" y="34.92" style="fill: #add8e6; stroke: #000000"/>
    </g>
   </g>
   <g id="PathCollection_4">
    <defs>
     <path id="ma7aca6848d" d="M 0 9.354143 
C 2.480748 9.354143 4.860225 8.368532 6.614378 6.614378 
C 8.368532 4.860225 9.354143 2.480748 9.354143 0 
C 9.354143 -2.480748 8.368532 -4.860225 6.614378 -6.614378 
C 4.860225 -8.368532 2.480748 -9.354143 0 -9.354143 
C -2.480748 -9.354143 -4.860225 -8.368532 -6.614378 -6.614378 
C -8.368532 -4.860225 -9.354143 -2.480748 -9.354143 0 
C -9.354143 2.480748 -8.368532 4.860225 -6.614378 6.614378 
C -4.860225 8.368532 -2.480748 9.354143 0 9.354143 
z
" style="stroke: #000000"/>
    </defs>
    <g clip-path="url(#pb710741082)">
     <use xlink:href="#ma7aca6848d" x="180.18" y="34.92" style="fill: #d3d3d3; stroke: #000000"/>
    </g>
   </g>
   <g id="line2d_2"/>
   <g id="line2d_3"/>
   <g id="line2d_4"/>
   <g id="line2d_5"/>
   <g id="patch_5">
    <path d="M 7.2 118.08 
L 7.2 7.2 
" style="fill: none; stroke: #000000; stroke-width: 0.8; stroke-linejoin: miter; stroke-linecap: square"/>
   </g>
   <g id="patch_6">
    <path d="M 353.16 118.08 
L 353.16 7.2 
" style="fill: none; stroke: #000000; stroke-width: 0.8; stroke-linejoin: miter; stroke-linecap: square"/>
   </g>
   <g id="patch_7">
    <path d="M 7.2 118.08 
L 353.16 118.08 
" style="fill: none; stroke: #000000; stroke-width: 0.8; stroke-linejoin: miter; stroke-linecap: square"/>
   </g>
   <g id="patch_8">
    <path d="M 7.2 7.2 
L 353.16 7.2 
" style="fill: none; stroke: #000000; stroke-width: 0.8; stroke-linejoin: miter; stroke-linecap: square"/>
   </g>
   <g id="patch_9">
    <path d="M 169.081412 33.262286 
Q 169.731774 33.358428 169.276122 33.29107 
" style="fill: none; stroke: #d62728; stroke-linecap: round"/>
    <path d="M 165.6116 30.72762 
L 169.276122 33.29107 
L 165.026649 34.684618 
" style="fill: none; stroke: #d62728; stroke-linecap: round"/>
   </g>
   <g id="text_1">
    <g clip-path="url(#pb710741082)">
     <!-- 0 -->
     <g transform="translate(176.3625 93.67125) scale(0.12 -0.12)">
      <defs>
       <path id="DejaVuSans-30" d="M 2034 4250 
Q 1547 4250 1301 3770 
Q 1056 3291 1056 2328 
Q 1056 1369 1301 889 
Q 1547 409 2034 409 
Q 2525 409 2770 889 
Q 3016 1369 3016 2328 
Q 3016 3291 2770 3770 
Q 2525 4250 2034 4250 
z
M 2034 4750 
Q 2819 4750 3233 4129 
Q 3647 3509 3647 2328 
Q 3647 1150 3233 529 
Q 2819 -91 2034 -91 
Q 1250 -91 836 529 
Q 422 1150 422 2328 
Q 422 3509 836 4129 
Q 1250 4750 2034 4750 
z
" transform="scale(0.015625)"/>
      </defs>
      <use xlink:href="#DejaVuSans-30"/>
     </g>
    </g>
   </g>
   <g id="text_2">
    <g clip-path="url(#pb710741082)">
     <!-- 1 -->
     <g transform="translate(28.093929 93.67125) scale(0.12 -0.12)">
      <defs>
       <path id="DejaVuSans-31" d="M 794 531 
L 1825 531 
L 1825 4091 
L 703 3866 
L 703 4441 
L 1819 4666 
L 2450 4666 
L 2450 531 
L 3481 531 
L 3481 0 
L 794 0 
L 794 531 
z
" transform="scale(0.015625)"/>
      </defs>
      <use xlink:href="#DejaVuSans-31"/>
     </g>
    </g>
   </g>
   <g id="text_3">
    <g clip-path="url(#pb710741082)">
     <!-- 2 -->
     <g transform="translate(28.093929 38.23125) scale(0.12 -0.12)">
      <defs>
       <path id="DejaVuSans-32" d="M 1228 531 
L 3431 531 
L 3431 0 
L 469 0 
L 469 531 
Q 828 903 1448 1529 
Q 2069 2156 2228 2338 
Q 2531 2678 2651 2914 
Q 2772 3150 2772 3378 
Q 2772 3750 2511 3984 
Q 2250 4219 1831 4219 
Q 1534 4219 1204 4116 
Q 875 4013 500 3803 
L 500 4441 
Q 881 4594 1212 4672 
Q 1544 4750 1819 4750 
Q 2544 4750 2975 4387 
Q 3406 4025 3406 3419 
Q 3406 3131 3298 2873 
Q 3191 2616 2906 2266 
Q 2828 2175 2409 1742 
Q 1991 1309 1228 531 
z
" transform="scale(0.015625)"/>
      </defs>
      <use xlink:href="#DejaVuSans-32"/>
     </g>
    </g>
   </g>
   <g id="text_4">
    <g clip-path="url(#pb710741082)">
     <!-- 3 -->
     <g transform="translate(176.3625 38.23125) scale(0.12 -0.12)">
      <defs>
       <path id="DejaVuSans-33" d="M 2597 2516 
Q 3050 2419 3304 2112 
Q 3559 1806 3559 1356 
Q 3559 666 3084 287 
Q 2609 -91 1734 -91 
Q 1441 -91 1130 -33 
Q 819 25 488 141 
L 488 750 
Q 750 597 1062 519 
Q 1375 441 1716 441 
Q 2309 441 2620 675 
Q 2931 909 2931 1356 
Q 2931 1769 2642 2001 
Q 2353 2234 1838 2234 
L 1294 2234 
L 1294 2753 
L 1863 2753 
Q 2328 2753 2575 2939 
Q 2822 3125 2822 3475 
Q 2822 3834 2567 4026 
Q 2313 4219 1838 4219 
Q 1578 4219 1281 4162 
Q 984 4106 628 3988 
L 628 4550 
Q 988 4650 1302 4700 
Q 1616 4750 1894 4750 
Q 2613 4750 3031 4423 
Q 3450 4097 3450 3541 
Q 3450 3153 3228 2886 
Q 3006 2619 2597 2516 
z
" transform="scale(0.015625)"/>
      </defs>
      <use xlink:href="#DejaVuSans-33"/>
     </g>
    </g>
   </g>
   <g id="legend_1">
    <g id="patch_10">
     <path d="M 236.631875 73.9125 
L 346.16 73.9125 
Q 348.16 73.9125 348.16 71.9125 
L 348.16 14.2 
Q 348.16 12.2 346.16 12.2 
L 236.631875 12.2 
Q 234.631875 12.2 234.631875 14.2 
L 234.631875 71.9125 
Q 234.631875 73.9125 236.631875 73.9125 
z
" style="fill: #ffffff; opacity: 0.8; stroke: #cccccc; stroke-linejoin: miter"/>
    </g>
    <g id="line2d_6">
     <path d="M 238.631875 20.298438 
L 248.631875 20.298438 
L 258.631875 20.298438 
" style="fill: none; stroke-dasharray: 5.55,2.4; stroke-dashoffset: 0; stroke: #000000; stroke-opacity: 0.7; stroke-width: 1.5"/>
    </g>
    <g id="text_5">
     <!-- graph edge -->
     <g transform="translate(266.631875 23.798438) scale(0.1 -0.1)">
      <defs>
       <path id="DejaVuSans-67" d="M 2906 1791 
Q 2906 2416 2648 2759 
Q 2391 3103 1925 3103 
Q 1463 3103 1205 2759 
Q 947 2416 947 1791 
Q 947 1169 1205 825 
Q 1463 481 1925 481 
Q 2391 481 2648 825 
Q 2906 1169 2906 1791 
z
M 3481 434 
Q 3481 -459 3084 -895 
Q 2688 -1331 1869 -1331 
Q 1566 -1331 1297 -1286 
Q 1028 -1241 775 -1147 
L 775 -588 
Q 1028 -725 1275 -790 
Q 1522 -856 1778 -856 
Q 2344 -856 2625 -561 
Q 2906 -266 2906 331 
L 2906 616 
Q 2728 306 2450 153 
Q 2172 0 1784 0 
Q 1141 0 747 490 
Q 353 981 353 1791 
Q 353 2603 747 3093 
Q 1141 3584 1784 3584 
Q 2172 3584 2450 3431 
Q 2728 3278 2906 2969 
L 2906 3500 
L 3481 3500 
L 3481 434 
z
" transform="scale(0.015625)"/>
       <path id="DejaVuSans-72" d="M 2631 2963 
Q 2534 3019 2420 3045 
Q 2306 3072 2169 3072 
Q 1681 3072 1420 2755 
Q 1159 2438 1159 1844 
L 1159 0 
L 581 0 
L 581 3500 
L 1159 3500 
L 1159 2956 
Q 1341 3275 1631 3429 
Q 1922 3584 2338 3584 
Q 2397 3584 2469 3576 
Q 2541 3569 2628 3553 
L 2631 2963 
z
" transform="scale(0.015625)"/>
       <path id="DejaVuSans-61" d="M 2194 1759 
Q 1497 1759 1228 1600 
Q 959 1441 959 1056 
Q 959 750 1161 570 
Q 1363 391 1709 391 
Q 2188 391 2477 730 
Q 2766 1069 2766 1631 
L 2766 1759 
L 2194 1759 
z
M 3341 1997 
L 3341 0 
L 2766 0 
L 2766 531 
Q 2569 213 2275 61 
Q 1981 -91 1556 -91 
Q 1019 -91 701 211 
Q 384 513 384 1019 
Q 384 1609 779 1909 
Q 1175 2209 1959 2209 
L 2766 2209 
L 2766 2266 
Q 2766 2663 2505 2880 
Q 2244 3097 1772 3097 
Q 1472 3097 1187 3025 
Q 903 2953 641 2809 
L 641 3341 
Q 956 3463 1253 3523 
Q 1550 3584 1831 3584 
Q 2591 3584 2966 3190 
Q 3341 2797 3341 1997 
z
" transform="scale(0.015625)"/>
       <path id="DejaVuSans-70" d="M 1159 525 
L 1159 -1331 
L 581 -1331 
L 581 3500 
L 1159 3500 
L 1159 2969 
Q 1341 3281 1617 3432 
Q 1894 3584 2278 3584 
Q 2916 3584 3314 3078 
Q 3713 2572 3713 1747 
Q 3713 922 3314 415 
Q 2916 -91 2278 -91 
Q 1894 -91 1617 61 
Q 1341 213 1159 525 
z
M 3116 1747 
Q 3116 2381 2855 2742 
Q 2594 3103 2138 3103 
Q 1681 3103 1420 2742 
Q 1159 2381 1159 1747 
Q 1159 1113 1420 752 
Q 1681 391 2138 391 
Q 2594 391 2855 752 
Q 3116 1113 3116 1747 
z
" transform="scale(0.015625)"/>
       <path id="DejaVuSans-68" d="M 3513 2113 
L 3513 0 
L 2938 0 
L 2938 2094 
Q 2938 2591 2744 2837 
Q 2550 3084 2163 3084 
Q 1697 3084 1428 2787 
Q 1159 2491 1159 1978 
L 1159 0 
L 581 0 
L 581 4863 
L 1159 4863 
L 1159 2956 
Q 1366 3272 1645 3428 
Q 1925 3584 2291 3584 
Q 2894 3584 3203 3211 
Q 3513 2838 3513 2113 
z
" transform="scale(0.015625)"/>
       <path id="DejaVuSans-20" transform="scale(0.015625)"/>
       <path id="DejaVuSans-65" d="M 3597 1894 
L 3597 1613 
L 953 1613 
Q 991 1019 1311 708 
Q 1631 397 2203 397 
Q 2534 397 2845 478 
Q 3156 559 3463 722 
L 3463 178 
Q 3153 47 2828 -22 
Q 2503 -91 2169 -91 
Q 1331 -91 842 396 
Q 353 884 353 1716 
Q 353 2575 817 3079 
Q 1281 3584 2069 3584 
Q 2775 3584 3186 3129 
Q 3597 2675 3597 1894 
z
M 3022 2063 
Q 3016 2534 2758 2815 
Q 2500 3097 2075 3097 
Q 1594 3097 1305 2825 
Q 1016 2553 972 2059 
L 3022 2063 
z
" transform="scale(0.015625)"/>
       <path id="DejaVuSans-64" d="M 2906 2969 
L 2906 4863 
L 3481 4863 
L 3481 0 
L 2906 0 
L 2906 525 
Q 2725 213 2448 61 
Q 2172 -91 1784 -91 
Q 1150 -91 751 415 
Q 353 922 353 1747 
Q 353 2572 751 3078 
Q 1150 3584 1784 3584 
Q 2172 3584 2448 3432 
Q 2725 3281 2906 2969 
z
M 947 1747 
Q 947 1113 1208 752 
Q 1469 391 1925 391 
Q 2381 391 2643 752 
Q 2906 1113 2906 1747 
Q 2906 2381 2643 2742 
Q 2381 3103 1925 3103 
Q 1469 3103 1208 2742 
Q 947 2381 947 1747 
z
" transform="scale(0.015625)"/>
      </defs>
      <use xlink:href="#DejaVuSans-67"/>
      <use xlink:href="#DejaVuSans-72" transform="translate(63.476562 0)"/>
      <use xlink:href="#DejaVuSans-61" transform="translate(104.589844 0)"/>
      <use xlink:href="#DejaVuSans-70" transform="translate(165.869141 0)"/>
      <use xlink:href="#DejaVuSans-68" transform="translate(229.345703 0)"/>
      <use xlink:href="#DejaVuSans-20" transform="translate(292.724609 0)"/>
      <use xlink:href="#DejaVuSans-65" transform="translate(324.511719 0)"/>
      <use xlink:href="#DejaVuSans-64" transform="translate(386.035156 0)"/>
      <use xlink:href="#DejaVuSans-67" transform="translate(449.511719 0)"/>
      <use xlink:href="#DejaVuSans-65" transform="translate(512.988281 0)"/>
     </g>
    </g>
    <g id="line2d_7">
     <path d="M 238.631875 34.976562 
L 248.631875 34.976562 
L 258.631875 34.976562 
" style="fill: none; stroke: #d62728; stroke-width: 1.5; stroke-linecap: square"/>
    </g>
    <g id="text_6">
     <!-- xflow -->
     <g transform="translate(266.631875 38.476562) scale(0.1 -0.1)">
      <defs>
       <path id="DejaVuSans-78" d="M 3513 3500 
L 2247 1797 
L 3578 0 
L 2900 0 
L 1881 1375 
L 863 0 
L 184 0 
L 1544 1831 
L 300 3500 
L 978 3500 
L 1906 2253 
L 2834 3500 
L 3513 3500 
z
" transform="scale(0.015625)"/>
       <path id="DejaVuSans-66" d="M 2375 4863 
L 2375 4384 
L 1825 4384 
Q 1516 4384 1395 4259 
Q 1275 4134 1275 3809 
L 1275 3500 
L 2222 3500 
L 2222 3053 
L 1275 3053 
L 1275 0 
L 697 0 
L 697 3053 
L 147 3053 
L 147 3500 
L 697 3500 
L 697 3744 
Q 697 4328 969 4595 
Q 1241 4863 1831 4863 
L 2375 4863 
z
" transform="scale(0.015625)"/>
       <path id="DejaVuSans-6c" d="M 603 4863 
L 1178 4863 
L 1178 0 
L 603 0 
L 603 4863 
z
" transform="scale(0.015625)"/>
       <path id="DejaVuSans-6f" d="M 1959 3097 
Q 1497 3097 1228 2736 
Q 959 2375 959 1747 
Q 959 1119 1226 758 
Q 1494 397 1959 397 
Q 2419 397 2687 759 
Q 2956 1122 2956 1747 
Q 2956 2369 2687 2733 
Q 2419 3097 1959 3097 
z
M 1959 3584 
Q 2709 3584 3137 3096 
Q 3566 2609 3566 1747 
Q 3566 888 3137 398 
Q 2709 -91 1959 -91 
Q 1206 -91 779 398 
Q 353 888 353 1747 
Q 353 2609 779 3096 
Q 1206 3584 1959 3584 
z
" transform="scale(0.015625)"/>
       <path id="DejaVuSans-77" d="M 269 3500 
L 844 3500 
L 1563 769 
L 2278 3500 
L 2956 3500 
L 3675 769 
L 4391 3500 
L 4966 3500 
L 4050 0 
L 3372 0 
L 2619 2869 
L 1863 0 
L 1184 0 
L 269 3500 
z
" transform="scale(0.015625)"/>
      </defs>
      <use xlink:href="#DejaVuSans-78"/>
      <use xlink:href="#DejaVuSans-66" transform="translate(59.179688 0)"/>
      <use xlink:href="#DejaVuSans-6c" transform="translate(94.384766 0)"/>
      <use xlink:href="#DejaVuSans-6f" transform="translate(122.167969 0)"/>
      <use xlink:href="#DejaVuSans-77" transform="translate(183.349609 0)"/>
     </g>
    </g>
    <g id="line2d_8">
     <path d="M 238.631875 49.654688 
L 248.631875 49.654688 
L 258.631875 49.654688 
" style="fill: none; stroke: #2ca02c; stroke-width: 1.5; stroke-linecap: square"/>
    </g>
    <g id="text_7">
     <!-- zflow -->
     <g transform="translate(266.631875 53.154688) scale(0.1 -0.1)">
      <defs>
       <path id="DejaVuSans-7a" d="M 353 3500 
L 3084 3500 
L 3084 2975 
L 922 459 
L 3084 459 
L 3084 0 
L 275 0 
L 275 525 
L 2438 3041 
L 353 3041 
L 353 3500 
z
" transform="scale(0.015625)"/>
      </defs>
      <use xlink:href="#DejaVuSans-7a"/>
      <use xlink:href="#DejaVuSans-66" transform="translate(52.490234 0)"/>
      <use xlink:href="#DejaVuSans-6c" transform="translate(87.695312 0)"/>
      <use xlink:href="#DejaVuSans-6f" transform="translate(115.478516 0)"/>
      <use xlink:href="#DejaVuSans-77" transform="translate(176.660156 0)"/>
     </g>
    </g>
    <g id="line2d_9">
     <path d="M 238.631875 64.332813 
L 248.631875 64.332813 
L 258.631875 64.332813 
" style="fill: none; stroke: #8c564b; stroke-width: 1.5; stroke-linecap: square"/>
    </g>
    <g id="text_8">
     <!-- xflow and zflow -->
     <g transform="translate(266.631875 67.832813) scale(0.1 -0.1)">
      <defs>
       <path id="DejaVuSans-6e" d="M 3513 2113 
L 3513 0 
L 2938 0 
L 2938 2094 
Q 2938 2591 2744 2837 
Q 2550 3084 2163 3084 
Q 1697 3084 1428 2787 
Q 1159 2491 1159 1978 
L 1159 0 
L 581 0 
L 581 3500 
L 1159 3500 
L 1159 2956 
Q 1366 3272 1645 3428 
Q 1925 3584 2291 3584 
Q 2894 3584 3203 3211 
Q 3513 2838 3513 2113 
z
" transform="scale(0.015625)"/>
      </defs>
      <use xlink:href="#DejaVuSans-78"/>
      <use xlink:href="#DejaVuSans-66" transform="translate(59.179688 0)"/>
      <use xlink:href="#DejaVuSans-6c" transform="translate(94.384766 0)"/>
      <use xlink:href="#DejaVuSans-6f" transform="translate(122.167969 0)"/>
      <use xlink:href="#DejaVuSans-77" transform="translate(183.349609 0)"/>
      <use xlink:href="#DejaVuSans-20" transform="translate(265.136719 0)"/>
      <use xlink:href="#DejaVuSans-61" transform="translate(296.923828 0)"/>
      <use xlink:href="#DejaVuSans-6e" transform="translate(358.203125 0)"/>
      <use xlink:href="#DejaVuSans-64" transform="translate(421.582031 0)"/>
      <use xlink:href="#DejaVuSans-20" transform="translate(485.058594 0)"/>
      <use xlink:href="#DejaVuSans-7a" transform="translate(516.845703 0)"/>
      <use xlink:href="#DejaVuSans-66" transform="translate(569.335938 0)"/>
      <use xlink:href="#DejaVuSans-6c" transform="translate(604.541016 0)"/>
      <use xlink:href="#DejaVuSans-6f" transform="translate(632.324219 0)"/>
      <use xlink:href="#DejaVuSans-77" transform="translate(693.505859 0)"/>
     </g>
    </g>
   </g>
  </g>
 </g>
 <defs>
  <clipPath id="pb710741082">
   <rect x="7.2" y="7.2" width="345.96" height="110.88"/>
  </clipPath>
 </defs>
</svg>
