<?xml version="1.0" encoding="UTF-8"?>
<svg xmlns="http://www.w3.org/2000/svg" xmlns:xlink="http://www.w3.org/1999/xlink"
     width="1175.0" height="531.25" viewBox="-45.0 0 940.0 425.0">
<defs>
</defs>
<path d="M10,25.0 L25,25.0" stroke-width="3" stroke="darkred" stroke-linejoin="miter" fill="none" />
<path d="M10,75.0 L25,75.0" stroke-width="3" stroke="darkred" stroke-linejoin="miter" fill="none" />
<path d="M10,125.0 L25,125.0" stroke-width="3" stroke="darkred" stroke-linejoin="miter" fill="none" />
<path d="M10,175.0 L25,175.0" stroke-width="3" stroke="darkred" stroke-linejoin="miter" fill="none" />
<path d="M10,225.0 L25,225.0" stroke-width="3" stroke="darkred" stroke-linejoin="miter" fill="none" />
<path d="M10,275.0 L25,275.0" stroke-width="3" stroke="darkred" stroke-linejoin="miter" fill="none" />
<path d="M28,225 L72,325" stroke="white" stroke-width="6" fill="none" />
<path d="M25,225 L28,225 L72,325 L75,325" stroke="darkred" stroke-width="3" fill="none" />
<path d="M28,275 L72,375" stroke="white" stroke-width="6" fill="none" />
<path d="M25,275 L28,275 L72,375 L75,375" stroke="darkred" stroke-width="3" fill="none" />
<path d="M77,2 L473,2 L473,298 L77,298 Z" stroke="black" fill="lightblue" stroke-dasharray="1,2" stroke-linejoin="miter" />
<text x="79" y="305" font-size="8" text-anchor="start">POSTPROCESSED CNOT</text>
<path d="M25,125 L53,125 L72,144" stroke="darkred" stroke-width="3" fill="none" />
<path d="M78,144 L97,125 L125,125" stroke="darkred" stroke-width="3" fill="none" />
<path d="M25,175 L53,175 L72,156" stroke="darkred" stroke-width="3" fill="none" />
<path d="M78,156 L97,175 L125,175" stroke="darkred" stroke-width="3" fill="none" />
<path d="M50,143 L100,143 L100,157 L50,157 Z" stroke="black" fill="black" stroke-linejoin="miter" />
<text x="75" y="185" font-size="7" text-anchor="middle"></text>
<text x="75" y="126" font-size="7" text-anchor="middle"></text>
<path d="M50,143 L100,143 L100,147 L50,147 Z" stroke="black" fill="lightgray" stroke-linejoin="miter" />
<path d="M93,150 L103,150 L103,160 L93,160 Z" stroke="black" fill="aquamarine" stroke-linejoin="miter" />
<text x="98" y="157" font-size="6" text-anchor="middle">H</text>
<path d="M25,75.0 L125,75.0" stroke="darkred" stroke-width="3" fill="none" />
<path d="M128,75 L172,175" stroke="white" stroke-width="6" fill="none" />
<path d="M125,75 L128,75 L172,175 L175,175" stroke="darkred" stroke-width="3" fill="none" />
<path d="M128,125 L172,125" stroke="white" stroke-width="6" fill="none" />
<path d="M125,125 L128,125 L172,125 L175,125" stroke="darkred" stroke-width="3" fill="none" />
<path d="M128,175 L172,225" stroke="white" stroke-width="6" fill="none" />
<path d="M125,175 L128,175 L172,225 L175,225" stroke="darkred" stroke-width="3" fill="none" />
<path d="M25,25.0 L175,25.0" stroke="darkred" stroke-width="3" fill="none" />
<path d="M175,25 L203,25 L222,44" stroke="darkred" stroke-width="3" fill="none" />
<path d="M228,44 L247,25 L275,25" stroke="darkred" stroke-width="3" fill="none" />
<path d="M175,75 L203,75 L222,56" stroke="darkred" stroke-width="3" fill="none" />
<path d="M228,56 L247,75 L275,75" stroke="darkred" stroke-width="3" fill="none" />
<path d="M200,43 L250,43 L250,57 L200,57 Z" stroke="black" fill="black" stroke-linejoin="miter" />
<text x="225" y="80" font-size="7" text-anchor="middle"></text>
<text x="225" y="26" font-size="7" text-anchor="middle">Θ=1.910633</text>
<path d="M200,43 L250,43 L250,47 L200,47 Z" stroke="black" fill="lightgray" stroke-linejoin="miter" />
<path d="M243,50 L253,50 L253,60 L243,60 Z" stroke="black" fill="aquamarine" stroke-linejoin="miter" />
<text x="248" y="57" font-size="6" text-anchor="middle">H</text>
<path d="M175,125 L203,125 L222,144" stroke="darkred" stroke-width="3" fill="none" />
<path d="M228,144 L247,125 L275,125" stroke="darkred" stroke-width="3" fill="none" />
<path d="M175,175 L203,175 L222,156" stroke="darkred" stroke-width="3" fill="none" />
<path d="M228,156 L247,175 L275,175" stroke="darkred" stroke-width="3" fill="none" />
<path d="M200,143 L250,143 L250,157 L200,157 Z" stroke="black" fill="black" stroke-linejoin="miter" />
<text x="225" y="180" font-size="7" text-anchor="middle"></text>
<text x="225" y="126" font-size="7" text-anchor="middle">Θ=1.910633</text>
<path d="M200,143 L250,143 L250,147 L200,147 Z" stroke="black" fill="lightgray" stroke-linejoin="miter" />
<path d="M243,150 L253,150 L253,160 L243,160 Z" stroke="black" fill="aquamarine" stroke-linejoin="miter" />
<text x="248" y="157" font-size="6" text-anchor="middle">H</text>
<path d="M175,225 L203,225 L222,244" stroke="darkred" stroke-width="3" fill="none" />
<path d="M228,244 L247,225 L275,225" stroke="darkred" stroke-width="3" fill="none" />
<path d="M175,275 L203,275 L222,256" stroke="darkred" stroke-width="3" fill="none" />
<path d="M228,256 L247,275 L275,275" stroke="darkred" stroke-width="3" fill="none" />
<path d="M200,243 L250,243 L250,257 L200,257 Z" stroke="black" fill="black" stroke-linejoin="miter" />
<text x="225" y="280" font-size="7" text-anchor="middle"></text>
<text x="225" y="226" font-size="7" text-anchor="middle">Θ=1.910633</text>
<path d="M200,243 L250,243 L250,247 L200,247 Z" stroke="black" fill="lightgray" stroke-linejoin="miter" />
<path d="M243,250 L253,250 L253,260 L243,260 Z" stroke="black" fill="aquamarine" stroke-linejoin="miter" />
<text x="248" y="257" font-size="6" text-anchor="middle">H</text>
<path d="M278,125 L322,125" stroke="white" stroke-width="6" fill="none" />
<path d="M275,125 L278,125 L322,125 L325,125" stroke="darkred" stroke-width="3" fill="none" />
<path d="M278,175 L322,75" stroke="white" stroke-width="6" fill="none" />
<path d="M275,175 L278,175 L322,75 L325,75" stroke="darkred" stroke-width="3" fill="none" />
<path d="M278,225 L322,175" stroke="white" stroke-width="6" fill="none" />
<path d="M275,225 L278,225 L322,175 L325,175" stroke="darkred" stroke-width="3" fill="none" />
<path d="M325,125 L353,125 L372,144" stroke="darkred" stroke-width="3" fill="none" />
<path d="M378,144 L397,125 L425,125" stroke="darkred" stroke-width="3" fill="none" />
<path d="M325,175 L353,175 L372,156" stroke="darkred" stroke-width="3" fill="none" />
<path d="M378,156 L397,175 L425,175" stroke="darkred" stroke-width="3" fill="none" />
<path d="M350,143 L400,143 L400,157 L350,157 Z" stroke="black" fill="black" stroke-linejoin="miter" />
<text x="375" y="185" font-size="7" text-anchor="middle"></text>
<text x="375" y="126" font-size="7" text-anchor="middle"></text>
<path d="M350,143 L400,143 L400,147 L350,147 Z" stroke="black" fill="lightgray" stroke-linejoin="miter" />
<path d="M393,150 L403,150 L403,160 L393,160 Z" stroke="black" fill="aquamarine" stroke-linejoin="miter" />
<text x="398" y="157" font-size="6" text-anchor="middle">H</text>
<path d="M275,25.0 L425,25.0" stroke="darkred" stroke-width="3" fill="none" />
<path d="M325,75.0 L425,75.0" stroke="darkred" stroke-width="3" fill="none" />
<path d="M75,325.0 L425,325.0" stroke="darkred" stroke-width="3" fill="none" />
<path d="M75,375.0 L425,375.0" stroke="darkred" stroke-width="3" fill="none" />
<path d="M428,325 L472,225" stroke="white" stroke-width="6" fill="none" />
<path d="M425,325 L428,325 L472,225 L475,225" stroke="darkred" stroke-width="3" fill="none" />
<path d="M428,375 L472,275" stroke="white" stroke-width="6" fill="none" />
<path d="M425,375 L428,375 L472,275 L475,275" stroke="darkred" stroke-width="3" fill="none" />
<path d="M425,25 L453,25 L472,44" stroke="darkred" stroke-width="3" fill="none" />
<path d="M478,44 L497,25 L525,25" stroke="darkred" stroke-width="3" fill="none" />
<path d="M425,75 L453,75 L472,56" stroke="darkred" stroke-width="3" fill="none" />
<path d="M478,56 L497,75 L525,75" stroke="darkred" stroke-width="3" fill="none" />
<path d="M450,43 L500,43 L500,57 L450,57 Z" stroke="black" fill="black" stroke-linejoin="miter" />
<text x="475" y="85" font-size="7" text-anchor="middle"></text>
<text x="475" y="26" font-size="7" text-anchor="middle"></text>
<path d="M450,43 L500,43 L500,47 L450,47 Z" stroke="black" fill="lightgray" stroke-linejoin="miter" />
<path d="M493,50 L503,50 L503,60 L493,60 Z" stroke="black" fill="aquamarine" stroke-linejoin="miter" />
<text x="498" y="57" font-size="6" text-anchor="middle">H</text>
<path d="M425,125.0 L525,125.0" stroke="darkred" stroke-width="3" fill="none" />
<path d="M425,175.0 L525,175.0" stroke="darkred" stroke-width="3" fill="none" />
<path d="M475,225.0 L525,225.0" stroke="darkred" stroke-width="3" fill="none" />
<path d="M475,275.0 L525,275.0" stroke="darkred" stroke-width="3" fill="none" />
<path d="M525,25 L575,25" stroke-width="3" stroke="darkred" stroke-linejoin="miter" fill="none" />
<path d="M525,75 L575,75" stroke-width="3" stroke="darkred" stroke-linejoin="miter" fill="none" />
<path d="M549,10 L551,10 L551,90 L549,90 Z" stroke="dimgrey" fill="dimgrey" stroke-linejoin="miter" />
<path d="M525,225 L575,225" stroke-width="3" stroke="darkred" stroke-linejoin="miter" fill="none" />
<path d="M525,275 L575,275" stroke-width="3" stroke="darkred" stroke-linejoin="miter" fill="none" />
<path d="M549,210 L551,210 L551,290 L549,290 Z" stroke="dimgrey" fill="dimgrey" stroke-linejoin="miter" />
<path d="M525,125 L550,125" stroke-width="3" stroke="darkred" stroke-linejoin="miter" fill="none" />
<path d="M550,125 L575,125" stroke-width="3" stroke="orange" stroke-linejoin="miter" fill="none" />
<path d="M545,135 L537,135 L537,115 L545,115 C545,115,555,115,555,125 C555,135,545,135,545,135 L545,135" stroke-width="1" stroke="black" stroke-linejoin="miter" fill="lightgray" />
<text x="537" y="112" font-size="5" text-anchor="start" font-style="italic">PNR</text>
<path d="M525,175 L550,175" stroke-width="3" stroke="darkred" stroke-linejoin="miter" fill="none" />
<path d="M550,175 L575,175" stroke-width="3" stroke="orange" stroke-linejoin="miter" fill="none" />
<path d="M545,185 L537,185 L537,165 L545,165 C545,165,555,165,555,175 C555,185,545,185,545,185 L545,185" stroke-width="1" stroke="black" stroke-linejoin="miter" fill="lightgray" />
<text x="537" y="162" font-size="5" text-anchor="start" font-style="italic">PNR</text>
<path d="M575,125 L675,125" stroke-width="3" stroke="orange" stroke-linejoin="miter" fill="none" />
<path d="M575,175 L675,175" stroke-width="3" stroke="orange" stroke-linejoin="miter" fill="none" />
<path d="M625,190.0 L625,205.0" stroke="white" stroke-width="5" fill="none" />
<path d="M625,190.0 L625,205.0" stroke="orange" stroke-width="3" fill="none" stroke-dasharray="4,4" />
<path d="M625,198.0 L622,195.0" stroke="orange" stroke-width="3" fill="none" />
<path d="M625,198.0 L628,195.0" stroke="orange" stroke-width="3" fill="none" />
<path d="M580,110 L670,110 L670,190 L580,190 Z" stroke="black" fill="lightgreen" stroke-linejoin="miter" />
<text x="625" y="155.0" font-size="10" text-anchor="middle">FFC</text>
<path d="M575,225 L675,225" stroke-width="3" stroke="darkred" stroke-linejoin="miter" fill="none" />
<path d="M575,275 L675,275" stroke-width="3" stroke="darkred" stroke-linejoin="miter" fill="none" />
<path d="M580,205 L670,205 L670,295 L580,295 Z" stroke="black" fill="lightyellow" stroke-linejoin="miter" />
<text x="625" y="250" font-size="10" text-anchor="middle">U(FFC)</text>
<path d="M575,25.0 L675,25.0" stroke="darkred" stroke-width="3" fill="none" />
<path d="M575,75.0 L675,75.0" stroke="darkred" stroke-width="3" fill="none" />
<path d="M675,125 L725,125" stroke-width="3" stroke="orange" stroke-linejoin="miter" fill="none" />
<path d="M675,175 L725,175" stroke-width="3" stroke="orange" stroke-linejoin="miter" fill="none" />
<path d="M675,225 L725,225" stroke-width="3" stroke="darkred" stroke-linejoin="miter" fill="none" />
<path d="M675,275 L725,275" stroke-width="3" stroke="darkred" stroke-linejoin="miter" fill="none" />
<path d="M699,110 L701,110 L701,290 L699,290 Z" stroke="dimgrey" fill="dimgrey" stroke-linejoin="miter" />
<path d="M675,25.0 L725,25.0" stroke="darkred" stroke-width="3" fill="none" />
<path d="M675,75.0 L725,75.0" stroke="darkred" stroke-width="3" fill="none" />
<path d="M725,25 L750,25" stroke-width="3" stroke="darkred" stroke-linejoin="miter" fill="none" />
<path d="M750,25 L775,25" stroke-width="3" stroke="orange" stroke-linejoin="miter" fill="none" />
<path d="M745,35 L737,35 L737,15 L745,15 C745,15,755,15,755,25 C755,35,745,35,745,35 L745,35" stroke-width="1" stroke="black" stroke-linejoin="miter" fill="lightgray" />
<text x="737" y="12" font-size="5" text-anchor="start" font-style="italic">PNR</text>
<path d="M725,75 L750,75" stroke-width="3" stroke="darkred" stroke-linejoin="miter" fill="none" />
<path d="M750,75 L775,75" stroke-width="3" stroke="orange" stroke-linejoin="miter" fill="none" />
<path d="M745,85 L737,85 L737,65 L745,65 C745,65,755,65,755,75 C755,85,745,85,745,85 L745,85" stroke-width="1" stroke="black" stroke-linejoin="miter" fill="lightgray" />
<text x="737" y="62" font-size="5" text-anchor="start" font-style="italic">PNR</text>
<path d="M775,25 L825,25" stroke-width="3" stroke="orange" stroke-linejoin="miter" fill="none" />
<path d="M775,75 L825,75" stroke-width="3" stroke="orange" stroke-linejoin="miter" fill="none" />
<path d="M800,90.0 L800,255.0" stroke="white" stroke-width="5" fill="none" />
<path d="M800,90.0 L800,255.0" stroke="orange" stroke-width="3" fill="none" stroke-dasharray="4,4" />
<path d="M800,98.0 L797,95.0" stroke="orange" stroke-width="3" fill="none" />
<path d="M800,98.0 L803,95.0" stroke="orange" stroke-width="3" fill="none" />
<path d="M780,10 L820,10 L820,90 L780,90 Z" stroke="black" fill="lightgreen" stroke-linejoin="miter" />
<text x="800" y="55.0" font-size="10" text-anchor="middle">FFC</text>
<path d="M725,275 L775,275" stroke="darkred" stroke-width="3" fill="none" />
<path d="M730,290 L739,290 L753,260 L744,260 L730,290 L739,290 Z" stroke="black" fill="gray" stroke-linejoin="miter" />
<text x="747" y="288" font-size="7" text-anchor="start">Φ=phi</text>
<path d="M725,125.0 L825,125.0" stroke="orange" stroke-width="3" fill="none" />
<path d="M725,175.0 L825,175.0" stroke="orange" stroke-width="3" fill="none" />
<path d="M725,225.0 L825,225.0" stroke="darkred" stroke-width="3" fill="none" />
<path d="M775,275.0 L825,275.0" stroke="darkred" stroke-width="3" fill="none" />
<path d="M825,25.0 L840,25.0" stroke-width="3" stroke="orange" stroke-linejoin="miter" fill="none" />
<path d="M825,75.0 L840,75.0" stroke-width="3" stroke="orange" stroke-linejoin="miter" fill="none" />
<path d="M825,125.0 L840,125.0" stroke-width="3" stroke="orange" stroke-linejoin="miter" fill="none" />
<path d="M825,175.0 L840,175.0" stroke-width="3" stroke="orange" stroke-linejoin="miter" fill="none" />
<path d="M825,225.0 L840,225.0" stroke-width="3" stroke="darkred" stroke-linejoin="miter" fill="none" />
<path d="M825,275.0 L840,275.0" stroke-width="3" stroke="darkred" stroke-linejoin="miter" fill="none" />
<path d="M157,75 C157,75,157,65,167,65 L175,65 L175,85 L167,85 C157,85,157,75,157,75 L157,75" stroke-width="1" stroke="black" stroke-linejoin="miter" fill="white" />
<text x="163" y="91" font-size="6" text-anchor="middle" font-style="italic">[herald0]</text>
<text x="167" y="78" font-size="7" text-anchor="middle">0</text>
<path d="M157,275 C157,275,157,265,167,265 L175,265 L175,285 L167,285 C157,285,157,275,157,275 L157,275" stroke-width="1" stroke="black" stroke-linejoin="miter" fill="white" />
<text x="163" y="291" font-size="6" text-anchor="middle" font-style="italic">[herald1]</text>
<text x="167" y="278" font-size="7" text-anchor="middle">0</text>
<path d="M-2,15 L10,15 L10,85 L-2,85 Z" stroke="black" fill="lightgray" stroke-linejoin="miter" />
<text x="-2" y="91" font-size="6" text-anchor="start" font-style="italic">[ctrl]</text>
<path d="M-2,115 L10,115 L10,185 L-2,185 Z" stroke="black" fill="lightgray" stroke-linejoin="miter" />
<text x="-2" y="191" font-size="6" text-anchor="start" font-style="italic">[data]</text>
<path d="M840,15 L852,15 L852,85 L840,85 Z" stroke="black" fill="lightgray" stroke-linejoin="miter" />
<text x="852" y="91" font-size="6" text-anchor="end" font-style="italic">[ctrl]</text>
<path d="M840,115 L852,115 L852,185 L840,185 Z" stroke="black" fill="lightgray" stroke-linejoin="miter" />
<text x="852" y="191" font-size="6" text-anchor="end" font-style="italic">[data]</text>
<path d="M283,85 L275,85 L275,65 L283,65 C283,65,293,65,293,75 C293,85,283,85,283,85 L283,85" stroke-width="1" stroke="black" stroke-linejoin="miter" fill="white" />
<text x="288" y="61" font-size="6" text-anchor="middle" font-style="italic">[herald0]</text>
<text x="283" y="78" font-size="7" text-anchor="middle">0</text>
<path d="M283,285 L275,285 L275,265 L283,265 C283,265,293,265,293,275 C293,285,283,285,283,285 L283,285" stroke-width="1" stroke="black" stroke-linejoin="miter" fill="white" />
<text x="288" y="261" font-size="6" text-anchor="middle" font-style="italic">[herald1]</text>
<text x="283" y="278" font-size="7" text-anchor="middle">0</text>
<text x="850" y="28.0" font-size="9" text-anchor="end">0</text>
<text x="850" y="78.0" font-size="9" text-anchor="end">1</text>
<text x="850" y="128.0" font-size="9" text-anchor="end">2</text>
<text x="850" y="178.0" font-size="9" text-anchor="end">3</text>
<text x="850" y="228.0" font-size="9" text-anchor="end">4</text>
<text x="850" y="278.0" font-size="9" text-anchor="end">5</text>
<text x="0" y="28.0" font-size="9" text-anchor="start">0</text>
<text x="0" y="78.0" font-size="9" text-anchor="start">1</text>
<text x="0" y="128.0" font-size="9" text-anchor="start">2</text>
<text x="0" y="178.0" font-size="9" text-anchor="start">3</text>
<text x="0" y="228.0" font-size="9" text-anchor="start">4</text>
<text x="0" y="278.0" font-size="9" text-anchor="start">5</text>
</svg>