<?xml version="1.0" encoding="utf-8" standalone="no"?>
<!DOCTYPE svg PUBLIC "-//W3C//DTD SVG 1.1//EN"
  "http://www.w3.org/Graphics/SVG/1.1/DTD/svg11.dtd">
<svg xmlns:xlink="http://www.w3.org/1999/xlink" width="216pt" height="360pt" viewBox="0 0 216 360" xmlns="http://www.w3.org/2000/svg" version="1.1">
 <metadata>
  <rdf:RDF xmlns:dc="http://purl.org/dc/elements/1.1/" xmlns:cc="http://creativecommons.org/ns#" xmlns:rdf="http://www.w3.org/1999/02/22-rdf-syntax-ns#">
   <cc:Work>
    <dc:type rdf:resource="http://purl.org/dc/dcmitype/StillImage"/>
    <dc:date>2025-08-14T12:24:42.828103</dc:date>
    <dc:format>image/svg+xml</dc:format>
    <dc:creator>
     <cc:Agent>
      <dc:title>Matplotlib v3.10.5, https://matplotlib.org/</dc:title>
     </cc:Agent>
    </dc:creator>
   </cc:Work>
  </rdf:RDF>
 </metadata>
 <defs>
  <style type="text/css">*{stroke-linejoin: round; stroke-linecap: butt}</style>
 </defs>
 <g id="figure_1">
  <g id="patch_1">
   <path d="M 0 360 
L 216 360 
L 216 0 
L 0 0 
z
" style="fill: #ffffff"/>
  </g>
  <g id="axes_1">
   <g id="patch_2">
    <path d="M 0 360 
L 216 360 
L 216 0 
L 0 0 
z
" clip-path="url(#p0e17a34560)" style="fill: #ffffff; stroke: #ffffff; stroke-linejoin: miter"/>
   </g>
   <g id="patch_3">
    <path d="M 108 54 
Q 108 90 108 90 
" clip-path="url(#p0e17a34560)" style="fill: none; stroke: #000000; stroke-linejoin: miter"/>
   </g>
   <g id="patch_4">
    <path d="M 108 126 
Q 108 162 108 162 
" clip-path="url(#p0e17a34560)" style="fill: none; stroke: #000000; stroke-linejoin: miter"/>
   </g>
   <g id="patch_5">
    <path d="M 108 180 
Q 108 180 108 198 
" clip-path="url(#p0e17a34560)" style="fill: none; stroke: #000000; stroke-linejoin: miter"/>
   </g>
   <g id="patch_6">
    <path d="M 108 162 
Q 108 180 108 180 
" clip-path="url(#p0e17a34560)" style="fill: none; stroke: #000000; stroke-linejoin: miter"/>
   </g>
   <g id="patch_7">
    <path d="M 108 198 
Q 108 234 108 234 
" clip-path="url(#p0e17a34560)" style="fill: none; stroke: #000000; stroke-linejoin: miter"/>
   </g>
   <g id="patch_8">
    <path d="M 108 270 
Q 108 306 108 306 
" clip-path="url(#p0e17a34560)" style="fill: none; stroke: #000000; stroke-linejoin: miter"/>
   </g>
   <g id="patch_9">
    <path d="M 108 324 
Q 108 324 108 342 
" clip-path="url(#p0e17a34560)" style="fill: none; stroke: #000000; stroke-linejoin: miter"/>
   </g>
   <g id="patch_10">
    <path d="M 108 306 
Q 108 324 108 324 
" clip-path="url(#p0e17a34560)" style="fill: none; stroke: #000000; stroke-linejoin: miter"/>
   </g>
   <g id="patch_11">
    <path d="M 108 342 
Q 108 360 108 360 
" clip-path="url(#p0e17a34560)" style="fill: none; stroke: #000000; stroke-linejoin: miter"/>
   </g>
   <g id="patch_12">
    <path d="M 54 54 
L 54 18 
L 162 18 
L 162 54 
z
" clip-path="url(#p0e17a34560)" style="fill: #ffffff; stroke: #000000; stroke-linejoin: miter"/>
   </g>
   <g id="patch_13">
    <path d="M 54 126 
L 54 90 
L 162 90 
L 162 126 
z
" clip-path="url(#p0e17a34560)" style="fill: #f7f700; stroke: #000000; stroke-linejoin: miter"/>
   </g>
   <g id="patch_14">
    <path d="M 54 270 
L 54 234 
L 162 234 
L 162 270 
z
" clip-path="url(#p0e17a34560)" style="fill: #ffffff; stroke: #000000; stroke-linejoin: miter"/>
   </g>
   <g id="patch_15">
    <path d="M 75.6 259.2 
Q 75.6 244.8 108 244.8 
" clip-path="url(#p0e17a34560)" style="fill: none; stroke: #000000; stroke-linejoin: miter"/>
   </g>
   <g id="patch_16">
    <path d="M 108 244.8 
Q 140.4 244.8 140.4 259.2 
" clip-path="url(#p0e17a34560)" style="fill: none; stroke: #000000; stroke-linejoin: miter"/>
   </g>
   <g id="patch_17">
    <path d="M 120.070833 239.081946 
L 120.918054 241.341204 
L 118.905903 241.20706 
L 108.105903 259.20706 
L 107.894097 259.19294 
L 118.694097 241.19294 
L 116.681946 241.058796 
z
" clip-path="url(#p0e17a34560)" style="stroke: #000000; stroke-linejoin: miter"/>
   </g>
   <g id="PathCollection_1">
    <defs>
     <path id="C0_0_918f736475" d="M 0 5.790078 
C 1.535547 5.790078 3.008408 5.179999 4.094203 4.094203 
C 5.179999 3.008408 5.790078 1.535547 5.790078 -0 
C 5.790078 -1.535547 5.179999 -3.008408 4.094203 -4.094203 
C 3.008408 -5.179999 1.535547 -5.790078 0 -5.790078 
C -1.535547 -5.790078 -3.008408 -5.179999 -4.094203 -4.094203 
C -5.179999 -3.008408 -5.790078 -1.535547 -5.790078 0 
C -5.790078 1.535547 -5.179999 3.008408 -4.094203 4.094203 
C -3.008408 5.179999 -1.535547 5.790078 0 5.790078 
z
"/>
    </defs>
    <g clip-path="url(#p0e17a34560)">
     <use xlink:href="#C0_0_918f736475" x="108" y="180" style="fill: #d8f8d8; stroke: #d8f8d8"/>
    </g>
    <g clip-path="url(#p0e17a34560)">
     <use xlink:href="#C0_0_918f736475" x="108" y="324" style="fill: #e8a5a5; stroke: #e8a5a5"/>
    </g>
   </g>
   <g id="text_1">
    <!-- qubit -->
    <g transform="translate(121.5 66.098437) scale(0.1 -0.1)">
     <defs>
      <path id="DejaVuSans-71" d="M 947 1747 
Q 947 1113 1208 752 
Q 1469 391 1925 391 
Q 2381 391 2643 752 
Q 2906 1113 2906 1747 
Q 2906 2381 2643 2742 
Q 2381 3103 1925 3103 
Q 1469 3103 1208 2742 
Q 947 2381 947 1747 
z
M 2906 525 
Q 2725 213 2448 61 
Q 2172 -91 1784 -91 
Q 1150 -91 751 415 
Q 353 922 353 1747 
Q 353 2572 751 3078 
Q 1150 3584 1784 3584 
Q 2172 3584 2448 3432 
Q 2725 3281 2906 2969 
L 2906 3500 
L 3481 3500 
L 3481 -1331 
L 2906 -1331 
L 2906 525 
z
" transform="scale(0.015625)"/>
      <path id="DejaVuSans-75" d="M 544 1381 
L 544 3500 
L 1119 3500 
L 1119 1403 
Q 1119 906 1312 657 
Q 1506 409 1894 409 
Q 2359 409 2629 706 
Q 2900 1003 2900 1516 
L 2900 3500 
L 3475 3500 
L 3475 0 
L 2900 0 
L 2900 538 
Q 2691 219 2414 64 
Q 2138 -91 1772 -91 
Q 1169 -91 856 284 
Q 544 659 544 1381 
z
M 1991 3584 
L 1991 3584 
z
" transform="scale(0.015625)"/>
      <path id="DejaVuSans-62" d="M 3116 1747 
Q 3116 2381 2855 2742 
Q 2594 3103 2138 3103 
Q 1681 3103 1420 2742 
Q 1159 2381 1159 1747 
Q 1159 1113 1420 752 
Q 1681 391 2138 391 
Q 2594 391 2855 752 
Q 3116 1113 3116 1747 
z
M 1159 2969 
Q 1341 3281 1617 3432 
Q 1894 3584 2278 3584 
Q 2916 3584 3314 3078 
Q 3713 2572 3713 1747 
Q 3713 922 3314 415 
Q 2916 -91 2278 -91 
Q 1894 -91 1617 61 
Q 1341 213 1159 525 
L 1159 0 
L 581 0 
L 581 4863 
L 1159 4863 
L 1159 2969 
z
" transform="scale(0.015625)"/>
      <path id="DejaVuSans-69" d="M 603 3500 
L 1178 3500 
L 1178 0 
L 603 0 
L 603 3500 
z
M 603 4863 
L 1178 4863 
L 1178 4134 
L 603 4134 
L 603 4863 
z
" transform="scale(0.015625)"/>
      <path id="DejaVuSans-74" d="M 1172 4494 
L 1172 3500 
L 2356 3500 
L 2356 3053 
L 1172 3053 
L 1172 1153 
Q 1172 725 1289 603 
Q 1406 481 1766 481 
L 2356 481 
L 2356 0 
L 1766 0 
Q 1100 0 847 248 
Q 594 497 594 1153 
L 594 3053 
L 172 3053 
L 172 3500 
L 594 3500 
L 594 4494 
L 1172 4494 
z
" transform="scale(0.015625)"/>
     </defs>
     <use xlink:href="#DejaVuSans-71"/>
     <use xlink:href="#DejaVuSans-75" transform="translate(63.476562 0)"/>
     <use xlink:href="#DejaVuSans-62" transform="translate(126.855469 0)"/>
     <use xlink:href="#DejaVuSans-69" transform="translate(190.332031 0)"/>
     <use xlink:href="#DejaVuSans-74" transform="translate(218.115234 0)"/>
    </g>
   </g>
   <g id="text_2">
    <!-- qubit -->
    <g transform="translate(121.5 138.098437) scale(0.1 -0.1)">
     <use xlink:href="#DejaVuSans-71"/>
     <use xlink:href="#DejaVuSans-75" transform="translate(63.476562 0)"/>
     <use xlink:href="#DejaVuSans-62" transform="translate(126.855469 0)"/>
     <use xlink:href="#DejaVuSans-69" transform="translate(190.332031 0)"/>
     <use xlink:href="#DejaVuSans-74" transform="translate(218.115234 0)"/>
    </g>
   </g>
   <g id="text_3">
    <!-- qubit -->
    <g transform="translate(121.5 210.098437) scale(0.1 -0.1)">
     <use xlink:href="#DejaVuSans-71"/>
     <use xlink:href="#DejaVuSans-75" transform="translate(63.476562 0)"/>
     <use xlink:href="#DejaVuSans-62" transform="translate(126.855469 0)"/>
     <use xlink:href="#DejaVuSans-69" transform="translate(190.332031 0)"/>
     <use xlink:href="#DejaVuSans-74" transform="translate(218.115234 0)"/>
    </g>
   </g>
   <g id="text_4">
    <!-- bit -->
    <g transform="translate(121.5 282.098437) scale(0.1 -0.1)">
     <use xlink:href="#DejaVuSans-62"/>
     <use xlink:href="#DejaVuSans-69" transform="translate(63.476562 0)"/>
     <use xlink:href="#DejaVuSans-74" transform="translate(91.259766 0)"/>
    </g>
   </g>
   <g id="text_5">
    <!-- bit -->
    <g transform="translate(121.5 354.098437) scale(0.1 -0.1)">
     <use xlink:href="#DejaVuSans-62"/>
     <use xlink:href="#DejaVuSans-69" transform="translate(63.476562 0)"/>
     <use xlink:href="#DejaVuSans-74" transform="translate(91.259766 0)"/>
    </g>
   </g>
   <g id="text_6">
    <!-- |0&gt; -->
    <g transform="translate(98.944531 38.642187) scale(0.1 -0.1)">
     <defs>
      <path id="DejaVuSans-7c" d="M 1344 4891 
L 1344 -1509 
L 813 -1509 
L 813 4891 
L 1344 4891 
z
" transform="scale(0.015625)"/>
      <path id="DejaVuSans-30" d="M 2034 4250 
Q 1547 4250 1301 3770 
Q 1056 3291 1056 2328 
Q 1056 1369 1301 889 
Q 1547 409 2034 409 
Q 2525 409 2770 889 
Q 3016 1369 3016 2328 
Q 3016 3291 2770 3770 
Q 2525 4250 2034 4250 
z
M 2034 4750 
Q 2819 4750 3233 4129 
Q 3647 3509 3647 2328 
Q 3647 1150 3233 529 
Q 2819 -91 2034 -91 
Q 1250 -91 836 529 
Q 422 1150 422 2328 
Q 422 3509 836 4129 
Q 1250 4750 2034 4750 
z
" transform="scale(0.015625)"/>
      <path id="DejaVuSans-3e" d="M 678 3150 
L 678 3719 
L 4684 2266 
L 4684 1747 
L 678 294 
L 678 863 
L 3897 2003 
L 678 3150 
z
" transform="scale(0.015625)"/>
     </defs>
     <use xlink:href="#DejaVuSans-7c"/>
     <use xlink:href="#DejaVuSans-30" transform="translate(33.691406 0)"/>
     <use xlink:href="#DejaVuSans-3e" transform="translate(97.314453 0)"/>
    </g>
   </g>
   <g id="text_7">
    <!-- H -->
    <g transform="translate(104.239844 110.759375) scale(0.1 -0.1)">
     <defs>
      <path id="DejaVuSans-48" d="M 628 4666 
L 1259 4666 
L 1259 2753 
L 3553 2753 
L 3553 4666 
L 4184 4666 
L 4184 0 
L 3553 0 
L 3553 2222 
L 1259 2222 
L 1259 0 
L 628 0 
L 628 4666 
z
" transform="scale(0.015625)"/>
     </defs>
     <use xlink:href="#DejaVuSans-48"/>
    </g>
   </g>
   <g id="text_8">
    <g clip-path="url(#p0e17a34560)">
     <!-- Z(0.5) -->
     <g transform="translate(89.66625 183.31125) scale(0.12 -0.12)">
      <defs>
       <path id="DejaVuSans-5a" d="M 359 4666 
L 4025 4666 
L 4025 4184 
L 1075 531 
L 4097 531 
L 4097 0 
L 288 0 
L 288 481 
L 3238 4134 
L 359 4134 
L 359 4666 
z
" transform="scale(0.015625)"/>
       <path id="DejaVuSans-28" d="M 1984 4856 
Q 1566 4138 1362 3434 
Q 1159 2731 1159 2009 
Q 1159 1288 1364 580 
Q 1569 -128 1984 -844 
L 1484 -844 
Q 1016 -109 783 600 
Q 550 1309 550 2009 
Q 550 2706 781 3412 
Q 1013 4119 1484 4856 
L 1984 4856 
z
" transform="scale(0.015625)"/>
       <path id="DejaVuSans-2e" d="M 684 794 
L 1344 794 
L 1344 0 
L 684 0 
L 684 794 
z
" transform="scale(0.015625)"/>
       <path id="DejaVuSans-35" d="M 691 4666 
L 3169 4666 
L 3169 4134 
L 1269 4134 
L 1269 2991 
Q 1406 3038 1543 3061 
Q 1681 3084 1819 3084 
Q 2600 3084 3056 2656 
Q 3513 2228 3513 1497 
Q 3513 744 3044 326 
Q 2575 -91 1722 -91 
Q 1428 -91 1123 -41 
Q 819 9 494 109 
L 494 744 
Q 775 591 1075 516 
Q 1375 441 1709 441 
Q 2250 441 2565 725 
Q 2881 1009 2881 1497 
Q 2881 1984 2565 2268 
Q 2250 2553 1709 2553 
Q 1456 2553 1204 2497 
Q 953 2441 691 2322 
L 691 4666 
z
" transform="scale(0.015625)"/>
       <path id="DejaVuSans-29" d="M 513 4856 
L 1013 4856 
Q 1481 4119 1714 3412 
Q 1947 2706 1947 2009 
Q 1947 1309 1714 600 
Q 1481 -109 1013 -844 
L 513 -844 
Q 928 -128 1133 580 
Q 1338 1288 1338 2009 
Q 1338 2731 1133 3434 
Q 928 4138 513 4856 
z
" transform="scale(0.015625)"/>
      </defs>
      <use xlink:href="#DejaVuSans-5a"/>
      <use xlink:href="#DejaVuSans-28" transform="translate(68.505859 0)"/>
      <use xlink:href="#DejaVuSans-30" transform="translate(107.519531 0)"/>
      <use xlink:href="#DejaVuSans-2e" transform="translate(171.142578 0)"/>
      <use xlink:href="#DejaVuSans-35" transform="translate(202.929688 0)"/>
      <use xlink:href="#DejaVuSans-29" transform="translate(266.552734 0)"/>
     </g>
    </g>
   </g>
   <g id="text_9">
    <g clip-path="url(#p0e17a34560)">
     <!-- X(0.5) -->
     <g transform="translate(89.66625 327.31125) scale(0.12 -0.12)">
      <defs>
       <path id="DejaVuSans-58" d="M 403 4666 
L 1081 4666 
L 2241 2931 
L 3406 4666 
L 4084 4666 
L 2584 2425 
L 4184 0 
L 3506 0 
L 2194 1984 
L 872 0 
L 191 0 
L 1856 2491 
L 403 4666 
z
" transform="scale(0.015625)"/>
      </defs>
      <use xlink:href="#DejaVuSans-58"/>
      <use xlink:href="#DejaVuSans-28" transform="translate(68.505859 0)"/>
      <use xlink:href="#DejaVuSans-30" transform="translate(107.519531 0)"/>
      <use xlink:href="#DejaVuSans-2e" transform="translate(171.142578 0)"/>
      <use xlink:href="#DejaVuSans-35" transform="translate(202.929688 0)"/>
      <use xlink:href="#DejaVuSans-29" transform="translate(266.552734 0)"/>
     </g>
    </g>
   </g>
  </g>
 </g>
 <defs>
  <clipPath id="p0e17a34560">
   <rect x="0" y="0" width="216" height="360"/>
  </clipPath>
 </defs>
</svg>
