<?xml version="1.0" encoding="utf-8" standalone="no"?>
<!DOCTYPE svg PUBLIC "-//W3C//DTD SVG 1.1//EN"
  "http://www.w3.org/Graphics/SVG/1.1/DTD/svg11.dtd">
<svg xmlns:xlink="http://www.w3.org/1999/xlink" width="432pt" height="648pt" viewBox="0 0 432 648" xmlns="http://www.w3.org/2000/svg" version="1.1">
 <metadata>
  <rdf:RDF xmlns:dc="http://purl.org/dc/elements/1.1/" xmlns:cc="http://creativecommons.org/ns#" xmlns:rdf="http://www.w3.org/1999/02/22-rdf-syntax-ns#">
   <cc:Work>
    <dc:type rdf:resource="http://purl.org/dc/dcmitype/StillImage"/>
    <dc:date>2025-07-02T15:48:35.172430</dc:date>
    <dc:format>image/svg+xml</dc:format>
    <dc:creator>
     <cc:Agent>
      <dc:title>Matplotlib v3.10.0, https://matplotlib.org/</dc:title>
     </cc:Agent>
    </dc:creator>
   </cc:Work>
  </rdf:RDF>
 </metadata>
 <defs>
  <style type="text/css">*{stroke-linejoin: round; stroke-linecap: butt}</style>
 </defs>
 <g id="figure_1">
  <g id="patch_1">
   <path d="M 0 648 
L 432 648 
L 432 0 
L 0 0 
z
" style="fill: #ffffff"/>
  </g>
  <g id="axes_1">
   <g id="patch_2">
    <path d="M 0 648 
L 432 648 
L 432 -0 
L 0 -0 
z
" clip-path="url(#p38337e508d)" style="fill: #ffffff; stroke: #ffffff; stroke-linejoin: miter"/>
   </g>
   <g id="patch_3">
    <path d="M 136.421053 13.135135 
Q 136.421053 109.459459 136.421053 109.459459 
" clip-path="url(#p38337e508d)" style="fill: none; stroke: #000000; stroke-linejoin: miter"/>
   </g>
   <g id="patch_4">
    <path d="M 204.631579 30.648649 
Q 204.631579 144.486486 204.631579 144.486486 
" clip-path="url(#p38337e508d)" style="fill: none; stroke: #000000; stroke-linejoin: miter"/>
   </g>
   <g id="patch_5">
    <path d="M 272.842105 48.162162 
Q 272.842105 175.135135 272.842105 175.135135 
" clip-path="url(#p38337e508d)" style="fill: none; stroke: #000000; stroke-linejoin: miter"/>
   </g>
   <g id="patch_6">
    <path d="M 318.315789 65.675676 
Q 318.315789 175.135135 318.315789 175.135135 
" clip-path="url(#p38337e508d)" style="fill: none; stroke: #000000; stroke-linejoin: miter"/>
   </g>
   <g id="patch_7">
    <path d="M 363.789474 83.189189 
Q 363.789474 367.783784 363.789474 367.783784 
" clip-path="url(#p38337e508d)" style="fill: none; stroke: #000000; stroke-linejoin: miter"/>
   </g>
   <g id="patch_8">
    <path d="M 409.263158 100.702703 
Q 409.263158 507.891892 409.263158 507.891892 
" clip-path="url(#p38337e508d)" style="fill: none; stroke: #000000; stroke-linejoin: miter"/>
   </g>
   <g id="patch_9">
    <path d="M 136.421053 118.216216 
Q 136.421053 126.972973 136.421053 126.972973 
" clip-path="url(#p38337e508d)" style="fill: none; stroke: #000000; stroke-linejoin: miter"/>
   </g>
   <g id="patch_10">
    <path d="M 136.421053 131.351351 
Q 45.473684 131.351351 45.473684 135.72973 
" clip-path="url(#p38337e508d)" style="fill: none; stroke: #000000; stroke-linejoin: miter"/>
   </g>
   <g id="patch_11">
    <path d="M 136.421053 131.351351 
Q 159.157895 131.351351 159.157895 135.72973 
" clip-path="url(#p38337e508d)" style="fill: none; stroke: #000000; stroke-linejoin: miter"/>
   </g>
   <g id="patch_12">
    <path d="M 136.421053 126.972973 
Q 136.421053 131.351351 136.421053 131.351351 
" clip-path="url(#p38337e508d)" style="fill: none; stroke: #000000; stroke-linejoin: miter"/>
   </g>
   <g id="patch_13">
    <path d="M 45.473684 135.72973 
Q 45.473684 214.540541 45.473684 214.540541 
" clip-path="url(#p38337e508d)" style="fill: none; stroke: #000000; stroke-linejoin: miter"/>
   </g>
   <g id="patch_14">
    <path d="M 159.157895 135.72973 
Q 159.157895 144.486486 159.157895 144.486486 
" clip-path="url(#p38337e508d)" style="fill: none; stroke: #000000; stroke-linejoin: miter"/>
   </g>
   <g id="patch_15">
    <path d="M 181.894737 148.864865 
Q 181.894737 148.864865 181.894737 153.243243 
" clip-path="url(#p38337e508d)" style="fill: none; stroke: #000000; stroke-linejoin: miter"/>
   </g>
   <g id="patch_16">
    <path d="M 159.157895 144.486486 
Q 159.157895 148.864865 181.894737 148.864865 
" clip-path="url(#p38337e508d)" style="fill: none; stroke: #000000; stroke-linejoin: miter"/>
   </g>
   <g id="patch_17">
    <path d="M 204.631579 144.486486 
Q 204.631579 148.864865 181.894737 148.864865 
" clip-path="url(#p38337e508d)" style="fill: none; stroke: #000000; stroke-linejoin: miter"/>
   </g>
   <g id="patch_18">
    <path d="M 181.894737 153.243243 
Q 181.894737 192.648649 181.894737 192.648649 
" clip-path="url(#p38337e508d)" style="fill: none; stroke: #000000; stroke-linejoin: miter"/>
   </g>
   <g id="patch_19">
    <path d="M 295.578947 183.891892 
Q 272.842105 183.891892 272.842105 192.648649 
" clip-path="url(#p38337e508d)" style="fill: none; stroke: #000000; stroke-linejoin: miter"/>
   </g>
   <g id="patch_20">
    <path d="M 295.578947 183.891892 
Q 318.315789 183.891892 318.315789 192.648649 
" clip-path="url(#p38337e508d)" style="fill: none; stroke: #000000; stroke-linejoin: miter"/>
   </g>
   <g id="patch_21">
    <path d="M 272.842105 175.135135 
Q 272.842105 183.891892 295.578947 183.891892 
" clip-path="url(#p38337e508d)" style="fill: none; stroke: #000000; stroke-linejoin: miter"/>
   </g>
   <g id="patch_22">
    <path d="M 318.315789 175.135135 
Q 318.315789 183.891892 295.578947 183.891892 
" clip-path="url(#p38337e508d)" style="fill: none; stroke: #000000; stroke-linejoin: miter"/>
   </g>
   <g id="patch_23">
    <path d="M 318.315789 192.648649 
Q 318.315789 297.72973 318.315789 297.72973 
" clip-path="url(#p38337e508d)" style="fill: none; stroke: #000000; stroke-linejoin: miter"/>
   </g>
   <g id="patch_24">
    <path d="M 227.368421 201.405405 
Q 181.894737 201.405405 181.894737 210.162162 
" clip-path="url(#p38337e508d)" style="fill: none; stroke: #000000; stroke-linejoin: miter"/>
   </g>
   <g id="patch_25">
    <path d="M 227.368421 201.405405 
Q 272.842105 201.405405 272.842105 210.162162 
" clip-path="url(#p38337e508d)" style="fill: none; stroke: #000000; stroke-linejoin: miter"/>
   </g>
   <g id="patch_26">
    <path d="M 181.894737 192.648649 
Q 181.894737 201.405405 227.368421 201.405405 
" clip-path="url(#p38337e508d)" style="fill: none; stroke: #000000; stroke-linejoin: miter"/>
   </g>
   <g id="patch_27">
    <path d="M 272.842105 192.648649 
Q 272.842105 201.405405 227.368421 201.405405 
" clip-path="url(#p38337e508d)" style="fill: none; stroke: #000000; stroke-linejoin: miter"/>
   </g>
   <g id="patch_28">
    <path d="M 181.894737 210.162162 
Q 181.894737 232.054054 181.894737 232.054054 
" clip-path="url(#p38337e508d)" style="fill: none; stroke: #000000; stroke-linejoin: miter"/>
   </g>
   <g id="patch_29">
    <path d="M 272.842105 210.162162 
Q 272.842105 280.216216 272.842105 280.216216 
" clip-path="url(#p38337e508d)" style="fill: none; stroke: #000000; stroke-linejoin: miter"/>
   </g>
   <g id="patch_30">
    <path d="M 45.473684 223.297297 
Q 45.473684 249.567568 45.473684 249.567568 
" clip-path="url(#p38337e508d)" style="fill: none; stroke: #000000; stroke-linejoin: miter"/>
   </g>
   <g id="patch_31">
    <path d="M 22.736842 258.324324 
Q 22.736842 267.081081 22.736842 267.081081 
" clip-path="url(#p38337e508d)" style="fill: none; stroke: #000000; stroke-linejoin: miter"/>
   </g>
   <g id="patch_32">
    <path d="M 136.421053 258.324324 
Q 136.421053 280.216216 136.421053 280.216216 
" clip-path="url(#p38337e508d)" style="fill: none; stroke: #000000; stroke-linejoin: miter"/>
   </g>
   <g id="patch_33">
    <path d="M 22.736842 275.837838 
Q 22.736842 648 22.736842 648 
" clip-path="url(#p38337e508d)" style="fill: none; stroke: #000000; stroke-linejoin: miter"/>
   </g>
   <g id="patch_34">
    <path d="M 204.631579 288.972973 
Q 136.421053 288.972973 136.421053 297.72973 
" clip-path="url(#p38337e508d)" style="fill: none; stroke: #000000; stroke-linejoin: miter"/>
   </g>
   <g id="patch_35">
    <path d="M 204.631579 288.972973 
Q 272.842105 288.972973 272.842105 297.72973 
" clip-path="url(#p38337e508d)" style="fill: none; stroke: #000000; stroke-linejoin: miter"/>
   </g>
   <g id="patch_36">
    <path d="M 136.421053 280.216216 
Q 136.421053 288.972973 204.631579 288.972973 
" clip-path="url(#p38337e508d)" style="fill: none; stroke: #000000; stroke-linejoin: miter"/>
   </g>
   <g id="patch_37">
    <path d="M 272.842105 280.216216 
Q 272.842105 288.972973 204.631579 288.972973 
" clip-path="url(#p38337e508d)" style="fill: none; stroke: #000000; stroke-linejoin: miter"/>
   </g>
   <g id="patch_38">
    <path d="M 136.421053 297.72973 
Q 136.421053 319.621622 136.421053 319.621622 
" clip-path="url(#p38337e508d)" style="fill: none; stroke: #000000; stroke-linejoin: miter"/>
   </g>
   <g id="patch_39">
    <path d="M 295.578947 306.486486 
Q 272.842105 306.486486 272.842105 315.243243 
" clip-path="url(#p38337e508d)" style="fill: none; stroke: #000000; stroke-linejoin: miter"/>
   </g>
   <g id="patch_40">
    <path d="M 295.578947 306.486486 
Q 318.315789 306.486486 318.315789 315.243243 
" clip-path="url(#p38337e508d)" style="fill: none; stroke: #000000; stroke-linejoin: miter"/>
   </g>
   <g id="patch_41">
    <path d="M 272.842105 297.72973 
Q 272.842105 306.486486 295.578947 306.486486 
" clip-path="url(#p38337e508d)" style="fill: none; stroke: #000000; stroke-linejoin: miter"/>
   </g>
   <g id="patch_42">
    <path d="M 318.315789 297.72973 
Q 318.315789 306.486486 295.578947 306.486486 
" clip-path="url(#p38337e508d)" style="fill: none; stroke: #000000; stroke-linejoin: miter"/>
   </g>
   <g id="patch_43">
    <path d="M 272.842105 315.243243 
Q 272.842105 337.135135 272.842105 337.135135 
" clip-path="url(#p38337e508d)" style="fill: none; stroke: #000000; stroke-linejoin: miter"/>
   </g>
   <g id="patch_44">
    <path d="M 318.315789 315.243243 
Q 318.315789 367.783784 318.315789 367.783784 
" clip-path="url(#p38337e508d)" style="fill: none; stroke: #000000; stroke-linejoin: miter"/>
   </g>
   <g id="patch_45">
    <path d="M 136.421053 324 
Q 90.947368 324 90.947368 328.378378 
" clip-path="url(#p38337e508d)" style="fill: none; stroke: #000000; stroke-linejoin: miter"/>
   </g>
   <g id="patch_46">
    <path d="M 136.421053 324 
Q 159.157895 324 159.157895 328.378378 
" clip-path="url(#p38337e508d)" style="fill: none; stroke: #000000; stroke-linejoin: miter"/>
   </g>
   <g id="patch_47">
    <path d="M 136.421053 319.621622 
Q 136.421053 324 136.421053 324 
" clip-path="url(#p38337e508d)" style="fill: none; stroke: #000000; stroke-linejoin: miter"/>
   </g>
   <g id="patch_48">
    <path d="M 90.947368 328.378378 
Q 90.947368 407.189189 90.947368 407.189189 
" clip-path="url(#p38337e508d)" style="fill: none; stroke: #000000; stroke-linejoin: miter"/>
   </g>
   <g id="patch_49">
    <path d="M 159.157895 328.378378 
Q 159.157895 337.135135 159.157895 337.135135 
" clip-path="url(#p38337e508d)" style="fill: none; stroke: #000000; stroke-linejoin: miter"/>
   </g>
   <g id="patch_50">
    <path d="M 216 341.513514 
Q 216 341.513514 216 345.891892 
" clip-path="url(#p38337e508d)" style="fill: none; stroke: #000000; stroke-linejoin: miter"/>
   </g>
   <g id="patch_51">
    <path d="M 159.157895 337.135135 
Q 159.157895 341.513514 216 341.513514 
" clip-path="url(#p38337e508d)" style="fill: none; stroke: #000000; stroke-linejoin: miter"/>
   </g>
   <g id="patch_52">
    <path d="M 272.842105 337.135135 
Q 272.842105 341.513514 216 341.513514 
" clip-path="url(#p38337e508d)" style="fill: none; stroke: #000000; stroke-linejoin: miter"/>
   </g>
   <g id="patch_53">
    <path d="M 216 345.891892 
Q 216 385.297297 216 385.297297 
" clip-path="url(#p38337e508d)" style="fill: none; stroke: #000000; stroke-linejoin: miter"/>
   </g>
   <g id="patch_54">
    <path d="M 341.052632 376.540541 
Q 318.315789 376.540541 318.315789 385.297297 
" clip-path="url(#p38337e508d)" style="fill: none; stroke: #000000; stroke-linejoin: miter"/>
   </g>
   <g id="patch_55">
    <path d="M 341.052632 376.540541 
Q 363.789474 376.540541 363.789474 385.297297 
" clip-path="url(#p38337e508d)" style="fill: none; stroke: #000000; stroke-linejoin: miter"/>
   </g>
   <g id="patch_56">
    <path d="M 318.315789 367.783784 
Q 318.315789 376.540541 341.052632 376.540541 
" clip-path="url(#p38337e508d)" style="fill: none; stroke: #000000; stroke-linejoin: miter"/>
   </g>
   <g id="patch_57">
    <path d="M 363.789474 367.783784 
Q 363.789474 376.540541 341.052632 376.540541 
" clip-path="url(#p38337e508d)" style="fill: none; stroke: #000000; stroke-linejoin: miter"/>
   </g>
   <g id="patch_58">
    <path d="M 363.789474 385.297297 
Q 363.789474 490.378378 363.789474 490.378378 
" clip-path="url(#p38337e508d)" style="fill: none; stroke: #000000; stroke-linejoin: miter"/>
   </g>
   <g id="patch_59">
    <path d="M 267.157895 394.054054 
Q 216 394.054054 216 402.810811 
" clip-path="url(#p38337e508d)" style="fill: none; stroke: #000000; stroke-linejoin: miter"/>
   </g>
   <g id="patch_60">
    <path d="M 267.157895 394.054054 
Q 318.315789 394.054054 318.315789 402.810811 
" clip-path="url(#p38337e508d)" style="fill: none; stroke: #000000; stroke-linejoin: miter"/>
   </g>
   <g id="patch_61">
    <path d="M 216 385.297297 
Q 216 394.054054 267.157895 394.054054 
" clip-path="url(#p38337e508d)" style="fill: none; stroke: #000000; stroke-linejoin: miter"/>
   </g>
   <g id="patch_62">
    <path d="M 318.315789 385.297297 
Q 318.315789 394.054054 267.157895 394.054054 
" clip-path="url(#p38337e508d)" style="fill: none; stroke: #000000; stroke-linejoin: miter"/>
   </g>
   <g id="patch_63">
    <path d="M 216 402.810811 
Q 216 424.702703 216 424.702703 
" clip-path="url(#p38337e508d)" style="fill: none; stroke: #000000; stroke-linejoin: miter"/>
   </g>
   <g id="patch_64">
    <path d="M 318.315789 402.810811 
Q 318.315789 472.864865 318.315789 472.864865 
" clip-path="url(#p38337e508d)" style="fill: none; stroke: #000000; stroke-linejoin: miter"/>
   </g>
   <g id="patch_65">
    <path d="M 90.947368 415.945946 
Q 90.947368 442.216216 90.947368 442.216216 
" clip-path="url(#p38337e508d)" style="fill: none; stroke: #000000; stroke-linejoin: miter"/>
   </g>
   <g id="patch_66">
    <path d="M 68.210526 450.972973 
Q 68.210526 459.72973 68.210526 459.72973 
" clip-path="url(#p38337e508d)" style="fill: none; stroke: #000000; stroke-linejoin: miter"/>
   </g>
   <g id="patch_67">
    <path d="M 136.421053 450.972973 
Q 136.421053 472.864865 136.421053 472.864865 
" clip-path="url(#p38337e508d)" style="fill: none; stroke: #000000; stroke-linejoin: miter"/>
   </g>
   <g id="patch_68">
    <path d="M 68.210526 468.486486 
Q 68.210526 648 68.210526 648 
" clip-path="url(#p38337e508d)" style="fill: none; stroke: #000000; stroke-linejoin: miter"/>
   </g>
   <g id="patch_69">
    <path d="M 227.368421 481.621622 
Q 136.421053 481.621622 136.421053 490.378378 
" clip-path="url(#p38337e508d)" style="fill: none; stroke: #000000; stroke-linejoin: miter"/>
   </g>
   <g id="patch_70">
    <path d="M 227.368421 481.621622 
Q 318.315789 481.621622 318.315789 490.378378 
" clip-path="url(#p38337e508d)" style="fill: none; stroke: #000000; stroke-linejoin: miter"/>
   </g>
   <g id="patch_71">
    <path d="M 136.421053 472.864865 
Q 136.421053 481.621622 227.368421 481.621622 
" clip-path="url(#p38337e508d)" style="fill: none; stroke: #000000; stroke-linejoin: miter"/>
   </g>
   <g id="patch_72">
    <path d="M 318.315789 472.864865 
Q 318.315789 481.621622 227.368421 481.621622 
" clip-path="url(#p38337e508d)" style="fill: none; stroke: #000000; stroke-linejoin: miter"/>
   </g>
   <g id="patch_73">
    <path d="M 136.421053 490.378378 
Q 136.421053 547.297297 136.421053 547.297297 
" clip-path="url(#p38337e508d)" style="fill: none; stroke: #000000; stroke-linejoin: miter"/>
   </g>
   <g id="patch_74">
    <path d="M 341.052632 499.135135 
Q 318.315789 499.135135 318.315789 507.891892 
" clip-path="url(#p38337e508d)" style="fill: none; stroke: #000000; stroke-linejoin: miter"/>
   </g>
   <g id="patch_75">
    <path d="M 341.052632 499.135135 
Q 363.789474 499.135135 363.789474 507.891892 
" clip-path="url(#p38337e508d)" style="fill: none; stroke: #000000; stroke-linejoin: miter"/>
   </g>
   <g id="patch_76">
    <path d="M 318.315789 490.378378 
Q 318.315789 499.135135 341.052632 499.135135 
" clip-path="url(#p38337e508d)" style="fill: none; stroke: #000000; stroke-linejoin: miter"/>
   </g>
   <g id="patch_77">
    <path d="M 363.789474 490.378378 
Q 363.789474 499.135135 341.052632 499.135135 
" clip-path="url(#p38337e508d)" style="fill: none; stroke: #000000; stroke-linejoin: miter"/>
   </g>
   <g id="patch_78">
    <path d="M 318.315789 507.891892 
Q 318.315789 525.405405 318.315789 525.405405 
" clip-path="url(#p38337e508d)" style="fill: none; stroke: #000000; stroke-linejoin: miter"/>
   </g>
   <g id="patch_79">
    <path d="M 386.526316 516.648649 
Q 363.789474 516.648649 363.789474 525.405405 
" clip-path="url(#p38337e508d)" style="fill: none; stroke: #000000; stroke-linejoin: miter"/>
   </g>
   <g id="patch_80">
    <path d="M 386.526316 516.648649 
Q 409.263158 516.648649 409.263158 525.405405 
" clip-path="url(#p38337e508d)" style="fill: none; stroke: #000000; stroke-linejoin: miter"/>
   </g>
   <g id="patch_81">
    <path d="M 363.789474 507.891892 
Q 363.789474 516.648649 386.526316 516.648649 
" clip-path="url(#p38337e508d)" style="fill: none; stroke: #000000; stroke-linejoin: miter"/>
   </g>
   <g id="patch_82">
    <path d="M 409.263158 507.891892 
Q 409.263158 516.648649 386.526316 516.648649 
" clip-path="url(#p38337e508d)" style="fill: none; stroke: #000000; stroke-linejoin: miter"/>
   </g>
   <g id="patch_83">
    <path d="M 409.263158 525.405405 
Q 409.263158 630.486486 409.263158 630.486486 
" clip-path="url(#p38337e508d)" style="fill: none; stroke: #000000; stroke-linejoin: miter"/>
   </g>
   <g id="patch_84">
    <path d="M 341.052632 534.162162 
Q 318.315789 534.162162 318.315789 542.918919 
" clip-path="url(#p38337e508d)" style="fill: none; stroke: #000000; stroke-linejoin: miter"/>
   </g>
   <g id="patch_85">
    <path d="M 341.052632 534.162162 
Q 363.789474 534.162162 363.789474 542.918919 
" clip-path="url(#p38337e508d)" style="fill: none; stroke: #000000; stroke-linejoin: miter"/>
   </g>
   <g id="patch_86">
    <path d="M 318.315789 525.405405 
Q 318.315789 534.162162 341.052632 534.162162 
" clip-path="url(#p38337e508d)" style="fill: none; stroke: #000000; stroke-linejoin: miter"/>
   </g>
   <g id="patch_87">
    <path d="M 363.789474 525.405405 
Q 363.789474 534.162162 341.052632 534.162162 
" clip-path="url(#p38337e508d)" style="fill: none; stroke: #000000; stroke-linejoin: miter"/>
   </g>
   <g id="patch_88">
    <path d="M 318.315789 542.918919 
Q 318.315789 564.810811 318.315789 564.810811 
" clip-path="url(#p38337e508d)" style="fill: none; stroke: #000000; stroke-linejoin: miter"/>
   </g>
   <g id="patch_89">
    <path d="M 363.789474 542.918919 
Q 363.789474 612.972973 363.789474 612.972973 
" clip-path="url(#p38337e508d)" style="fill: none; stroke: #000000; stroke-linejoin: miter"/>
   </g>
   <g id="patch_90">
    <path d="M 136.421053 556.054054 
Q 136.421053 582.324324 136.421053 582.324324 
" clip-path="url(#p38337e508d)" style="fill: none; stroke: #000000; stroke-linejoin: miter"/>
   </g>
   <g id="patch_91">
    <path d="M 113.684211 591.081081 
Q 113.684211 599.837838 113.684211 599.837838 
" clip-path="url(#p38337e508d)" style="fill: none; stroke: #000000; stroke-linejoin: miter"/>
   </g>
   <g id="patch_92">
    <path d="M 159.157895 591.081081 
Q 159.157895 612.972973 159.157895 612.972973 
" clip-path="url(#p38337e508d)" style="fill: none; stroke: #000000; stroke-linejoin: miter"/>
   </g>
   <g id="patch_93">
    <path d="M 113.684211 608.594595 
Q 113.684211 648 113.684211 648 
" clip-path="url(#p38337e508d)" style="fill: none; stroke: #000000; stroke-linejoin: miter"/>
   </g>
   <g id="patch_94">
    <path d="M 261.473684 621.72973 
Q 159.157895 621.72973 159.157895 630.486486 
" clip-path="url(#p38337e508d)" style="fill: none; stroke: #000000; stroke-linejoin: miter"/>
   </g>
   <g id="patch_95">
    <path d="M 261.473684 621.72973 
Q 363.789474 621.72973 363.789474 630.486486 
" clip-path="url(#p38337e508d)" style="fill: none; stroke: #000000; stroke-linejoin: miter"/>
   </g>
   <g id="patch_96">
    <path d="M 159.157895 612.972973 
Q 159.157895 621.72973 261.473684 621.72973 
" clip-path="url(#p38337e508d)" style="fill: none; stroke: #000000; stroke-linejoin: miter"/>
   </g>
   <g id="patch_97">
    <path d="M 363.789474 612.972973 
Q 363.789474 621.72973 261.473684 621.72973 
" clip-path="url(#p38337e508d)" style="fill: none; stroke: #000000; stroke-linejoin: miter"/>
   </g>
   <g id="patch_98">
    <path d="M 159.157895 630.486486 
Q 159.157895 648 159.157895 648 
" clip-path="url(#p38337e508d)" style="fill: none; stroke: #000000; stroke-linejoin: miter"/>
   </g>
   <g id="patch_99">
    <path d="M 386.526316 639.243243 
Q 363.789474 639.243243 363.789474 648 
" clip-path="url(#p38337e508d)" style="fill: none; stroke: #000000; stroke-linejoin: miter"/>
   </g>
   <g id="patch_100">
    <path d="M 386.526316 639.243243 
Q 409.263158 639.243243 409.263158 648 
" clip-path="url(#p38337e508d)" style="fill: none; stroke: #000000; stroke-linejoin: miter"/>
   </g>
   <g id="patch_101">
    <path d="M 363.789474 630.486486 
Q 363.789474 639.243243 386.526316 639.243243 
" clip-path="url(#p38337e508d)" style="fill: none; stroke: #000000; stroke-linejoin: miter"/>
   </g>
   <g id="patch_102">
    <path d="M 409.263158 630.486486 
Q 409.263158 639.243243 386.526316 639.243243 
" clip-path="url(#p38337e508d)" style="fill: none; stroke: #000000; stroke-linejoin: miter"/>
   </g>
   <g id="patch_103">
    <path d="M 125.052632 13.135135 
L 125.052632 4.378378 
L 147.789474 4.378378 
L 147.789474 13.135135 
z
" clip-path="url(#p38337e508d)" style="fill: #ffffff; stroke: #000000; stroke-linejoin: miter"/>
   </g>
   <g id="patch_104">
    <path d="M 193.263158 30.648649 
L 193.263158 21.891892 
L 216 21.891892 
L 216 30.648649 
z
" clip-path="url(#p38337e508d)" style="fill: #ffffff; stroke: #000000; stroke-linejoin: miter"/>
   </g>
   <g id="patch_105">
    <path d="M 261.473684 48.162162 
L 261.473684 39.405405 
L 284.210526 39.405405 
L 284.210526 48.162162 
z
" clip-path="url(#p38337e508d)" style="fill: #ffffff; stroke: #000000; stroke-linejoin: miter"/>
   </g>
   <g id="patch_106">
    <path d="M 306.947368 65.675676 
L 306.947368 56.918919 
L 329.684211 56.918919 
L 329.684211 65.675676 
z
" clip-path="url(#p38337e508d)" style="fill: #ffffff; stroke: #000000; stroke-linejoin: miter"/>
   </g>
   <g id="patch_107">
    <path d="M 352.421053 83.189189 
L 352.421053 74.432432 
L 375.157895 74.432432 
L 375.157895 83.189189 
z
" clip-path="url(#p38337e508d)" style="fill: #ffffff; stroke: #000000; stroke-linejoin: miter"/>
   </g>
   <g id="patch_108">
    <path d="M 397.894737 100.702703 
L 397.894737 91.945946 
L 420.631579 91.945946 
L 420.631579 100.702703 
z
" clip-path="url(#p38337e508d)" style="fill: #ffffff; stroke: #000000; stroke-linejoin: miter"/>
   </g>
   <g id="patch_109">
    <path d="M 125.052632 118.216216 
L 125.052632 109.459459 
L 147.789474 109.459459 
L 147.789474 118.216216 
z
" clip-path="url(#p38337e508d)" style="fill: #f7f700; stroke: #000000; stroke-linejoin: miter"/>
   </g>
   <g id="patch_110">
    <path d="M 216 170.756757 
L 216 162 
L 238.736842 162 
L 238.736842 170.756757 
z
" clip-path="url(#p38337e508d)" style="fill: #ffffff; stroke: #000000; stroke-linejoin: miter"/>
   </g>
   <g id="patch_111">
    <path d="M 34.105263 223.297297 
L 34.105263 214.540541 
L 56.842105 214.540541 
L 56.842105 223.297297 
z
" clip-path="url(#p38337e508d)" style="fill: #ffffff; stroke: #000000; stroke-linejoin: miter"/>
   </g>
   <g id="patch_112">
    <path d="M 38.652632 220.67027 
Q 38.652632 217.167568 45.473684 217.167568 
" clip-path="url(#p38337e508d)" style="fill: none; stroke: #000000; stroke-linejoin: miter"/>
   </g>
   <g id="patch_113">
    <path d="M 45.473684 217.167568 
Q 52.294737 217.167568 52.294737 220.67027 
" clip-path="url(#p38337e508d)" style="fill: none; stroke: #000000; stroke-linejoin: miter"/>
   </g>
   <g id="patch_114">
    <path d="M 48.014912 215.77669 
L 48.193275 216.326239 
L 47.769664 216.293609 
L 45.49598 220.671988 
L 45.451389 220.668553 
L 47.725073 216.290175 
L 47.301462 216.257545 
z
" clip-path="url(#p38337e508d)" style="stroke: #000000; stroke-linejoin: miter"/>
   </g>
   <g id="patch_115">
    <path d="M 170.526316 232.054054 
Q 170.526316 232.054054 193.263158 232.054054 
" clip-path="url(#p38337e508d)" style="fill: none; stroke: #000000; stroke-linejoin: miter"/>
   </g>
   <g id="patch_116">
    <path d="M 175.073684 233.805405 
Q 175.073684 233.805405 188.715789 233.805405 
" clip-path="url(#p38337e508d)" style="fill: none; stroke: #000000; stroke-linejoin: miter"/>
   </g>
   <g id="patch_117">
    <path d="M 179.621053 235.556757 
Q 179.621053 235.556757 184.168421 235.556757 
" clip-path="url(#p38337e508d)" style="fill: none; stroke: #000000; stroke-linejoin: miter"/>
   </g>
   <g id="patch_118">
    <path d="M 11.368421 258.324324 
L 11.368421 249.567568 
L 147.789474 249.567568 
L 147.789474 258.324324 
z
" clip-path="url(#p38337e508d)" style="fill: #ffffff; stroke: #000000; stroke-linejoin: miter"/>
   </g>
   <g id="patch_119">
    <path d="M 11.368421 275.837838 
L 11.368421 267.081081 
L 34.105263 267.081081 
L 34.105263 275.837838 
z
" clip-path="url(#p38337e508d)" style="fill: #ffffff; stroke: #000000; stroke-linejoin: miter"/>
   </g>
   <g id="patch_120">
    <path d="M 15.915789 273.210811 
Q 15.915789 269.708108 22.736842 269.708108 
" clip-path="url(#p38337e508d)" style="fill: none; stroke: #000000; stroke-linejoin: miter"/>
   </g>
   <g id="patch_121">
    <path d="M 22.736842 269.708108 
Q 29.557895 269.708108 29.557895 273.210811 
" clip-path="url(#p38337e508d)" style="fill: none; stroke: #000000; stroke-linejoin: miter"/>
   </g>
   <g id="patch_122">
    <path d="M 25.27807 268.31723 
L 25.456432 268.866779 
L 25.032822 268.83415 
L 22.759137 273.212528 
L 22.714547 273.209093 
L 24.988231 268.830715 
L 24.56462 268.798086 
z
" clip-path="url(#p38337e508d)" style="stroke: #000000; stroke-linejoin: miter"/>
   </g>
   <g id="patch_123">
    <path d="M 250.105263 363.405405 
L 250.105263 354.648649 
L 272.842105 354.648649 
L 272.842105 363.405405 
z
" clip-path="url(#p38337e508d)" style="fill: #ffffff; stroke: #000000; stroke-linejoin: miter"/>
   </g>
   <g id="patch_124">
    <path d="M 79.578947 415.945946 
L 79.578947 407.189189 
L 102.315789 407.189189 
L 102.315789 415.945946 
z
" clip-path="url(#p38337e508d)" style="fill: #ffffff; stroke: #000000; stroke-linejoin: miter"/>
   </g>
   <g id="patch_125">
    <path d="M 84.126316 413.318919 
Q 84.126316 409.816216 90.947368 409.816216 
" clip-path="url(#p38337e508d)" style="fill: none; stroke: #000000; stroke-linejoin: miter"/>
   </g>
   <g id="patch_126">
    <path d="M 90.947368 409.816216 
Q 97.768421 409.816216 97.768421 413.318919 
" clip-path="url(#p38337e508d)" style="fill: none; stroke: #000000; stroke-linejoin: miter"/>
   </g>
   <g id="patch_127">
    <path d="M 93.488596 408.425338 
L 93.666959 408.974887 
L 93.243348 408.942258 
L 90.969664 413.320636 
L 90.925073 413.317202 
L 93.198757 408.938823 
L 92.775146 408.906194 
z
" clip-path="url(#p38337e508d)" style="stroke: #000000; stroke-linejoin: miter"/>
   </g>
   <g id="patch_128">
    <path d="M 204.631579 424.702703 
Q 204.631579 424.702703 227.368421 424.702703 
" clip-path="url(#p38337e508d)" style="fill: none; stroke: #000000; stroke-linejoin: miter"/>
   </g>
   <g id="patch_129">
    <path d="M 209.178947 426.454054 
Q 209.178947 426.454054 222.821053 426.454054 
" clip-path="url(#p38337e508d)" style="fill: none; stroke: #000000; stroke-linejoin: miter"/>
   </g>
   <g id="patch_130">
    <path d="M 213.726316 428.205405 
Q 213.726316 428.205405 218.273684 428.205405 
" clip-path="url(#p38337e508d)" style="fill: none; stroke: #000000; stroke-linejoin: miter"/>
   </g>
   <g id="patch_131">
    <path d="M 56.842105 450.972973 
L 56.842105 442.216216 
L 147.789474 442.216216 
L 147.789474 450.972973 
z
" clip-path="url(#p38337e508d)" style="fill: #ffffff; stroke: #000000; stroke-linejoin: miter"/>
   </g>
   <g id="patch_132">
    <path d="M 56.842105 468.486486 
L 56.842105 459.72973 
L 79.578947 459.72973 
L 79.578947 468.486486 
z
" clip-path="url(#p38337e508d)" style="fill: #ffffff; stroke: #000000; stroke-linejoin: miter"/>
   </g>
   <g id="patch_133">
    <path d="M 61.389474 465.859459 
Q 61.389474 462.356757 68.210526 462.356757 
" clip-path="url(#p38337e508d)" style="fill: none; stroke: #000000; stroke-linejoin: miter"/>
   </g>
   <g id="patch_134">
    <path d="M 68.210526 462.356757 
Q 75.031579 462.356757 75.031579 465.859459 
" clip-path="url(#p38337e508d)" style="fill: none; stroke: #000000; stroke-linejoin: miter"/>
   </g>
   <g id="patch_135">
    <path d="M 70.751754 460.965879 
L 70.930117 461.515428 
L 70.506506 461.482798 
L 68.232822 465.861177 
L 68.188231 465.857742 
L 70.461915 461.479364 
L 70.038304 461.446734 
z
" clip-path="url(#p38337e508d)" style="stroke: #000000; stroke-linejoin: miter"/>
   </g>
   <g id="patch_136">
    <path d="M 125.052632 556.054054 
L 125.052632 547.297297 
L 147.789474 547.297297 
L 147.789474 556.054054 
z
" clip-path="url(#p38337e508d)" style="fill: #ffffff; stroke: #000000; stroke-linejoin: miter"/>
   </g>
   <g id="patch_137">
    <path d="M 129.6 553.427027 
Q 129.6 549.924324 136.421053 549.924324 
" clip-path="url(#p38337e508d)" style="fill: none; stroke: #000000; stroke-linejoin: miter"/>
   </g>
   <g id="patch_138">
    <path d="M 136.421053 549.924324 
Q 143.242105 549.924324 143.242105 553.427027 
" clip-path="url(#p38337e508d)" style="fill: none; stroke: #000000; stroke-linejoin: miter"/>
   </g>
   <g id="patch_139">
    <path d="M 138.962281 548.533446 
L 139.140643 549.082995 
L 138.717032 549.050366 
L 136.443348 553.428744 
L 136.398757 553.42531 
L 138.672442 549.046931 
L 138.248831 549.014302 
z
" clip-path="url(#p38337e508d)" style="stroke: #000000; stroke-linejoin: miter"/>
   </g>
   <g id="patch_140">
    <path d="M 306.947368 564.810811 
Q 306.947368 564.810811 329.684211 564.810811 
" clip-path="url(#p38337e508d)" style="fill: none; stroke: #000000; stroke-linejoin: miter"/>
   </g>
   <g id="patch_141">
    <path d="M 311.494737 566.562162 
Q 311.494737 566.562162 325.136842 566.562162 
" clip-path="url(#p38337e508d)" style="fill: none; stroke: #000000; stroke-linejoin: miter"/>
   </g>
   <g id="patch_142">
    <path d="M 316.042105 568.313514 
Q 316.042105 568.313514 320.589474 568.313514 
" clip-path="url(#p38337e508d)" style="fill: none; stroke: #000000; stroke-linejoin: miter"/>
   </g>
   <g id="patch_143">
    <path d="M 102.315789 591.081081 
L 102.315789 582.324324 
L 170.526316 582.324324 
L 170.526316 591.081081 
z
" clip-path="url(#p38337e508d)" style="fill: #ffffff; stroke: #000000; stroke-linejoin: miter"/>
   </g>
   <g id="patch_144">
    <path d="M 102.315789 608.594595 
L 102.315789 599.837838 
L 125.052632 599.837838 
L 125.052632 608.594595 
z
" clip-path="url(#p38337e508d)" style="fill: #ffffff; stroke: #000000; stroke-linejoin: miter"/>
   </g>
   <g id="patch_145">
    <path d="M 106.863158 605.967568 
Q 106.863158 602.464865 113.684211 602.464865 
" clip-path="url(#p38337e508d)" style="fill: none; stroke: #000000; stroke-linejoin: miter"/>
   </g>
   <g id="patch_146">
    <path d="M 113.684211 602.464865 
Q 120.505263 602.464865 120.505263 605.967568 
" clip-path="url(#p38337e508d)" style="fill: none; stroke: #000000; stroke-linejoin: miter"/>
   </g>
   <g id="patch_147">
    <path d="M 116.225438 601.073987 
L 116.403801 601.623536 
L 115.98019 601.590907 
L 113.706506 605.969285 
L 113.661915 605.96585 
L 115.935599 601.587472 
L 115.511989 601.554842 
z
" clip-path="url(#p38337e508d)" style="stroke: #000000; stroke-linejoin: miter"/>
   </g>
   <g id="PathCollection_1">
    <defs>
     <path id="C0_0_6efb6de808" d="M 0 3.507136 
C 0.930103 3.507136 1.822237 3.137602 2.479919 2.479919 
C 3.137602 1.822237 3.507136 0.930103 3.507136 -0 
C 3.507136 -0.930103 3.137602 -1.822237 2.479919 -2.479919 
C 1.822237 -3.137602 0.930103 -3.507136 0 -3.507136 
C -0.930103 -3.507136 -1.822237 -3.137602 -2.479919 -2.479919 
C -3.137602 -1.822237 -3.507136 -0.930103 -3.507136 0 
C -3.507136 0.930103 -3.137602 1.822237 -2.479919 2.479919 
C -1.822237 3.137602 -0.930103 3.507136 0 3.507136 
z
"/>
    </defs>
    <g clip-path="url(#p38337e508d)">
     <use xlink:href="#C0_0_6efb6de808" x="136.421053" y="324" style="fill: #d8f8d8; stroke: #d8f8d8"/>
    </g>
    <g clip-path="url(#p38337e508d)">
     <use xlink:href="#C0_0_6efb6de808" x="181.894737" y="148.864865" style="fill: #e8a5a5; stroke: #e8a5a5"/>
    </g>
    <g clip-path="url(#p38337e508d)">
     <use xlink:href="#C0_0_6efb6de808" x="216" y="341.513514" style="fill: #e8a5a5; stroke: #e8a5a5"/>
    </g>
    <g clip-path="url(#p38337e508d)">
     <use xlink:href="#C0_0_6efb6de808" x="136.421053" y="131.351351" style="fill: #d8f8d8; stroke: #d8f8d8"/>
    </g>
   </g>
   <g id="text_1">
    <!-- qubit -->
    <g transform="translate(139.263158 21.828167) scale(0.1 -0.1)">
     <defs>
      <path id="DejaVuSans-71" d="M 947 1747 
Q 947 1113 1208 752 
Q 1469 391 1925 391 
Q 2381 391 2643 752 
Q 2906 1113 2906 1747 
Q 2906 2381 2643 2742 
Q 2381 3103 1925 3103 
Q 1469 3103 1208 2742 
Q 947 2381 947 1747 
z
M 2906 525 
Q 2725 213 2448 61 
Q 2172 -91 1784 -91 
Q 1150 -91 751 415 
Q 353 922 353 1747 
Q 353 2572 751 3078 
Q 1150 3584 1784 3584 
Q 2172 3584 2448 3432 
Q 2725 3281 2906 2969 
L 2906 3500 
L 3481 3500 
L 3481 -1331 
L 2906 -1331 
L 2906 525 
z
" transform="scale(0.015625)"/>
      <path id="DejaVuSans-75" d="M 544 1381 
L 544 3500 
L 1119 3500 
L 1119 1403 
Q 1119 906 1312 657 
Q 1506 409 1894 409 
Q 2359 409 2629 706 
Q 2900 1003 2900 1516 
L 2900 3500 
L 3475 3500 
L 3475 0 
L 2900 0 
L 2900 538 
Q 2691 219 2414 64 
Q 2138 -91 1772 -91 
Q 1169 -91 856 284 
Q 544 659 544 1381 
z
M 1991 3584 
L 1991 3584 
z
" transform="scale(0.015625)"/>
      <path id="DejaVuSans-62" d="M 3116 1747 
Q 3116 2381 2855 2742 
Q 2594 3103 2138 3103 
Q 1681 3103 1420 2742 
Q 1159 2381 1159 1747 
Q 1159 1113 1420 752 
Q 1681 391 2138 391 
Q 2594 391 2855 752 
Q 3116 1113 3116 1747 
z
M 1159 2969 
Q 1341 3281 1617 3432 
Q 1894 3584 2278 3584 
Q 2916 3584 3314 3078 
Q 3713 2572 3713 1747 
Q 3713 922 3314 415 
Q 2916 -91 2278 -91 
Q 1894 -91 1617 61 
Q 1341 213 1159 525 
L 1159 0 
L 581 0 
L 581 4863 
L 1159 4863 
L 1159 2969 
z
" transform="scale(0.015625)"/>
      <path id="DejaVuSans-69" d="M 603 3500 
L 1178 3500 
L 1178 0 
L 603 0 
L 603 3500 
z
M 603 4863 
L 1178 4863 
L 1178 4134 
L 603 4134 
L 603 4863 
z
" transform="scale(0.015625)"/>
      <path id="DejaVuSans-74" d="M 1172 4494 
L 1172 3500 
L 2356 3500 
L 2356 3053 
L 1172 3053 
L 1172 1153 
Q 1172 725 1289 603 
Q 1406 481 1766 481 
L 2356 481 
L 2356 0 
L 1766 0 
Q 1100 0 847 248 
Q 594 497 594 1153 
L 594 3053 
L 172 3053 
L 172 3500 
L 594 3500 
L 594 4494 
L 1172 4494 
z
" transform="scale(0.015625)"/>
     </defs>
     <use xlink:href="#DejaVuSans-71"/>
     <use xlink:href="#DejaVuSans-75" transform="translate(63.476562 0)"/>
     <use xlink:href="#DejaVuSans-62" transform="translate(126.855469 0)"/>
     <use xlink:href="#DejaVuSans-69" transform="translate(190.332031 0)"/>
     <use xlink:href="#DejaVuSans-74" transform="translate(218.115234 0)"/>
    </g>
   </g>
   <g id="text_2">
    <!-- qubit -->
    <g transform="translate(207.473684 39.341681) scale(0.1 -0.1)">
     <use xlink:href="#DejaVuSans-71"/>
     <use xlink:href="#DejaVuSans-75" transform="translate(63.476562 0)"/>
     <use xlink:href="#DejaVuSans-62" transform="translate(126.855469 0)"/>
     <use xlink:href="#DejaVuSans-69" transform="translate(190.332031 0)"/>
     <use xlink:href="#DejaVuSans-74" transform="translate(218.115234 0)"/>
    </g>
   </g>
   <g id="text_3">
    <!-- qubit -->
    <g transform="translate(275.684211 56.855194) scale(0.1 -0.1)">
     <use xlink:href="#DejaVuSans-71"/>
     <use xlink:href="#DejaVuSans-75" transform="translate(63.476562 0)"/>
     <use xlink:href="#DejaVuSans-62" transform="translate(126.855469 0)"/>
     <use xlink:href="#DejaVuSans-69" transform="translate(190.332031 0)"/>
     <use xlink:href="#DejaVuSans-74" transform="translate(218.115234 0)"/>
    </g>
   </g>
   <g id="text_4">
    <!-- bit -->
    <g transform="translate(321.157895 74.368708) scale(0.1 -0.1)">
     <use xlink:href="#DejaVuSans-62"/>
     <use xlink:href="#DejaVuSans-69" transform="translate(63.476562 0)"/>
     <use xlink:href="#DejaVuSans-74" transform="translate(91.259766 0)"/>
    </g>
   </g>
   <g id="text_5">
    <!-- bit -->
    <g transform="translate(366.631579 91.882221) scale(0.1 -0.1)">
     <use xlink:href="#DejaVuSans-62"/>
     <use xlink:href="#DejaVuSans-69" transform="translate(63.476562 0)"/>
     <use xlink:href="#DejaVuSans-74" transform="translate(91.259766 0)"/>
    </g>
   </g>
   <g id="text_6">
    <!-- bit -->
    <g transform="translate(412.105263 109.395735) scale(0.1 -0.1)">
     <use xlink:href="#DejaVuSans-62"/>
     <use xlink:href="#DejaVuSans-69" transform="translate(63.476562 0)"/>
     <use xlink:href="#DejaVuSans-74" transform="translate(91.259766 0)"/>
    </g>
   </g>
   <g id="text_7">
    <!-- qubit -->
    <g transform="translate(139.263158 126.909248) scale(0.1 -0.1)">
     <use xlink:href="#DejaVuSans-71"/>
     <use xlink:href="#DejaVuSans-75" transform="translate(63.476562 0)"/>
     <use xlink:href="#DejaVuSans-62" transform="translate(126.855469 0)"/>
     <use xlink:href="#DejaVuSans-69" transform="translate(190.332031 0)"/>
     <use xlink:href="#DejaVuSans-74" transform="translate(218.115234 0)"/>
    </g>
   </g>
   <g id="text_8">
    <!-- qubit -->
    <g transform="translate(48.315789 144.422762) scale(0.1 -0.1)">
     <use xlink:href="#DejaVuSans-71"/>
     <use xlink:href="#DejaVuSans-75" transform="translate(63.476562 0)"/>
     <use xlink:href="#DejaVuSans-62" transform="translate(126.855469 0)"/>
     <use xlink:href="#DejaVuSans-69" transform="translate(190.332031 0)"/>
     <use xlink:href="#DejaVuSans-74" transform="translate(218.115234 0)"/>
    </g>
   </g>
   <g id="text_9">
    <!-- qubit -->
    <g transform="translate(162 144.422762) scale(0.1 -0.1)">
     <use xlink:href="#DejaVuSans-71"/>
     <use xlink:href="#DejaVuSans-75" transform="translate(63.476562 0)"/>
     <use xlink:href="#DejaVuSans-62" transform="translate(126.855469 0)"/>
     <use xlink:href="#DejaVuSans-69" transform="translate(190.332031 0)"/>
     <use xlink:href="#DejaVuSans-74" transform="translate(218.115234 0)"/>
    </g>
   </g>
   <g id="text_10">
    <!-- qubit -->
    <g transform="translate(184.736842 161.936275) scale(0.1 -0.1)">
     <use xlink:href="#DejaVuSans-71"/>
     <use xlink:href="#DejaVuSans-75" transform="translate(63.476562 0)"/>
     <use xlink:href="#DejaVuSans-62" transform="translate(126.855469 0)"/>
     <use xlink:href="#DejaVuSans-69" transform="translate(190.332031 0)"/>
     <use xlink:href="#DejaVuSans-74" transform="translate(218.115234 0)"/>
    </g>
   </g>
   <g id="text_11">
    <!-- bit -->
    <g transform="translate(275.684211 196.963302) scale(0.1 -0.1)">
     <use xlink:href="#DejaVuSans-62"/>
     <use xlink:href="#DejaVuSans-69" transform="translate(63.476562 0)"/>
     <use xlink:href="#DejaVuSans-74" transform="translate(91.259766 0)"/>
    </g>
   </g>
   <g id="text_12">
    <!-- qubit -->
    <g transform="translate(321.157895 196.963302) scale(0.1 -0.1)">
     <use xlink:href="#DejaVuSans-71"/>
     <use xlink:href="#DejaVuSans-75" transform="translate(63.476562 0)"/>
     <use xlink:href="#DejaVuSans-62" transform="translate(126.855469 0)"/>
     <use xlink:href="#DejaVuSans-69" transform="translate(190.332031 0)"/>
     <use xlink:href="#DejaVuSans-74" transform="translate(218.115234 0)"/>
    </g>
   </g>
   <g id="text_13">
    <!-- bit -->
    <g transform="translate(184.736842 214.476816) scale(0.1 -0.1)">
     <use xlink:href="#DejaVuSans-62"/>
     <use xlink:href="#DejaVuSans-69" transform="translate(63.476562 0)"/>
     <use xlink:href="#DejaVuSans-74" transform="translate(91.259766 0)"/>
    </g>
   </g>
   <g id="text_14">
    <!-- qubit -->
    <g transform="translate(275.684211 214.476816) scale(0.1 -0.1)">
     <use xlink:href="#DejaVuSans-71"/>
     <use xlink:href="#DejaVuSans-75" transform="translate(63.476562 0)"/>
     <use xlink:href="#DejaVuSans-62" transform="translate(126.855469 0)"/>
     <use xlink:href="#DejaVuSans-69" transform="translate(190.332031 0)"/>
     <use xlink:href="#DejaVuSans-74" transform="translate(218.115234 0)"/>
    </g>
   </g>
   <g id="text_15">
    <!-- bit -->
    <g transform="translate(48.315789 231.990329) scale(0.1 -0.1)">
     <use xlink:href="#DejaVuSans-62"/>
     <use xlink:href="#DejaVuSans-69" transform="translate(63.476562 0)"/>
     <use xlink:href="#DejaVuSans-74" transform="translate(91.259766 0)"/>
    </g>
   </g>
   <g id="text_16">
    <!-- bit -->
    <g transform="translate(25.578947 267.017356) scale(0.1 -0.1)">
     <use xlink:href="#DejaVuSans-62"/>
     <use xlink:href="#DejaVuSans-69" transform="translate(63.476562 0)"/>
     <use xlink:href="#DejaVuSans-74" transform="translate(91.259766 0)"/>
    </g>
   </g>
   <g id="text_17">
    <!-- bit -->
    <g transform="translate(139.263158 267.017356) scale(0.1 -0.1)">
     <use xlink:href="#DejaVuSans-62"/>
     <use xlink:href="#DejaVuSans-69" transform="translate(63.476562 0)"/>
     <use xlink:href="#DejaVuSans-74" transform="translate(91.259766 0)"/>
    </g>
   </g>
   <g id="text_18">
    <!-- qubit -->
    <g transform="translate(25.578947 284.53087) scale(0.1 -0.1)">
     <use xlink:href="#DejaVuSans-71"/>
     <use xlink:href="#DejaVuSans-75" transform="translate(63.476562 0)"/>
     <use xlink:href="#DejaVuSans-62" transform="translate(126.855469 0)"/>
     <use xlink:href="#DejaVuSans-69" transform="translate(190.332031 0)"/>
     <use xlink:href="#DejaVuSans-74" transform="translate(218.115234 0)"/>
    </g>
   </g>
   <g id="text_19">
    <!-- qubit -->
    <g transform="translate(139.263158 302.044383) scale(0.1 -0.1)">
     <use xlink:href="#DejaVuSans-71"/>
     <use xlink:href="#DejaVuSans-75" transform="translate(63.476562 0)"/>
     <use xlink:href="#DejaVuSans-62" transform="translate(126.855469 0)"/>
     <use xlink:href="#DejaVuSans-69" transform="translate(190.332031 0)"/>
     <use xlink:href="#DejaVuSans-74" transform="translate(218.115234 0)"/>
    </g>
   </g>
   <g id="text_20">
    <!-- bit -->
    <g transform="translate(275.684211 302.044383) scale(0.1 -0.1)">
     <use xlink:href="#DejaVuSans-62"/>
     <use xlink:href="#DejaVuSans-69" transform="translate(63.476562 0)"/>
     <use xlink:href="#DejaVuSans-74" transform="translate(91.259766 0)"/>
    </g>
   </g>
   <g id="text_21">
    <!-- qubit -->
    <g transform="translate(275.684211 319.557897) scale(0.1 -0.1)">
     <use xlink:href="#DejaVuSans-71"/>
     <use xlink:href="#DejaVuSans-75" transform="translate(63.476562 0)"/>
     <use xlink:href="#DejaVuSans-62" transform="translate(126.855469 0)"/>
     <use xlink:href="#DejaVuSans-69" transform="translate(190.332031 0)"/>
     <use xlink:href="#DejaVuSans-74" transform="translate(218.115234 0)"/>
    </g>
   </g>
   <g id="text_22">
    <!-- bit -->
    <g transform="translate(321.157895 319.557897) scale(0.1 -0.1)">
     <use xlink:href="#DejaVuSans-62"/>
     <use xlink:href="#DejaVuSans-69" transform="translate(63.476562 0)"/>
     <use xlink:href="#DejaVuSans-74" transform="translate(91.259766 0)"/>
    </g>
   </g>
   <g id="text_23">
    <!-- qubit -->
    <g transform="translate(93.789474 337.07141) scale(0.1 -0.1)">
     <use xlink:href="#DejaVuSans-71"/>
     <use xlink:href="#DejaVuSans-75" transform="translate(63.476562 0)"/>
     <use xlink:href="#DejaVuSans-62" transform="translate(126.855469 0)"/>
     <use xlink:href="#DejaVuSans-69" transform="translate(190.332031 0)"/>
     <use xlink:href="#DejaVuSans-74" transform="translate(218.115234 0)"/>
    </g>
   </g>
   <g id="text_24">
    <!-- qubit -->
    <g transform="translate(162 337.07141) scale(0.1 -0.1)">
     <use xlink:href="#DejaVuSans-71"/>
     <use xlink:href="#DejaVuSans-75" transform="translate(63.476562 0)"/>
     <use xlink:href="#DejaVuSans-62" transform="translate(126.855469 0)"/>
     <use xlink:href="#DejaVuSans-69" transform="translate(190.332031 0)"/>
     <use xlink:href="#DejaVuSans-74" transform="translate(218.115234 0)"/>
    </g>
   </g>
   <g id="text_25">
    <!-- qubit -->
    <g transform="translate(218.842105 354.584924) scale(0.1 -0.1)">
     <use xlink:href="#DejaVuSans-71"/>
     <use xlink:href="#DejaVuSans-75" transform="translate(63.476562 0)"/>
     <use xlink:href="#DejaVuSans-62" transform="translate(126.855469 0)"/>
     <use xlink:href="#DejaVuSans-69" transform="translate(190.332031 0)"/>
     <use xlink:href="#DejaVuSans-74" transform="translate(218.115234 0)"/>
    </g>
   </g>
   <g id="text_26">
    <!-- bit -->
    <g transform="translate(321.157895 389.611951) scale(0.1 -0.1)">
     <use xlink:href="#DejaVuSans-62"/>
     <use xlink:href="#DejaVuSans-69" transform="translate(63.476562 0)"/>
     <use xlink:href="#DejaVuSans-74" transform="translate(91.259766 0)"/>
    </g>
   </g>
   <g id="text_27">
    <!-- bit -->
    <g transform="translate(366.631579 389.611951) scale(0.1 -0.1)">
     <use xlink:href="#DejaVuSans-62"/>
     <use xlink:href="#DejaVuSans-69" transform="translate(63.476562 0)"/>
     <use xlink:href="#DejaVuSans-74" transform="translate(91.259766 0)"/>
    </g>
   </g>
   <g id="text_28">
    <!-- bit -->
    <g transform="translate(218.842105 407.125465) scale(0.1 -0.1)">
     <use xlink:href="#DejaVuSans-62"/>
     <use xlink:href="#DejaVuSans-69" transform="translate(63.476562 0)"/>
     <use xlink:href="#DejaVuSans-74" transform="translate(91.259766 0)"/>
    </g>
   </g>
   <g id="text_29">
    <!-- qubit -->
    <g transform="translate(321.157895 407.125465) scale(0.1 -0.1)">
     <use xlink:href="#DejaVuSans-71"/>
     <use xlink:href="#DejaVuSans-75" transform="translate(63.476562 0)"/>
     <use xlink:href="#DejaVuSans-62" transform="translate(126.855469 0)"/>
     <use xlink:href="#DejaVuSans-69" transform="translate(190.332031 0)"/>
     <use xlink:href="#DejaVuSans-74" transform="translate(218.115234 0)"/>
    </g>
   </g>
   <g id="text_30">
    <!-- bit -->
    <g transform="translate(93.789474 424.638978) scale(0.1 -0.1)">
     <use xlink:href="#DejaVuSans-62"/>
     <use xlink:href="#DejaVuSans-69" transform="translate(63.476562 0)"/>
     <use xlink:href="#DejaVuSans-74" transform="translate(91.259766 0)"/>
    </g>
   </g>
   <g id="text_31">
    <!-- bit -->
    <g transform="translate(71.052632 459.666005) scale(0.1 -0.1)">
     <use xlink:href="#DejaVuSans-62"/>
     <use xlink:href="#DejaVuSans-69" transform="translate(63.476562 0)"/>
     <use xlink:href="#DejaVuSans-74" transform="translate(91.259766 0)"/>
    </g>
   </g>
   <g id="text_32">
    <!-- bit -->
    <g transform="translate(139.263158 459.666005) scale(0.1 -0.1)">
     <use xlink:href="#DejaVuSans-62"/>
     <use xlink:href="#DejaVuSans-69" transform="translate(63.476562 0)"/>
     <use xlink:href="#DejaVuSans-74" transform="translate(91.259766 0)"/>
    </g>
   </g>
   <g id="text_33">
    <!-- qubit -->
    <g transform="translate(71.052632 477.179519) scale(0.1 -0.1)">
     <use xlink:href="#DejaVuSans-71"/>
     <use xlink:href="#DejaVuSans-75" transform="translate(63.476562 0)"/>
     <use xlink:href="#DejaVuSans-62" transform="translate(126.855469 0)"/>
     <use xlink:href="#DejaVuSans-69" transform="translate(190.332031 0)"/>
     <use xlink:href="#DejaVuSans-74" transform="translate(218.115234 0)"/>
    </g>
   </g>
   <g id="text_34">
    <!-- qubit -->
    <g transform="translate(139.263158 494.693032) scale(0.1 -0.1)">
     <use xlink:href="#DejaVuSans-71"/>
     <use xlink:href="#DejaVuSans-75" transform="translate(63.476562 0)"/>
     <use xlink:href="#DejaVuSans-62" transform="translate(126.855469 0)"/>
     <use xlink:href="#DejaVuSans-69" transform="translate(190.332031 0)"/>
     <use xlink:href="#DejaVuSans-74" transform="translate(218.115234 0)"/>
    </g>
   </g>
   <g id="text_35">
    <!-- bit -->
    <g transform="translate(321.157895 494.693032) scale(0.1 -0.1)">
     <use xlink:href="#DejaVuSans-62"/>
     <use xlink:href="#DejaVuSans-69" transform="translate(63.476562 0)"/>
     <use xlink:href="#DejaVuSans-74" transform="translate(91.259766 0)"/>
    </g>
   </g>
   <g id="text_36">
    <!-- bit -->
    <g transform="translate(321.157895 512.206546) scale(0.1 -0.1)">
     <use xlink:href="#DejaVuSans-62"/>
     <use xlink:href="#DejaVuSans-69" transform="translate(63.476562 0)"/>
     <use xlink:href="#DejaVuSans-74" transform="translate(91.259766 0)"/>
    </g>
   </g>
   <g id="text_37">
    <!-- bit -->
    <g transform="translate(366.631579 512.206546) scale(0.1 -0.1)">
     <use xlink:href="#DejaVuSans-62"/>
     <use xlink:href="#DejaVuSans-69" transform="translate(63.476562 0)"/>
     <use xlink:href="#DejaVuSans-74" transform="translate(91.259766 0)"/>
    </g>
   </g>
   <g id="text_38">
    <!-- bit -->
    <g transform="translate(366.631579 529.720059) scale(0.1 -0.1)">
     <use xlink:href="#DejaVuSans-62"/>
     <use xlink:href="#DejaVuSans-69" transform="translate(63.476562 0)"/>
     <use xlink:href="#DejaVuSans-74" transform="translate(91.259766 0)"/>
    </g>
   </g>
   <g id="text_39">
    <!-- bit -->
    <g transform="translate(412.105263 529.720059) scale(0.1 -0.1)">
     <use xlink:href="#DejaVuSans-62"/>
     <use xlink:href="#DejaVuSans-69" transform="translate(63.476562 0)"/>
     <use xlink:href="#DejaVuSans-74" transform="translate(91.259766 0)"/>
    </g>
   </g>
   <g id="text_40">
    <!-- bit -->
    <g transform="translate(321.157895 547.233573) scale(0.1 -0.1)">
     <use xlink:href="#DejaVuSans-62"/>
     <use xlink:href="#DejaVuSans-69" transform="translate(63.476562 0)"/>
     <use xlink:href="#DejaVuSans-74" transform="translate(91.259766 0)"/>
    </g>
   </g>
   <g id="text_41">
    <!-- bit -->
    <g transform="translate(366.631579 547.233573) scale(0.1 -0.1)">
     <use xlink:href="#DejaVuSans-62"/>
     <use xlink:href="#DejaVuSans-69" transform="translate(63.476562 0)"/>
     <use xlink:href="#DejaVuSans-74" transform="translate(91.259766 0)"/>
    </g>
   </g>
   <g id="text_42">
    <!-- bit -->
    <g transform="translate(139.263158 564.747086) scale(0.1 -0.1)">
     <use xlink:href="#DejaVuSans-62"/>
     <use xlink:href="#DejaVuSans-69" transform="translate(63.476562 0)"/>
     <use xlink:href="#DejaVuSans-74" transform="translate(91.259766 0)"/>
    </g>
   </g>
   <g id="text_43">
    <!-- bit -->
    <g transform="translate(116.526316 599.774113) scale(0.1 -0.1)">
     <use xlink:href="#DejaVuSans-62"/>
     <use xlink:href="#DejaVuSans-69" transform="translate(63.476562 0)"/>
     <use xlink:href="#DejaVuSans-74" transform="translate(91.259766 0)"/>
    </g>
   </g>
   <g id="text_44">
    <!-- bit -->
    <g transform="translate(162 599.774113) scale(0.1 -0.1)">
     <use xlink:href="#DejaVuSans-62"/>
     <use xlink:href="#DejaVuSans-69" transform="translate(63.476562 0)"/>
     <use xlink:href="#DejaVuSans-74" transform="translate(91.259766 0)"/>
    </g>
   </g>
   <g id="text_45">
    <!-- qubit -->
    <g transform="translate(116.526316 617.287627) scale(0.1 -0.1)">
     <use xlink:href="#DejaVuSans-71"/>
     <use xlink:href="#DejaVuSans-75" transform="translate(63.476562 0)"/>
     <use xlink:href="#DejaVuSans-62" transform="translate(126.855469 0)"/>
     <use xlink:href="#DejaVuSans-69" transform="translate(190.332031 0)"/>
     <use xlink:href="#DejaVuSans-74" transform="translate(218.115234 0)"/>
    </g>
   </g>
   <g id="text_46">
    <!-- bit -->
    <g transform="translate(162 634.80114) scale(0.1 -0.1)">
     <use xlink:href="#DejaVuSans-62"/>
     <use xlink:href="#DejaVuSans-69" transform="translate(63.476562 0)"/>
     <use xlink:href="#DejaVuSans-74" transform="translate(91.259766 0)"/>
    </g>
   </g>
   <g id="text_47">
    <!-- bit -->
    <g transform="translate(366.631579 634.80114) scale(0.1 -0.1)">
     <use xlink:href="#DejaVuSans-62"/>
     <use xlink:href="#DejaVuSans-69" transform="translate(63.476562 0)"/>
     <use xlink:href="#DejaVuSans-74" transform="translate(91.259766 0)"/>
    </g>
   </g>
   <g id="text_48">
    <!-- bit -->
    <g transform="translate(366.631579 652.314654) scale(0.1 -0.1)">
     <use xlink:href="#DejaVuSans-62"/>
     <use xlink:href="#DejaVuSans-69" transform="translate(63.476562 0)"/>
     <use xlink:href="#DejaVuSans-74" transform="translate(91.259766 0)"/>
    </g>
   </g>
   <g id="text_49">
    <!-- bit -->
    <g transform="translate(412.105263 652.314654) scale(0.1 -0.1)">
     <use xlink:href="#DejaVuSans-62"/>
     <use xlink:href="#DejaVuSans-69" transform="translate(63.476562 0)"/>
     <use xlink:href="#DejaVuSans-74" transform="translate(91.259766 0)"/>
    </g>
   </g>
   <g id="text_50">
    <!-- |0&gt; -->
    <g transform="translate(127.365584 11.398944) scale(0.1 -0.1)">
     <defs>
      <path id="DejaVuSans-7c" d="M 1344 4891 
L 1344 -1509 
L 813 -1509 
L 813 4891 
L 1344 4891 
z
" transform="scale(0.015625)"/>
      <path id="DejaVuSans-30" d="M 2034 4250 
Q 1547 4250 1301 3770 
Q 1056 3291 1056 2328 
Q 1056 1369 1301 889 
Q 1547 409 2034 409 
Q 2525 409 2770 889 
Q 3016 1369 3016 2328 
Q 3016 3291 2770 3770 
Q 2525 4250 2034 4250 
z
M 2034 4750 
Q 2819 4750 3233 4129 
Q 3647 3509 3647 2328 
Q 3647 1150 3233 529 
Q 2819 -91 2034 -91 
Q 1250 -91 836 529 
Q 422 1150 422 2328 
Q 422 3509 836 4129 
Q 1250 4750 2034 4750 
z
" transform="scale(0.015625)"/>
      <path id="DejaVuSans-3e" d="M 678 3150 
L 678 3719 
L 4684 2266 
L 4684 1747 
L 678 294 
L 678 863 
L 3897 2003 
L 678 3150 
z
" transform="scale(0.015625)"/>
     </defs>
     <use xlink:href="#DejaVuSans-7c"/>
     <use xlink:href="#DejaVuSans-30" transform="translate(33.691406 0)"/>
     <use xlink:href="#DejaVuSans-3e" transform="translate(97.314453 0)"/>
    </g>
   </g>
   <g id="text_51">
    <!-- |0&gt; -->
    <g transform="translate(195.57611 28.912458) scale(0.1 -0.1)">
     <use xlink:href="#DejaVuSans-7c"/>
     <use xlink:href="#DejaVuSans-30" transform="translate(33.691406 0)"/>
     <use xlink:href="#DejaVuSans-3e" transform="translate(97.314453 0)"/>
    </g>
   </g>
   <g id="text_52">
    <!-- |0&gt; -->
    <g transform="translate(263.786637 46.425971) scale(0.1 -0.1)">
     <use xlink:href="#DejaVuSans-7c"/>
     <use xlink:href="#DejaVuSans-30" transform="translate(33.691406 0)"/>
     <use xlink:href="#DejaVuSans-3e" transform="translate(97.314453 0)"/>
    </g>
   </g>
   <g id="text_53">
    <!-- PostselectBit((0,)).dagger() -->
    <g transform="translate(250.439227 64.056672) scale(0.1 -0.1)">
     <defs>
      <path id="DejaVuSans-50" d="M 1259 4147 
L 1259 2394 
L 2053 2394 
Q 2494 2394 2734 2622 
Q 2975 2850 2975 3272 
Q 2975 3691 2734 3919 
Q 2494 4147 2053 4147 
L 1259 4147 
z
M 628 4666 
L 2053 4666 
Q 2838 4666 3239 4311 
Q 3641 3956 3641 3272 
Q 3641 2581 3239 2228 
Q 2838 1875 2053 1875 
L 1259 1875 
L 1259 0 
L 628 0 
L 628 4666 
z
" transform="scale(0.015625)"/>
      <path id="DejaVuSans-6f" d="M 1959 3097 
Q 1497 3097 1228 2736 
Q 959 2375 959 1747 
Q 959 1119 1226 758 
Q 1494 397 1959 397 
Q 2419 397 2687 759 
Q 2956 1122 2956 1747 
Q 2956 2369 2687 2733 
Q 2419 3097 1959 3097 
z
M 1959 3584 
Q 2709 3584 3137 3096 
Q 3566 2609 3566 1747 
Q 3566 888 3137 398 
Q 2709 -91 1959 -91 
Q 1206 -91 779 398 
Q 353 888 353 1747 
Q 353 2609 779 3096 
Q 1206 3584 1959 3584 
z
" transform="scale(0.015625)"/>
      <path id="DejaVuSans-73" d="M 2834 3397 
L 2834 2853 
Q 2591 2978 2328 3040 
Q 2066 3103 1784 3103 
Q 1356 3103 1142 2972 
Q 928 2841 928 2578 
Q 928 2378 1081 2264 
Q 1234 2150 1697 2047 
L 1894 2003 
Q 2506 1872 2764 1633 
Q 3022 1394 3022 966 
Q 3022 478 2636 193 
Q 2250 -91 1575 -91 
Q 1294 -91 989 -36 
Q 684 19 347 128 
L 347 722 
Q 666 556 975 473 
Q 1284 391 1588 391 
Q 1994 391 2212 530 
Q 2431 669 2431 922 
Q 2431 1156 2273 1281 
Q 2116 1406 1581 1522 
L 1381 1569 
Q 847 1681 609 1914 
Q 372 2147 372 2553 
Q 372 3047 722 3315 
Q 1072 3584 1716 3584 
Q 2034 3584 2315 3537 
Q 2597 3491 2834 3397 
z
" transform="scale(0.015625)"/>
      <path id="DejaVuSans-65" d="M 3597 1894 
L 3597 1613 
L 953 1613 
Q 991 1019 1311 708 
Q 1631 397 2203 397 
Q 2534 397 2845 478 
Q 3156 559 3463 722 
L 3463 178 
Q 3153 47 2828 -22 
Q 2503 -91 2169 -91 
Q 1331 -91 842 396 
Q 353 884 353 1716 
Q 353 2575 817 3079 
Q 1281 3584 2069 3584 
Q 2775 3584 3186 3129 
Q 3597 2675 3597 1894 
z
M 3022 2063 
Q 3016 2534 2758 2815 
Q 2500 3097 2075 3097 
Q 1594 3097 1305 2825 
Q 1016 2553 972 2059 
L 3022 2063 
z
" transform="scale(0.015625)"/>
      <path id="DejaVuSans-6c" d="M 603 4863 
L 1178 4863 
L 1178 0 
L 603 0 
L 603 4863 
z
" transform="scale(0.015625)"/>
      <path id="DejaVuSans-63" d="M 3122 3366 
L 3122 2828 
Q 2878 2963 2633 3030 
Q 2388 3097 2138 3097 
Q 1578 3097 1268 2742 
Q 959 2388 959 1747 
Q 959 1106 1268 751 
Q 1578 397 2138 397 
Q 2388 397 2633 464 
Q 2878 531 3122 666 
L 3122 134 
Q 2881 22 2623 -34 
Q 2366 -91 2075 -91 
Q 1284 -91 818 406 
Q 353 903 353 1747 
Q 353 2603 823 3093 
Q 1294 3584 2113 3584 
Q 2378 3584 2631 3529 
Q 2884 3475 3122 3366 
z
" transform="scale(0.015625)"/>
      <path id="DejaVuSans-42" d="M 1259 2228 
L 1259 519 
L 2272 519 
Q 2781 519 3026 730 
Q 3272 941 3272 1375 
Q 3272 1813 3026 2020 
Q 2781 2228 2272 2228 
L 1259 2228 
z
M 1259 4147 
L 1259 2741 
L 2194 2741 
Q 2656 2741 2882 2914 
Q 3109 3088 3109 3444 
Q 3109 3797 2882 3972 
Q 2656 4147 2194 4147 
L 1259 4147 
z
M 628 4666 
L 2241 4666 
Q 2963 4666 3353 4366 
Q 3744 4066 3744 3513 
Q 3744 3084 3544 2831 
Q 3344 2578 2956 2516 
Q 3422 2416 3680 2098 
Q 3938 1781 3938 1306 
Q 3938 681 3513 340 
Q 3088 0 2303 0 
L 628 0 
L 628 4666 
z
" transform="scale(0.015625)"/>
      <path id="DejaVuSans-28" d="M 1984 4856 
Q 1566 4138 1362 3434 
Q 1159 2731 1159 2009 
Q 1159 1288 1364 580 
Q 1569 -128 1984 -844 
L 1484 -844 
Q 1016 -109 783 600 
Q 550 1309 550 2009 
Q 550 2706 781 3412 
Q 1013 4119 1484 4856 
L 1984 4856 
z
" transform="scale(0.015625)"/>
      <path id="DejaVuSans-2c" d="M 750 794 
L 1409 794 
L 1409 256 
L 897 -744 
L 494 -744 
L 750 256 
L 750 794 
z
" transform="scale(0.015625)"/>
      <path id="DejaVuSans-29" d="M 513 4856 
L 1013 4856 
Q 1481 4119 1714 3412 
Q 1947 2706 1947 2009 
Q 1947 1309 1714 600 
Q 1481 -109 1013 -844 
L 513 -844 
Q 928 -128 1133 580 
Q 1338 1288 1338 2009 
Q 1338 2731 1133 3434 
Q 928 4138 513 4856 
z
" transform="scale(0.015625)"/>
      <path id="DejaVuSans-2e" d="M 684 794 
L 1344 794 
L 1344 0 
L 684 0 
L 684 794 
z
" transform="scale(0.015625)"/>
      <path id="DejaVuSans-64" d="M 2906 2969 
L 2906 4863 
L 3481 4863 
L 3481 0 
L 2906 0 
L 2906 525 
Q 2725 213 2448 61 
Q 2172 -91 1784 -91 
Q 1150 -91 751 415 
Q 353 922 353 1747 
Q 353 2572 751 3078 
Q 1150 3584 1784 3584 
Q 2172 3584 2448 3432 
Q 2725 3281 2906 2969 
z
M 947 1747 
Q 947 1113 1208 752 
Q 1469 391 1925 391 
Q 2381 391 2643 752 
Q 2906 1113 2906 1747 
Q 2906 2381 2643 2742 
Q 2381 3103 1925 3103 
Q 1469 3103 1208 2742 
Q 947 2381 947 1747 
z
" transform="scale(0.015625)"/>
      <path id="DejaVuSans-61" d="M 2194 1759 
Q 1497 1759 1228 1600 
Q 959 1441 959 1056 
Q 959 750 1161 570 
Q 1363 391 1709 391 
Q 2188 391 2477 730 
Q 2766 1069 2766 1631 
L 2766 1759 
L 2194 1759 
z
M 3341 1997 
L 3341 0 
L 2766 0 
L 2766 531 
Q 2569 213 2275 61 
Q 1981 -91 1556 -91 
Q 1019 -91 701 211 
Q 384 513 384 1019 
Q 384 1609 779 1909 
Q 1175 2209 1959 2209 
L 2766 2209 
L 2766 2266 
Q 2766 2663 2505 2880 
Q 2244 3097 1772 3097 
Q 1472 3097 1187 3025 
Q 903 2953 641 2809 
L 641 3341 
Q 956 3463 1253 3523 
Q 1550 3584 1831 3584 
Q 2591 3584 2966 3190 
Q 3341 2797 3341 1997 
z
" transform="scale(0.015625)"/>
      <path id="DejaVuSans-67" d="M 2906 1791 
Q 2906 2416 2648 2759 
Q 2391 3103 1925 3103 
Q 1463 3103 1205 2759 
Q 947 2416 947 1791 
Q 947 1169 1205 825 
Q 1463 481 1925 481 
Q 2391 481 2648 825 
Q 2906 1169 2906 1791 
z
M 3481 434 
Q 3481 -459 3084 -895 
Q 2688 -1331 1869 -1331 
Q 1566 -1331 1297 -1286 
Q 1028 -1241 775 -1147 
L 775 -588 
Q 1028 -725 1275 -790 
Q 1522 -856 1778 -856 
Q 2344 -856 2625 -561 
Q 2906 -266 2906 331 
L 2906 616 
Q 2728 306 2450 153 
Q 2172 0 1784 0 
Q 1141 0 747 490 
Q 353 981 353 1791 
Q 353 2603 747 3093 
Q 1141 3584 1784 3584 
Q 2172 3584 2450 3431 
Q 2728 3278 2906 2969 
L 2906 3500 
L 3481 3500 
L 3481 434 
z
" transform="scale(0.015625)"/>
      <path id="DejaVuSans-72" d="M 2631 2963 
Q 2534 3019 2420 3045 
Q 2306 3072 2169 3072 
Q 1681 3072 1420 2755 
Q 1159 2438 1159 1844 
L 1159 0 
L 581 0 
L 581 3500 
L 1159 3500 
L 1159 2956 
Q 1341 3275 1631 3429 
Q 1922 3584 2338 3584 
Q 2397 3584 2469 3576 
Q 2541 3569 2628 3553 
L 2631 2963 
z
" transform="scale(0.015625)"/>
     </defs>
     <use xlink:href="#DejaVuSans-50"/>
     <use xlink:href="#DejaVuSans-6f" transform="translate(56.677734 0)"/>
     <use xlink:href="#DejaVuSans-73" transform="translate(117.859375 0)"/>
     <use xlink:href="#DejaVuSans-74" transform="translate(169.958984 0)"/>
     <use xlink:href="#DejaVuSans-73" transform="translate(209.167969 0)"/>
     <use xlink:href="#DejaVuSans-65" transform="translate(261.267578 0)"/>
     <use xlink:href="#DejaVuSans-6c" transform="translate(322.791016 0)"/>
     <use xlink:href="#DejaVuSans-65" transform="translate(350.574219 0)"/>
     <use xlink:href="#DejaVuSans-63" transform="translate(412.097656 0)"/>
     <use xlink:href="#DejaVuSans-74" transform="translate(467.078125 0)"/>
     <use xlink:href="#DejaVuSans-42" transform="translate(506.287109 0)"/>
     <use xlink:href="#DejaVuSans-69" transform="translate(574.890625 0)"/>
     <use xlink:href="#DejaVuSans-74" transform="translate(602.673828 0)"/>
     <use xlink:href="#DejaVuSans-28" transform="translate(641.882812 0)"/>
     <use xlink:href="#DejaVuSans-28" transform="translate(680.896484 0)"/>
     <use xlink:href="#DejaVuSans-30" transform="translate(719.910156 0)"/>
     <use xlink:href="#DejaVuSans-2c" transform="translate(783.533203 0)"/>
     <use xlink:href="#DejaVuSans-29" transform="translate(815.320312 0)"/>
     <use xlink:href="#DejaVuSans-29" transform="translate(854.333984 0)"/>
     <use xlink:href="#DejaVuSans-2e" transform="translate(893.347656 0)"/>
     <use xlink:href="#DejaVuSans-64" transform="translate(925.134766 0)"/>
     <use xlink:href="#DejaVuSans-61" transform="translate(988.611328 0)"/>
     <use xlink:href="#DejaVuSans-67" transform="translate(1049.890625 0)"/>
     <use xlink:href="#DejaVuSans-67" transform="translate(1113.367188 0)"/>
     <use xlink:href="#DejaVuSans-65" transform="translate(1176.84375 0)"/>
     <use xlink:href="#DejaVuSans-72" transform="translate(1238.367188 0)"/>
     <use xlink:href="#DejaVuSans-28" transform="translate(1279.480469 0)"/>
     <use xlink:href="#DejaVuSans-29" transform="translate(1318.494141 0)"/>
    </g>
   </g>
   <g id="text_54">
    <!-- PostselectBit((0,)).dagger() -->
    <g transform="translate(295.912911 81.570186) scale(0.1 -0.1)">
     <use xlink:href="#DejaVuSans-50"/>
     <use xlink:href="#DejaVuSans-6f" transform="translate(56.677734 0)"/>
     <use xlink:href="#DejaVuSans-73" transform="translate(117.859375 0)"/>
     <use xlink:href="#DejaVuSans-74" transform="translate(169.958984 0)"/>
     <use xlink:href="#DejaVuSans-73" transform="translate(209.167969 0)"/>
     <use xlink:href="#DejaVuSans-65" transform="translate(261.267578 0)"/>
     <use xlink:href="#DejaVuSans-6c" transform="translate(322.791016 0)"/>
     <use xlink:href="#DejaVuSans-65" transform="translate(350.574219 0)"/>
     <use xlink:href="#DejaVuSans-63" transform="translate(412.097656 0)"/>
     <use xlink:href="#DejaVuSans-74" transform="translate(467.078125 0)"/>
     <use xlink:href="#DejaVuSans-42" transform="translate(506.287109 0)"/>
     <use xlink:href="#DejaVuSans-69" transform="translate(574.890625 0)"/>
     <use xlink:href="#DejaVuSans-74" transform="translate(602.673828 0)"/>
     <use xlink:href="#DejaVuSans-28" transform="translate(641.882812 0)"/>
     <use xlink:href="#DejaVuSans-28" transform="translate(680.896484 0)"/>
     <use xlink:href="#DejaVuSans-30" transform="translate(719.910156 0)"/>
     <use xlink:href="#DejaVuSans-2c" transform="translate(783.533203 0)"/>
     <use xlink:href="#DejaVuSans-29" transform="translate(815.320312 0)"/>
     <use xlink:href="#DejaVuSans-29" transform="translate(854.333984 0)"/>
     <use xlink:href="#DejaVuSans-2e" transform="translate(893.347656 0)"/>
     <use xlink:href="#DejaVuSans-64" transform="translate(925.134766 0)"/>
     <use xlink:href="#DejaVuSans-61" transform="translate(988.611328 0)"/>
     <use xlink:href="#DejaVuSans-67" transform="translate(1049.890625 0)"/>
     <use xlink:href="#DejaVuSans-67" transform="translate(1113.367188 0)"/>
     <use xlink:href="#DejaVuSans-65" transform="translate(1176.84375 0)"/>
     <use xlink:href="#DejaVuSans-72" transform="translate(1238.367188 0)"/>
     <use xlink:href="#DejaVuSans-28" transform="translate(1279.480469 0)"/>
     <use xlink:href="#DejaVuSans-29" transform="translate(1318.494141 0)"/>
    </g>
   </g>
   <g id="text_55">
    <!-- PostselectBit((0,)).dagger() -->
    <g transform="translate(341.386595 99.083699) scale(0.1 -0.1)">
     <use xlink:href="#DejaVuSans-50"/>
     <use xlink:href="#DejaVuSans-6f" transform="translate(56.677734 0)"/>
     <use xlink:href="#DejaVuSans-73" transform="translate(117.859375 0)"/>
     <use xlink:href="#DejaVuSans-74" transform="translate(169.958984 0)"/>
     <use xlink:href="#DejaVuSans-73" transform="translate(209.167969 0)"/>
     <use xlink:href="#DejaVuSans-65" transform="translate(261.267578 0)"/>
     <use xlink:href="#DejaVuSans-6c" transform="translate(322.791016 0)"/>
     <use xlink:href="#DejaVuSans-65" transform="translate(350.574219 0)"/>
     <use xlink:href="#DejaVuSans-63" transform="translate(412.097656 0)"/>
     <use xlink:href="#DejaVuSans-74" transform="translate(467.078125 0)"/>
     <use xlink:href="#DejaVuSans-42" transform="translate(506.287109 0)"/>
     <use xlink:href="#DejaVuSans-69" transform="translate(574.890625 0)"/>
     <use xlink:href="#DejaVuSans-74" transform="translate(602.673828 0)"/>
     <use xlink:href="#DejaVuSans-28" transform="translate(641.882812 0)"/>
     <use xlink:href="#DejaVuSans-28" transform="translate(680.896484 0)"/>
     <use xlink:href="#DejaVuSans-30" transform="translate(719.910156 0)"/>
     <use xlink:href="#DejaVuSans-2c" transform="translate(783.533203 0)"/>
     <use xlink:href="#DejaVuSans-29" transform="translate(815.320312 0)"/>
     <use xlink:href="#DejaVuSans-29" transform="translate(854.333984 0)"/>
     <use xlink:href="#DejaVuSans-2e" transform="translate(893.347656 0)"/>
     <use xlink:href="#DejaVuSans-64" transform="translate(925.134766 0)"/>
     <use xlink:href="#DejaVuSans-61" transform="translate(988.611328 0)"/>
     <use xlink:href="#DejaVuSans-67" transform="translate(1049.890625 0)"/>
     <use xlink:href="#DejaVuSans-67" transform="translate(1113.367188 0)"/>
     <use xlink:href="#DejaVuSans-65" transform="translate(1176.84375 0)"/>
     <use xlink:href="#DejaVuSans-72" transform="translate(1238.367188 0)"/>
     <use xlink:href="#DejaVuSans-28" transform="translate(1279.480469 0)"/>
     <use xlink:href="#DejaVuSans-29" transform="translate(1318.494141 0)"/>
    </g>
   </g>
   <g id="text_56">
    <!-- H -->
    <g transform="translate(132.660896 116.597213) scale(0.1 -0.1)">
     <defs>
      <path id="DejaVuSans-48" d="M 628 4666 
L 1259 4666 
L 1259 2753 
L 3553 2753 
L 3553 4666 
L 4184 4666 
L 4184 0 
L 3553 0 
L 3553 2222 
L 1259 2222 
L 1259 0 
L 628 0 
L 628 4666 
z
" transform="scale(0.015625)"/>
     </defs>
     <use xlink:href="#DejaVuSans-48"/>
    </g>
   </g>
   <g id="text_57">
    <!-- Scalar(1.4142135623730951) -->
    <g transform="translate(152.300452 169.137753) scale(0.1 -0.1)">
     <defs>
      <path id="DejaVuSans-53" d="M 3425 4513 
L 3425 3897 
Q 3066 4069 2747 4153 
Q 2428 4238 2131 4238 
Q 1616 4238 1336 4038 
Q 1056 3838 1056 3469 
Q 1056 3159 1242 3001 
Q 1428 2844 1947 2747 
L 2328 2669 
Q 3034 2534 3370 2195 
Q 3706 1856 3706 1288 
Q 3706 609 3251 259 
Q 2797 -91 1919 -91 
Q 1588 -91 1214 -16 
Q 841 59 441 206 
L 441 856 
Q 825 641 1194 531 
Q 1563 422 1919 422 
Q 2459 422 2753 634 
Q 3047 847 3047 1241 
Q 3047 1584 2836 1778 
Q 2625 1972 2144 2069 
L 1759 2144 
Q 1053 2284 737 2584 
Q 422 2884 422 3419 
Q 422 4038 858 4394 
Q 1294 4750 2059 4750 
Q 2388 4750 2728 4690 
Q 3069 4631 3425 4513 
z
" transform="scale(0.015625)"/>
      <path id="DejaVuSans-31" d="M 794 531 
L 1825 531 
L 1825 4091 
L 703 3866 
L 703 4441 
L 1819 4666 
L 2450 4666 
L 2450 531 
L 3481 531 
L 3481 0 
L 794 0 
L 794 531 
z
" transform="scale(0.015625)"/>
      <path id="DejaVuSans-34" d="M 2419 4116 
L 825 1625 
L 2419 1625 
L 2419 4116 
z
M 2253 4666 
L 3047 4666 
L 3047 1625 
L 3713 1625 
L 3713 1100 
L 3047 1100 
L 3047 0 
L 2419 0 
L 2419 1100 
L 313 1100 
L 313 1709 
L 2253 4666 
z
" transform="scale(0.015625)"/>
      <path id="DejaVuSans-32" d="M 1228 531 
L 3431 531 
L 3431 0 
L 469 0 
L 469 531 
Q 828 903 1448 1529 
Q 2069 2156 2228 2338 
Q 2531 2678 2651 2914 
Q 2772 3150 2772 3378 
Q 2772 3750 2511 3984 
Q 2250 4219 1831 4219 
Q 1534 4219 1204 4116 
Q 875 4013 500 3803 
L 500 4441 
Q 881 4594 1212 4672 
Q 1544 4750 1819 4750 
Q 2544 4750 2975 4387 
Q 3406 4025 3406 3419 
Q 3406 3131 3298 2873 
Q 3191 2616 2906 2266 
Q 2828 2175 2409 1742 
Q 1991 1309 1228 531 
z
" transform="scale(0.015625)"/>
      <path id="DejaVuSans-33" d="M 2597 2516 
Q 3050 2419 3304 2112 
Q 3559 1806 3559 1356 
Q 3559 666 3084 287 
Q 2609 -91 1734 -91 
Q 1441 -91 1130 -33 
Q 819 25 488 141 
L 488 750 
Q 750 597 1062 519 
Q 1375 441 1716 441 
Q 2309 441 2620 675 
Q 2931 909 2931 1356 
Q 2931 1769 2642 2001 
Q 2353 2234 1838 2234 
L 1294 2234 
L 1294 2753 
L 1863 2753 
Q 2328 2753 2575 2939 
Q 2822 3125 2822 3475 
Q 2822 3834 2567 4026 
Q 2313 4219 1838 4219 
Q 1578 4219 1281 4162 
Q 984 4106 628 3988 
L 628 4550 
Q 988 4650 1302 4700 
Q 1616 4750 1894 4750 
Q 2613 4750 3031 4423 
Q 3450 4097 3450 3541 
Q 3450 3153 3228 2886 
Q 3006 2619 2597 2516 
z
" transform="scale(0.015625)"/>
      <path id="DejaVuSans-35" d="M 691 4666 
L 3169 4666 
L 3169 4134 
L 1269 4134 
L 1269 2991 
Q 1406 3038 1543 3061 
Q 1681 3084 1819 3084 
Q 2600 3084 3056 2656 
Q 3513 2228 3513 1497 
Q 3513 744 3044 326 
Q 2575 -91 1722 -91 
Q 1428 -91 1123 -41 
Q 819 9 494 109 
L 494 744 
Q 775 591 1075 516 
Q 1375 441 1709 441 
Q 2250 441 2565 725 
Q 2881 1009 2881 1497 
Q 2881 1984 2565 2268 
Q 2250 2553 1709 2553 
Q 1456 2553 1204 2497 
Q 953 2441 691 2322 
L 691 4666 
z
" transform="scale(0.015625)"/>
      <path id="DejaVuSans-36" d="M 2113 2584 
Q 1688 2584 1439 2293 
Q 1191 2003 1191 1497 
Q 1191 994 1439 701 
Q 1688 409 2113 409 
Q 2538 409 2786 701 
Q 3034 994 3034 1497 
Q 3034 2003 2786 2293 
Q 2538 2584 2113 2584 
z
M 3366 4563 
L 3366 3988 
Q 3128 4100 2886 4159 
Q 2644 4219 2406 4219 
Q 1781 4219 1451 3797 
Q 1122 3375 1075 2522 
Q 1259 2794 1537 2939 
Q 1816 3084 2150 3084 
Q 2853 3084 3261 2657 
Q 3669 2231 3669 1497 
Q 3669 778 3244 343 
Q 2819 -91 2113 -91 
Q 1303 -91 875 529 
Q 447 1150 447 2328 
Q 447 3434 972 4092 
Q 1497 4750 2381 4750 
Q 2619 4750 2861 4703 
Q 3103 4656 3366 4563 
z
" transform="scale(0.015625)"/>
      <path id="DejaVuSans-37" d="M 525 4666 
L 3525 4666 
L 3525 4397 
L 1831 0 
L 1172 0 
L 2766 4134 
L 525 4134 
L 525 4666 
z
" transform="scale(0.015625)"/>
      <path id="DejaVuSans-39" d="M 703 97 
L 703 672 
Q 941 559 1184 500 
Q 1428 441 1663 441 
Q 2288 441 2617 861 
Q 2947 1281 2994 2138 
Q 2813 1869 2534 1725 
Q 2256 1581 1919 1581 
Q 1219 1581 811 2004 
Q 403 2428 403 3163 
Q 403 3881 828 4315 
Q 1253 4750 1959 4750 
Q 2769 4750 3195 4129 
Q 3622 3509 3622 2328 
Q 3622 1225 3098 567 
Q 2575 -91 1691 -91 
Q 1453 -91 1209 -44 
Q 966 3 703 97 
z
M 1959 2075 
Q 2384 2075 2632 2365 
Q 2881 2656 2881 3163 
Q 2881 3666 2632 3958 
Q 2384 4250 1959 4250 
Q 1534 4250 1286 3958 
Q 1038 3666 1038 3163 
Q 1038 2656 1286 2365 
Q 1534 2075 1959 2075 
z
" transform="scale(0.015625)"/>
     </defs>
     <use xlink:href="#DejaVuSans-53"/>
     <use xlink:href="#DejaVuSans-63" transform="translate(63.476562 0)"/>
     <use xlink:href="#DejaVuSans-61" transform="translate(118.457031 0)"/>
     <use xlink:href="#DejaVuSans-6c" transform="translate(179.736328 0)"/>
     <use xlink:href="#DejaVuSans-61" transform="translate(207.519531 0)"/>
     <use xlink:href="#DejaVuSans-72" transform="translate(268.798828 0)"/>
     <use xlink:href="#DejaVuSans-28" transform="translate(309.912109 0)"/>
     <use xlink:href="#DejaVuSans-31" transform="translate(348.925781 0)"/>
     <use xlink:href="#DejaVuSans-2e" transform="translate(412.548828 0)"/>
     <use xlink:href="#DejaVuSans-34" transform="translate(444.335938 0)"/>
     <use xlink:href="#DejaVuSans-31" transform="translate(507.958984 0)"/>
     <use xlink:href="#DejaVuSans-34" transform="translate(571.582031 0)"/>
     <use xlink:href="#DejaVuSans-32" transform="translate(635.205078 0)"/>
     <use xlink:href="#DejaVuSans-31" transform="translate(698.828125 0)"/>
     <use xlink:href="#DejaVuSans-33" transform="translate(762.451172 0)"/>
     <use xlink:href="#DejaVuSans-35" transform="translate(826.074219 0)"/>
     <use xlink:href="#DejaVuSans-36" transform="translate(889.697266 0)"/>
     <use xlink:href="#DejaVuSans-32" transform="translate(953.320312 0)"/>
     <use xlink:href="#DejaVuSans-33" transform="translate(1016.943359 0)"/>
     <use xlink:href="#DejaVuSans-37" transform="translate(1080.566406 0)"/>
     <use xlink:href="#DejaVuSans-33" transform="translate(1144.189453 0)"/>
     <use xlink:href="#DejaVuSans-30" transform="translate(1207.8125 0)"/>
     <use xlink:href="#DejaVuSans-39" transform="translate(1271.435547 0)"/>
     <use xlink:href="#DejaVuSans-35" transform="translate(1335.058594 0)"/>
     <use xlink:href="#DejaVuSans-31" transform="translate(1398.681641 0)"/>
     <use xlink:href="#DejaVuSans-29" transform="translate(1462.304688 0)"/>
    </g>
   </g>
   <g id="text_58">
    <!-- CopyBit(2) -->
    <g transform="translate(53.032072 256.705321) scale(0.1 -0.1)">
     <defs>
      <path id="DejaVuSans-43" d="M 4122 4306 
L 4122 3641 
Q 3803 3938 3442 4084 
Q 3081 4231 2675 4231 
Q 1875 4231 1450 3742 
Q 1025 3253 1025 2328 
Q 1025 1406 1450 917 
Q 1875 428 2675 428 
Q 3081 428 3442 575 
Q 3803 722 4122 1019 
L 4122 359 
Q 3791 134 3420 21 
Q 3050 -91 2638 -91 
Q 1578 -91 968 557 
Q 359 1206 359 2328 
Q 359 3453 968 4101 
Q 1578 4750 2638 4750 
Q 3056 4750 3426 4639 
Q 3797 4528 4122 4306 
z
" transform="scale(0.015625)"/>
      <path id="DejaVuSans-70" d="M 1159 525 
L 1159 -1331 
L 581 -1331 
L 581 3500 
L 1159 3500 
L 1159 2969 
Q 1341 3281 1617 3432 
Q 1894 3584 2278 3584 
Q 2916 3584 3314 3078 
Q 3713 2572 3713 1747 
Q 3713 922 3314 415 
Q 2916 -91 2278 -91 
Q 1894 -91 1617 61 
Q 1341 213 1159 525 
z
M 3116 1747 
Q 3116 2381 2855 2742 
Q 2594 3103 2138 3103 
Q 1681 3103 1420 2742 
Q 1159 2381 1159 1747 
Q 1159 1113 1420 752 
Q 1681 391 2138 391 
Q 2594 391 2855 752 
Q 3116 1113 3116 1747 
z
" transform="scale(0.015625)"/>
      <path id="DejaVuSans-79" d="M 2059 -325 
Q 1816 -950 1584 -1140 
Q 1353 -1331 966 -1331 
L 506 -1331 
L 506 -850 
L 844 -850 
Q 1081 -850 1212 -737 
Q 1344 -625 1503 -206 
L 1606 56 
L 191 3500 
L 800 3500 
L 1894 763 
L 2988 3500 
L 3597 3500 
L 2059 -325 
z
" transform="scale(0.015625)"/>
     </defs>
     <use xlink:href="#DejaVuSans-43"/>
     <use xlink:href="#DejaVuSans-6f" transform="translate(69.824219 0)"/>
     <use xlink:href="#DejaVuSans-70" transform="translate(131.005859 0)"/>
     <use xlink:href="#DejaVuSans-79" transform="translate(194.482422 0)"/>
     <use xlink:href="#DejaVuSans-42" transform="translate(253.662109 0)"/>
     <use xlink:href="#DejaVuSans-69" transform="translate(322.265625 0)"/>
     <use xlink:href="#DejaVuSans-74" transform="translate(350.048828 0)"/>
     <use xlink:href="#DejaVuSans-28" transform="translate(389.257812 0)"/>
     <use xlink:href="#DejaVuSans-32" transform="translate(428.271484 0)"/>
     <use xlink:href="#DejaVuSans-29" transform="translate(491.894531 0)"/>
    </g>
   </g>
   <g id="text_59">
    <!-- Scalar(1.4142135623730951) -->
    <g transform="translate(186.405715 361.786402) scale(0.1 -0.1)">
     <use xlink:href="#DejaVuSans-53"/>
     <use xlink:href="#DejaVuSans-63" transform="translate(63.476562 0)"/>
     <use xlink:href="#DejaVuSans-61" transform="translate(118.457031 0)"/>
     <use xlink:href="#DejaVuSans-6c" transform="translate(179.736328 0)"/>
     <use xlink:href="#DejaVuSans-61" transform="translate(207.519531 0)"/>
     <use xlink:href="#DejaVuSans-72" transform="translate(268.798828 0)"/>
     <use xlink:href="#DejaVuSans-28" transform="translate(309.912109 0)"/>
     <use xlink:href="#DejaVuSans-31" transform="translate(348.925781 0)"/>
     <use xlink:href="#DejaVuSans-2e" transform="translate(412.548828 0)"/>
     <use xlink:href="#DejaVuSans-34" transform="translate(444.335938 0)"/>
     <use xlink:href="#DejaVuSans-31" transform="translate(507.958984 0)"/>
     <use xlink:href="#DejaVuSans-34" transform="translate(571.582031 0)"/>
     <use xlink:href="#DejaVuSans-32" transform="translate(635.205078 0)"/>
     <use xlink:href="#DejaVuSans-31" transform="translate(698.828125 0)"/>
     <use xlink:href="#DejaVuSans-33" transform="translate(762.451172 0)"/>
     <use xlink:href="#DejaVuSans-35" transform="translate(826.074219 0)"/>
     <use xlink:href="#DejaVuSans-36" transform="translate(889.697266 0)"/>
     <use xlink:href="#DejaVuSans-32" transform="translate(953.320312 0)"/>
     <use xlink:href="#DejaVuSans-33" transform="translate(1016.943359 0)"/>
     <use xlink:href="#DejaVuSans-37" transform="translate(1080.566406 0)"/>
     <use xlink:href="#DejaVuSans-33" transform="translate(1144.189453 0)"/>
     <use xlink:href="#DejaVuSans-30" transform="translate(1207.8125 0)"/>
     <use xlink:href="#DejaVuSans-39" transform="translate(1271.435547 0)"/>
     <use xlink:href="#DejaVuSans-35" transform="translate(1335.058594 0)"/>
     <use xlink:href="#DejaVuSans-31" transform="translate(1398.681641 0)"/>
     <use xlink:href="#DejaVuSans-29" transform="translate(1462.304688 0)"/>
    </g>
   </g>
   <g id="text_60">
    <!-- CopyBit(2) -->
    <g transform="translate(75.768914 449.35397) scale(0.1 -0.1)">
     <use xlink:href="#DejaVuSans-43"/>
     <use xlink:href="#DejaVuSans-6f" transform="translate(69.824219 0)"/>
     <use xlink:href="#DejaVuSans-70" transform="translate(131.005859 0)"/>
     <use xlink:href="#DejaVuSans-79" transform="translate(194.482422 0)"/>
     <use xlink:href="#DejaVuSans-42" transform="translate(253.662109 0)"/>
     <use xlink:href="#DejaVuSans-69" transform="translate(322.265625 0)"/>
     <use xlink:href="#DejaVuSans-74" transform="translate(350.048828 0)"/>
     <use xlink:href="#DejaVuSans-28" transform="translate(389.257812 0)"/>
     <use xlink:href="#DejaVuSans-32" transform="translate(428.271484 0)"/>
     <use xlink:href="#DejaVuSans-29" transform="translate(491.894531 0)"/>
    </g>
   </g>
   <g id="text_61">
    <!-- CopyBit(2) -->
    <g transform="translate(109.874178 589.462078) scale(0.1 -0.1)">
     <use xlink:href="#DejaVuSans-43"/>
     <use xlink:href="#DejaVuSans-6f" transform="translate(69.824219 0)"/>
     <use xlink:href="#DejaVuSans-70" transform="translate(131.005859 0)"/>
     <use xlink:href="#DejaVuSans-79" transform="translate(194.482422 0)"/>
     <use xlink:href="#DejaVuSans-42" transform="translate(253.662109 0)"/>
     <use xlink:href="#DejaVuSans-69" transform="translate(322.265625 0)"/>
     <use xlink:href="#DejaVuSans-74" transform="translate(350.048828 0)"/>
     <use xlink:href="#DejaVuSans-28" transform="translate(389.257812 0)"/>
     <use xlink:href="#DejaVuSans-32" transform="translate(428.271484 0)"/>
     <use xlink:href="#DejaVuSans-29" transform="translate(491.894531 0)"/>
    </g>
   </g>
   <g id="text_62">
    <g clip-path="url(#p38337e508d)">
     <!-- Z(0) -->
     <g transform="translate(123.811678 327.31125) scale(0.12 -0.12)">
      <defs>
       <path id="DejaVuSans-5a" d="M 359 4666 
L 4025 4666 
L 4025 4184 
L 1075 531 
L 4097 531 
L 4097 0 
L 288 0 
L 288 481 
L 3238 4134 
L 359 4134 
L 359 4666 
z
" transform="scale(0.015625)"/>
      </defs>
      <use xlink:href="#DejaVuSans-5a"/>
      <use xlink:href="#DejaVuSans-28" transform="translate(68.505859 0)"/>
      <use xlink:href="#DejaVuSans-30" transform="translate(107.519531 0)"/>
      <use xlink:href="#DejaVuSans-29" transform="translate(171.142578 0)"/>
     </g>
    </g>
   </g>
   <g id="text_63">
    <g clip-path="url(#p38337e508d)">
     <!-- X(0) -->
     <g transform="translate(169.285362 152.176115) scale(0.12 -0.12)">
      <defs>
       <path id="DejaVuSans-58" d="M 403 4666 
L 1081 4666 
L 2241 2931 
L 3406 4666 
L 4084 4666 
L 2584 2425 
L 4184 0 
L 3506 0 
L 2194 1984 
L 872 0 
L 191 0 
L 1856 2491 
L 403 4666 
z
" transform="scale(0.015625)"/>
      </defs>
      <use xlink:href="#DejaVuSans-58"/>
      <use xlink:href="#DejaVuSans-28" transform="translate(68.505859 0)"/>
      <use xlink:href="#DejaVuSans-30" transform="translate(107.519531 0)"/>
      <use xlink:href="#DejaVuSans-29" transform="translate(171.142578 0)"/>
     </g>
    </g>
   </g>
   <g id="text_64">
    <g clip-path="url(#p38337e508d)">
     <!-- X(0) -->
     <g transform="translate(203.390625 344.824764) scale(0.12 -0.12)">
      <use xlink:href="#DejaVuSans-58"/>
      <use xlink:href="#DejaVuSans-28" transform="translate(68.505859 0)"/>
      <use xlink:href="#DejaVuSans-30" transform="translate(107.519531 0)"/>
      <use xlink:href="#DejaVuSans-29" transform="translate(171.142578 0)"/>
     </g>
    </g>
   </g>
   <g id="text_65">
    <g clip-path="url(#p38337e508d)">
     <!-- Z(0) -->
     <g transform="translate(123.811678 134.662601) scale(0.12 -0.12)">
      <use xlink:href="#DejaVuSans-5a"/>
      <use xlink:href="#DejaVuSans-28" transform="translate(68.505859 0)"/>
      <use xlink:href="#DejaVuSans-30" transform="translate(107.519531 0)"/>
      <use xlink:href="#DejaVuSans-29" transform="translate(171.142578 0)"/>
     </g>
    </g>
   </g>
  </g>
 </g>
 <defs>
  <clipPath id="p38337e508d">
   <rect x="0" y="0" width="432" height="648"/>
  </clipPath>
 </defs>
</svg>
